<svg width="432" height="401" fill="none" xmlns="http://www.w3.org/2000/svg"><path d="m75.637 116.944 1.66 3.353 3.7.543-2.675 2.615.625 3.691-3.31-1.743-3.311 1.743.625-3.691-2.675-2.615 3.7-.543 1.66-3.353z" fill="#EBEBEB"/><path d="m407.366 275.092 1.66 3.363 3.7.533-2.675 2.615.625 3.691-3.31-1.743-3.311 1.743.625-3.691-2.675-2.615 3.7-.533 1.661-3.363zM341.655 372.587l1.661 3.364 3.71.543-2.685 2.604.635 3.702-3.321-1.743-3.31 1.743.635-3.702-2.685-2.604 3.71-.543 1.65-3.364z" fill="#F5F5F5"/><path d="m191.345 57.368.615 1.25 1.383.206a.412.412 0 0 1 .344.51.413.413 0 0 1-.118.197l-1.025.974.236 1.374a.427.427 0 0 1-.168.406.423.423 0 0 1-.437.035l-1.23-.656-1.23.656a.422.422 0 0 1-.605-.44l.226-1.375-1.025-.974a.412.412 0 0 1 .022-.619.41.41 0 0 1 .213-.088l1.374-.205.615-1.251a.417.417 0 0 1 .405-.308.419.419 0 0 1 .405.308z" fill="#EBEBEB"/><path d="m22.062 356.632.615 1.241 1.373.205a.416.416 0 0 1 .342.285.419.419 0 0 1-.106.432l-1.025.964.236 1.374a.423.423 0 0 1-.168.406.423.423 0 0 1-.437.035l-1.23-.646-1.23.646a.422.422 0 0 1-.578-.214.423.423 0 0 1-.027-.227l.236-1.374-1.025-.964a.419.419 0 0 1 .226-.717l1.373-.205.625-1.241a.423.423 0 0 1 .4-.291.421.421 0 0 1 .4.291z" fill="#F5F5F5"/><path d="m49.705 44.191.615 1.251 1.384.195a.42.42 0 0 1 .225.718l-1.025 1.025.236 1.364a.41.41 0 0 1-.605.44l-1.23-.645-1.23.646a.41.41 0 0 1-.604-.441l.225-1.364-1.025-1.025a.42.42 0 0 1 .236-.718l1.373-.195.656-1.25a.42.42 0 0 1 .769 0zM48.044 291.334a1.367 1.367 0 0 1-.834 1.267 1.357 1.357 0 0 1-1.489-.289 1.362 1.362 0 0 1 .96-2.331 1.364 1.364 0 0 1 1.364 1.353zM242.316 120.676a1.364 1.364 0 1 1-1.363-1.353 1.362 1.362 0 0 1 1.259.833c.069.165.104.341.104.52z" fill="#EBEBEB"/><path d="M171.635 45.32a1.362 1.362 0 1 1-1.364-1.365 1.372 1.372 0 0 1 1.364 1.364z" fill="#F5F5F5"/><path d="M173.783 377.697a7.538 7.538 0 0 0-3.461-14.67 7.536 7.536 0 0 0-5.601 9.066 7.531 7.531 0 0 0 9.062 5.604z" fill="#F0F0F0"/><path d="M169.472 365.953a7.27 7.27 0 0 0-4.295 1.394 7.528 7.528 0 0 0 6.215 10.503 7.517 7.517 0 0 0 4.547-1.038 7.348 7.348 0 0 0-.153-7.263 7.357 7.357 0 0 0-2.683-2.628 7.358 7.358 0 0 0-3.631-.958v-.01z" fill="#E6E6E6"/><path d="M111.131 239.367H48.762v-28.168l62.369-74.178h29.847v75.777h15.467v26.569h-15.467v23.051h-29.847v-23.051zm0-26.569v-38.801l-32.963 38.801h32.963zM167.114 200.268c0-23.441 4.216-39.847 12.648-49.219 8.432-9.373 21.282-14.055 38.549-14.049 8.289 0 15.098 1.026 20.428 3.077a37.699 37.699 0 0 1 13.027 7.988 42.624 42.624 0 0 1 7.944 10.346 53.756 53.756 0 0 1 4.663 12.653 118.362 118.362 0 0 1 3.444 28.712c0 22.367-3.782 38.736-11.346 49.106-7.565 10.371-20.592 15.559-39.082 15.566-10.373 0-18.754-1.654-25.143-4.963a40.755 40.755 0 0 1-15.712-14.55c-2.973-4.54-5.286-10.75-6.939-18.632a127.558 127.558 0 0 1-2.481-26.035zm33.968.082c0 15.723 1.383 26.445 4.151 32.167 2.767 5.722 6.788 8.596 12.064 8.624a12.658 12.658 0 0 0 9.04-3.661c2.555-2.441 4.434-6.296 5.637-11.567 1.203-5.27 1.804-13.474 1.804-24.609 0-16.366-1.387-27.368-4.161-33.008-2.775-5.64-6.936-8.456-12.484-8.449-5.658 0-9.758 2.874-12.3 8.623-2.542 5.749-3.792 16.376-3.751 31.88zM340.784 239.367h-62.369v-28.168l62.369-74.178h29.847v75.777h15.518v26.569h-15.518v23.051h-29.847v-23.051zm0-26.569v-38.801l-32.952 38.801h32.952z" fill="#096761"/><g opacity=".3" fill="#096761"><path d="M165.782 93.739a1.919 1.919 0 0 1-2.294 1.88 1.92 1.92 0 0 1-1.504-1.513 1.922 1.922 0 0 1 .824-1.967c.317-.21.688-.32 1.068-.318a1.909 1.909 0 0 1 1.906 1.918zM34.546 167.393a1.353 1.353 0 1 0 0-2.706 1.353 1.353 0 0 0 0 2.706zM258.08 365.061a1.938 1.938 0 1 0-.001-3.875 1.938 1.938 0 0 0 .001 3.875zM304.654 286.207a1.353 1.353 0 1 0 0-2.707 1.353 1.353 0 0 0 0 2.707zM394.523 42.468a1.35 1.35 0 0 1-1.617 1.328 1.359 1.359 0 0 1-1.063-1.063 1.359 1.359 0 0 1 .575-1.39 1.357 1.357 0 0 1 1.709.168c.254.254.396.598.396.957zM136.827 15.172a1.351 1.351 0 0 1-1.617 1.328 1.354 1.354 0 0 1 .264-2.681 1.365 1.365 0 0 1 1.353 1.353zM244.386 86.192a1.353 1.353 0 1 0 0-2.706 1.353 1.353 0 0 0 0 2.706z"/></g><path d="M104.52 86.202c12.403 0 22.457-10.059 22.457-22.467S116.923 41.27 104.52 41.27c-12.402 0-22.457 10.058-22.457 22.466 0 12.408 10.055 22.467 22.457 22.467z" fill="#096761"/><path opacity=".7" d="M104.52 86.202c12.403 0 22.457-10.059 22.457-22.467S116.923 41.27 104.52 41.27c-12.402 0-22.457 10.058-22.457 22.466 0 12.408 10.055 22.467 22.457 22.467z" fill="#fff"/><path opacity=".2" d="M96.782 46.785a22.38 22.38 0 0 0-8.897 1.815A22.482 22.482 0 0 0 98.45 85.373a22.46 22.46 0 0 0 14.926-.996 22.484 22.484 0 0 0-4.382-33.942 22.46 22.46 0 0 0-12.253-3.64l.04-.01z" fill="#096761"/><path opacity=".2" d="M94.547 52.722a2.052 2.052 0 0 1-2.45 2.012 2.05 2.05 0 0 1-.739-3.717 2.05 2.05 0 0 1 3.19 1.705zM118.695 50.672a2.053 2.053 0 0 1-1.265 1.894 2.05 2.05 0 1 1 1.265-1.894zM114.595 65.314a3.367 3.367 0 0 1-2.075 3.108 3.359 3.359 0 0 1-3.664-.73 3.366 3.366 0 0 1 .51-5.174 3.361 3.361 0 0 1 5.229 2.796zM103.915 74.902a4.494 4.494 0 0 1-2.771 4.15 4.487 4.487 0 0 1-6.121-3.274 4.493 4.493 0 0 1 4.403-5.367 4.492 4.492 0 0 1 4.489 4.491z" fill="#096761"/><path d="M370.672 334.725c2.5-10.599-4.061-21.219-14.656-23.721-10.594-2.501-21.21 4.063-23.71 14.662-2.501 10.599 4.061 21.219 14.655 23.721 10.595 2.501 21.21-4.063 23.711-14.662z" fill="#096761"/><path opacity=".3" d="M370.672 334.725c2.5-10.599-4.061-21.219-14.656-23.721-10.594-2.501-21.21 4.063-23.71 14.662-2.501 10.599 4.061 21.219 14.655 23.721 10.595 2.501 21.21-4.063 23.711-14.662z" fill="#fff"/><path opacity=".4" d="M363.938 314.939a19.693 19.693 0 0 0-23.096 9.634 19.72 19.72 0 0 0-1.901 13.16 19.706 19.706 0 0 0 6.886 11.372c1.838.559 3.748.842 5.668.841a19.713 19.713 0 0 0 18.977-25.031 19.722 19.722 0 0 0-6.534-9.976z" fill="#096761"/><path d="M332.677 336.124c-21.043 9.905-5.35 17.544 24.302 6.88 27.458-9.874 37.923-22.323 13.324-18.457 1.322 5.178-33.065 18.58-37.626 11.577z" fill="#096761"/><path opacity=".2" d="M363.702 137.021c-27.561 18.632-63.24 43.241-73.09 102.346h-2.101c9.584-58.448 43.961-83.643 71.532-102.346h3.659z" fill="#000"/><path d="M221.13 322.045c-17.424 0-34.654-7.865-43.048-20.703-5.177-7.937-11.193-24.558 6.723-46.738l1.589 1.292c-12.669 15.689-15.005 31.429-6.591 44.328 10.25 15.689 34.429 23.585 55.072 17.965 21.145-5.752 33.977-24.148 35.217-50.47 4.234-90.041 52.048-117.778 86.958-138.03 21.699-12.581 37.37-21.666 33.927-40.852-.482-2.656-1.538-4.491-3.25-5.619-4.458-2.943-13.17-.902-23.256 1.446-19.792 4.614-46.892 10.93-63.035-16.54l1.773-1.025c15.374 26.178 40.558 20.303 60.801 15.586 10.547-2.45 19.648-4.573 24.845-1.159 2.204 1.446 3.557 3.733 4.1 6.973 3.7 20.59-13.325 30.475-34.9 42.985-34.511 20.016-81.762 47.425-85.943 136.379-1.292 27.275-14.678 46.358-36.735 52.357a54.162 54.162 0 0 1-14.247 1.825z" fill="#096761"/><path opacity=".2" d="M221.13 322.045c-17.424 0-34.654-7.865-43.048-20.703-5.177-7.937-11.193-24.558 6.723-46.738l1.589 1.292c-12.669 15.689-15.005 31.429-6.591 44.328 10.25 15.689 34.429 23.585 55.072 17.965 21.145-5.752 33.977-24.148 35.217-50.47 4.234-90.041 52.048-117.778 86.958-138.03 21.699-12.581 37.37-21.666 33.927-40.852-.482-2.656-1.538-4.491-3.25-5.619-4.458-2.943-13.17-.902-23.256 1.446-19.792 4.614-46.892 10.93-63.035-16.54l1.773-1.025c15.374 26.178 40.558 20.303 60.801 15.586 10.547-2.45 19.648-4.573 24.845-1.159 2.204 1.446 3.557 3.733 4.1 6.973 3.7 20.59-13.325 30.475-34.9 42.985-34.511 20.016-81.762 47.425-85.943 136.379-1.292 27.275-14.678 46.358-36.735 52.357a54.162 54.162 0 0 1-14.247 1.825z" fill="#fff"/><path d="M280.332 43.883c4.723.028 9.415.764 13.919 2.185 0 0 11.274 19.246 12.607 23.656-.472 4.347-7.8 11.474-7.8 11.474l-18.726-37.314z" fill="#096761"/><path opacity=".3" d="M280.332 43.883c4.723.028 9.415.764 13.919 2.185 0 0 11.274 19.246 12.607 23.656-.472 4.347-7.8 11.474-7.8 11.474l-18.726-37.314z" fill="#fff"/><path d="M313.725 137.329a145.049 145.049 0 0 1-11.848-16.797 84.724 84.724 0 0 1-2.45-4.532 86.727 86.727 0 0 1-1.271-2.625 11.036 11.036 0 0 1-1.24-2.758c-1.23-12.992 3.218-22.56-1.025-32.987L279 84.233s1.434 18.581 4.714 29.737c2.05 6.901 6.642 12.869 11.08 18.396 1.384 1.722 2.716 3.496 4.1 5.229 1.384 1.733 2.778 3.138 4.1 4.768 1.999 2.472 2.655 4.84 1.148 7.752l-.256.462c-.431.759 1.578 1.62 2.849 0 2.05-2.646 1.763-2.482 3.546-4.738a150.11 150.11 0 0 1 3.403-4.101 3.454 3.454 0 0 0 .041-4.409z" fill="#096761"/><path opacity=".7" d="M313.725 137.329a145.049 145.049 0 0 1-11.848-16.797 84.724 84.724 0 0 1-2.45-4.532 86.727 86.727 0 0 1-1.271-2.625 11.036 11.036 0 0 1-1.24-2.758c-1.23-12.992 3.218-22.56-1.025-32.987L279 84.233s1.434 18.581 4.714 29.737c2.05 6.901 6.642 12.869 11.08 18.396 1.384 1.722 2.716 3.496 4.1 5.229 1.384 1.733 2.778 3.138 4.1 4.768 1.999 2.472 2.655 4.84 1.148 7.752l-.256.462c-.431.759 1.578 1.62 2.849 0 2.05-2.646 1.763-2.482 3.546-4.738a150.11 150.11 0 0 1 3.403-4.101 3.454 3.454 0 0 0 .041-4.409z" fill="#fff"/><path opacity=".3" d="M309.595 131.986a56.092 56.092 0 0 1-8.876 7.711c.44.493.871 1.026 1.311 1.497a45.05 45.05 0 0 0 8.713-7.7l-1.148-1.508zM313.725 137.329l-.123-.144a5.315 5.315 0 0 0-1.301 3.251 5.125 5.125 0 0 0 .389 2.409l.974-1.158a3.456 3.456 0 0 0 .061-4.358z" fill="#096761"/><path d="M276.314 56.188a36.275 36.275 0 0 1-6.529 7.373 23.849 23.849 0 0 1-4.53 3.076c-.853.437-1.737.811-2.645 1.118l-.697.226-.225.061-.482.133c-.296.07-.598.119-.902.144a7.733 7.733 0 0 1-2.572-.236 12.529 12.529 0 0 1-3.014-1.302 25.7 25.7 0 0 1-2.204-1.446 41.44 41.44 0 0 1-3.669-3.076 54.553 54.553 0 0 1-6.15-6.911 2.575 2.575 0 0 1 1.729-4.082 2.573 2.573 0 0 1 1.705.37h.082c2.419 1.538 4.858 3.158 7.236 4.604 1.21.707 2.378 1.425 3.536 1.979a15.66 15.66 0 0 0 1.63.738c.347.153.718.243 1.097.267.061 0 0-.072-.38-.062a2.97 2.97 0 0 0-.358 0l-.226.051.339-.174c.455-.245.896-.516 1.322-.81a18.87 18.87 0 0 0 2.562-2.174 65.07 65.07 0 0 0 5.022-5.937 5.125 5.125 0 0 1 8.2 6.08l.123-.01z" fill="#096761"/><path opacity=".7" d="M276.314 56.188a36.275 36.275 0 0 1-6.529 7.373 23.849 23.849 0 0 1-4.53 3.076c-.853.437-1.737.811-2.645 1.118l-.697.226-.225.061-.482.133c-.296.07-.598.119-.902.144a7.733 7.733 0 0 1-2.572-.236 12.529 12.529 0 0 1-3.014-1.302 25.7 25.7 0 0 1-2.204-1.446 41.44 41.44 0 0 1-3.669-3.076 54.553 54.553 0 0 1-6.15-6.911 2.575 2.575 0 0 1 1.729-4.082 2.573 2.573 0 0 1 1.705.37h.082c2.419 1.538 4.858 3.158 7.236 4.604 1.21.707 2.378 1.425 3.536 1.979a15.66 15.66 0 0 0 1.63.738c.347.153.718.243 1.097.267.061 0 0-.072-.38-.062a2.97 2.97 0 0 0-.358 0l-.226.051.339-.174c.455-.245.896-.516 1.322-.81a18.87 18.87 0 0 0 2.562-2.174 65.07 65.07 0 0 0 5.022-5.937 5.125 5.125 0 0 1 8.2 6.08l.123-.01z" fill="#fff"/><path d="m238.852 49.441 1.199 2.051s.912 2.687 2.747 3.179l4.981-1.61-.256-.42c-.636-.964-.564-2.84-.349-4.4.216-1.558-.584-1.61-1.178-1.22a3.91 3.91 0 0 0-.861 1.692 8.057 8.057 0 0 0-.81-.953l-1.517-1.518a1.761 1.761 0 0 0-2.398-.062l-1.23 1.098a1.75 1.75 0 0 0-.328 2.163z" fill="#096761"/><path opacity=".7" d="m238.852 49.441 1.199 2.051s.912 2.687 2.747 3.179l4.981-1.61-.256-.42c-.636-.964-.564-2.84-.349-4.4.216-1.558-.584-1.61-1.178-1.22a3.91 3.91 0 0 0-.861 1.692 8.057 8.057 0 0 0-.81-.953l-1.517-1.518a1.761 1.761 0 0 0-2.398-.062l-1.23 1.098a1.75 1.75 0 0 0-.328 2.163z" fill="#fff"/><path d="M285.365 42.058a61.1 61.1 0 0 0-15.723 6.635 4.43 4.43 0 0 0-1.989 4.645c1.978 9.68 6.478 22.64 11.336 30.895l22.662-9.382c.154-4-5.35-16.94-10.957-29.45-1.004-2.245-2.941-3.917-5.329-3.343z" fill="#096761"/><path opacity=".8" d="M285.365 42.058a61.1 61.1 0 0 0-15.723 6.635 4.43 4.43 0 0 0-1.989 4.645c1.978 9.68 6.478 22.64 11.336 30.895l22.662-9.382c.154-4-5.35-16.94-10.957-29.45-1.004-2.245-2.941-3.917-5.329-3.343z" fill="#fff"/><path opacity=".3" d="m294.21 53.328-4.5-1.508c1.025 2.635 4.643 5.968 7.175 7.926-.82-2.05-1.732-4.204-2.675-6.419z" fill="#096761"/><path d="M283.878 31.907c-1.875-3.569-5.924-5.363-10.782-4.963-4.1.349-7.729 4.532-7.298 6.788.43 2.256 3.874 3.22 4.53 4l-2.839 2.05a3.08 3.08 0 0 0-.615 4.399c1.199 1.518 2.778 3.076 3.69 4.225 7.851-.206 13.663-3.2 15.764-6.081-.789-3.65-.625-6.87-2.45-10.418z" fill="#096761"/><path opacity=".8" d="M283.878 31.907c-1.875-3.569-5.924-5.363-10.782-4.963-4.1.349-7.729 4.532-7.298 6.788.43 2.256 3.874 3.22 4.53 4l-2.839 2.05a3.08 3.08 0 0 0-.615 4.399c1.199 1.518 2.778 3.076 3.69 4.225 7.851-.206 13.663-3.2 15.764-6.081-.789-3.65-.625-6.87-2.45-10.418z" fill="#fff"/><path d="M280.024 34.122a7.756 7.756 0 0 1 .348 4.492 7.758 7.758 0 0 1-15.334-1.829 7.763 7.763 0 0 1 4.932-7.073 7.766 7.766 0 0 1 10.054 4.41z" fill="#032F2C"/><path d="M346.575 126.531c-.112-3.373-.266-3.076-.358-5.916-.062-1.744-.072-3.682-.082-5.353a3.44 3.44 0 0 0-2.768-3.363c-1.353-.277-2.716-.534-4.1-.821-1.773-.379-3.526-.789-5.258-1.292a60.38 60.38 0 0 1-4.007-1.302c-1.323-.482-2.809-1.025-4.182-1.661a99.818 99.818 0 0 1-4.797-2.195 208.518 208.518 0 0 1-5.279-2.614c-6.744-11.167-6.887-18.53-14.124-27.163l-15.538 7.034s11.418 20.262 19.187 28.855c4.479 4.942 11.5 7.178 17.763 8.798 4.52 1.159 9.102 2.051 13.683 2.902 1.784.328 3.721.451 5.258 1.517a5.887 5.887 0 0 1 2.194 3.538c.068.287.13.574.184.861.195.862 2.296.205 2.224-1.825z" fill="#096761"/><path opacity=".8" d="M346.575 126.531c-.112-3.373-.266-3.076-.358-5.916-.062-1.744-.072-3.682-.082-5.353a3.44 3.44 0 0 0-2.768-3.363c-1.353-.277-2.716-.534-4.1-.821-1.773-.379-3.526-.789-5.258-1.292a60.38 60.38 0 0 1-4.007-1.302c-1.323-.482-2.809-1.025-4.182-1.661a99.818 99.818 0 0 1-4.797-2.195 208.518 208.518 0 0 1-5.279-2.614c-6.744-11.167-6.887-18.53-14.124-27.163l-15.538 7.034s11.418 20.262 19.187 28.855c4.479 4.942 11.5 7.178 17.763 8.798 4.52 1.159 9.102 2.051 13.683 2.902 1.784.328 3.721.451 5.258 1.517a5.887 5.887 0 0 1 2.194 3.538c.068.287.13.574.184.861.195.862 2.296.205 2.224-1.825z" fill="#fff"/><path opacity=".3" d="M338.693 110.945a69.709 69.709 0 0 1-1.855-.42c.051 3.547-1.609 9.659-2.214 11.515l1.948.369a39.094 39.094 0 0 0 2.121-11.464zM346.176 115.262a3.45 3.45 0 0 0-2.758-3.363l-1.025-.195a4.696 4.696 0 0 0 1.671 2.973 5.204 5.204 0 0 0 2.05 1.169c.062-.184.062-.389.062-.584z" fill="#096761"/><path d="M278.579 34.183c.41 1.559-1.332 3.19-2.716 1.846a31.585 31.585 0 0 0-4.223-3.784c-1.424-.892.472-2.45 2.716-1.845a6.09 6.09 0 0 1 4.223 3.783z" fill="#fff"/><path d="M278.692 83.73c-.718.267.594 1.498.594 1.498s14.35-4.912 23.062-9.967a1.932 1.932 0 0 0-.697-1.62 221.333 221.333 0 0 1-22.959 10.09z" fill="#096761"/><path opacity=".5" d="M278.692 83.73c-.718.267.594 1.498.594 1.498s14.35-4.912 23.062-9.967a1.932 1.932 0 0 0-.697-1.62 221.333 221.333 0 0 1-22.959 10.09z" fill="#fff"/><path d="M289.249 41.382a113.116 113.116 0 0 1 8.2 4.614 93.693 93.693 0 0 1 3.936 2.615c1.301.922 2.593 1.866 3.895 2.932l.481.4.605.554c.36.322.703.665 1.025 1.025.328.36.605.708.871 1.026.267.318.554.697.789 1.025a44.828 44.828 0 0 1 2.645 4.102 60.67 60.67 0 0 1 4.1 8.562 2.59 2.59 0 0 1-1.047 3.104 2.585 2.585 0 0 1-3.248-.417l-.051-.062c-2.05-2.184-4.028-4.481-6.017-6.624-1.988-2.143-4.007-4.317-5.678-5.27-2.327-1.447-4.92-2.892-7.493-4.308l-7.748-4.306a5.126 5.126 0 0 1-2.132-6.932 5.125 5.125 0 0 1 6.929-2.133l-.062.093z" fill="#096761"/><path opacity=".8" d="M289.249 41.382a113.116 113.116 0 0 1 8.2 4.614 93.693 93.693 0 0 1 3.936 2.615c1.301.922 2.593 1.866 3.895 2.932l.481.4.605.554c.36.322.703.665 1.025 1.025.328.36.605.708.871 1.026.267.318.554.697.789 1.025a44.828 44.828 0 0 1 2.645 4.102 60.67 60.67 0 0 1 4.1 8.562 2.59 2.59 0 0 1-1.047 3.104 2.585 2.585 0 0 1-3.248-.417l-.051-.062c-2.05-2.184-4.028-4.481-6.017-6.624-1.988-2.143-4.007-4.317-5.678-5.27-2.327-1.447-4.92-2.892-7.493-4.308l-7.748-4.306a5.126 5.126 0 0 1-2.132-6.932 5.125 5.125 0 0 1 6.929-2.133l-.062.093z" fill="#fff"/><path d="m318.225 73.354-.871-2.184s-.482-2.79-2.214-3.569l-5.125.81.174.451c.472 1.026.113 2.902-.348 4.4-.462 1.496.317 1.691.973 1.394.369-.164.728-.83 1.117-1.538.192.356.407.699.646 1.025l1.261 1.733a1.762 1.762 0 0 0 2.357.451l1.394-.892a1.743 1.743 0 0 0 .636-2.081z" fill="#096761"/><path opacity=".8" d="m318.225 73.354-.871-2.184s-.482-2.79-2.214-3.569l-5.125.81.174.451c.472 1.026.113 2.902-.348 4.4-.462 1.496.317 1.691.973 1.394.369-.164.728-.83 1.117-1.538.192.356.407.699.646 1.025l1.261 1.733a1.762 1.762 0 0 0 2.357.451l1.394-.892a1.743 1.743 0 0 0 .636-2.081z" fill="#fff"/><path opacity=".3" d="m284.924 53.174-1.251.102-7.677 18.54a4.1 4.1 0 0 0 1.251-.103s10.003-3.732 13.027-5.127c-2.029-4.194-5.35-13.412-5.35-13.412z" fill="#096761"/><path d="M270.912 58.034a44.533 44.533 0 0 0 5.125 13.782c3.752-1.293 10.004-3.733 13.038-5.127a138.855 138.855 0 0 1-5.422-13.413c-3.208.216-10.25 2.912-12.741 4.758z" fill="#fff"/><path opacity=".3" d="M278.528 62.044a2.647 2.647 0 0 1-2.265 1.874 2.644 2.644 0 0 1-2.318-4.304 2.646 2.646 0 0 1 4.583 2.43z" fill="#096761"/><path opacity=".6" d="M280.486 58.516a.87.87 0 1 1-.574-1.025.865.865 0 0 1 .574 1.025zM282.782 57.624a.87.87 0 0 1-1.725-.148.86.86 0 0 1 .064-.355.864.864 0 0 1 1.589-.155c.11.201.135.438.072.658z" fill="#096761"/><path opacity=".5" d="m286 65.602-9.481 3.753-.574-1.867 9.481-3.753.574 1.867z" fill="#096761"/><path opacity=".2" d="M233.696 208.123a96.39 96.39 0 0 1-1.722 17.79c-1.209 5.271-3.088 9.126-5.637 11.567a12.599 12.599 0 0 1-9.03 3.661c-5.268 0-9.29-2.875-12.064-8.624a24.437 24.437 0 0 1-1.24-3.189 148.005 148.005 0 0 0-16.318 16.406l-5.442 6.419a39.563 39.563 0 0 0 10.014 7.373c6.382 3.302 14.759 4.956 25.132 4.963 1.824 0 3.587-.051 5.299-.154a147.054 147.054 0 0 0 15.477-29.737l15.221-39.703-19.69 13.228z" fill="#000"/><path d="m96.484 262.295 17.937 17.944 50.223-47.343c-17.311-6.614-50.971 12.162-68.16 29.399zM159.038 324.844c-5.73-5.742-17.937-17.944-17.937-17.944l47.322-50.245c6.57 17.278-12.197 50.983-29.385 68.189z" fill="#032F2C"/><path d="m227.69 211.742 19.566-37.745-37.728 19.596a147.77 147.77 0 0 0-33.25 23.584l-64.317 60.57 31.6 31.614 60.544-64.344a147.898 147.898 0 0 0 23.585-33.275z" fill="#096761"/><path opacity=".6" d="m227.69 211.742 19.566-37.745-37.728 19.596a147.77 147.77 0 0 0-33.25 23.584l-64.317 60.57 31.6 31.614 60.544-64.344a147.898 147.898 0 0 0 23.585-33.275z" fill="#fff"/><path d="M187.501 246.996c7.302 0 13.222-5.923 13.222-13.228 0-7.306-5.92-13.228-13.222-13.228s-13.222 5.922-13.222 13.228c0 7.305 5.92 13.228 13.222 13.228z" fill="#fff"/><path d="M187.501 242.268a8.498 8.498 0 0 0 8.497-8.5c0-4.695-3.804-8.501-8.497-8.501s-8.497 3.806-8.497 8.501c0 4.695 3.804 8.5 8.497 8.5z" fill="#096761"/><path opacity=".3" d="m154.241 297.989-30.933-30.947 25.326-23.851 29.448 29.46-23.841 25.338z" fill="#096761"/><path d="M103.485 290.616c-23.164 1.877-30.841 16.714-33.465 36.433-1.333 10.059-1.927 20.241-10.363 26.127a2.839 2.839 0 0 0-.045 4.667c.5.355 1.103.538 1.716.522 31.097-.974 45.601-16.202 47.425-22.559a44.174 44.174 0 0 1-2.552 9.71 2.826 2.826 0 0 0 .793 3.223 2.828 2.828 0 0 0 3.307.254c8.722-5.466 19.669-15.535 20.397-31.87-6.417-9.095-27.213-26.507-27.213-26.507z" fill="#096761"/><path opacity=".2" d="M103.485 290.616c-23.164 1.877-30.841 16.714-33.465 36.433-1.333 10.059-1.927 20.241-10.363 26.127a2.839 2.839 0 0 0-.045 4.667c.5.355 1.103.538 1.716.522 31.097-.974 45.601-16.202 47.425-22.559a44.174 44.174 0 0 1-2.552 9.71 2.826 2.826 0 0 0 .793 3.223 2.828 2.828 0 0 0 3.307.254c8.722-5.466 19.669-15.535 20.397-31.87-6.417-9.095-27.213-26.507-27.213-26.507z" fill="#fff"/><path d="m134.285 324.127-37.093-37.12 19.761-4.276 21.606 21.615-4.274 19.781z" fill="#096761"/></svg>