<svg width="185" height="39" fill="none" xmlns="http://www.w3.org/2000/svg"><path d="M.75 3.653h10v34.4h-10v-34.4zm14.1 22.7h-2v-7.65h1.7c1.033 0 1.817-.033 2.35-.1.533-.1.95-.266 1.25-.5.267-.233.45-.583.55-1.05.1-.466.15-1.15.15-2.05 0-.9-.05-1.583-.15-2.05-.1-.5-.283-.866-.55-1.1-.267-.233-.667-.383-1.2-.45-.5-.066-1.3-.1-2.4-.1h-1.7v-7.65H18c2.367 0 4.283.234 5.75.7 1.467.467 2.6 1.184 3.4 2.15.733.9 1.217 2.017 1.45 3.35.267 1.334.4 3.05.4 5.15 0 2.7-.25 4.784-.75 6.25-.7 1.867-1.933 3.184-3.7 3.95l5.2 12.85h-10.5l-4.4-11.7zm32.241-4.1c0-.866-.033-1.483-.1-1.85a1.063 1.063 0 0 0-.6-.8c-.3-.166-.866-.283-1.7-.35-.5-.033-1.583-.05-3.25-.05-1.6 0-3.083.067-4.45.2l-2.65.15v-6.5c3.134-.6 6.517-.9 10.15-.9 2.8 0 4.984.2 6.55.6 1.6.4 2.8 1.034 3.6 1.9.7.8 1.15 1.817 1.35 3.05.234 1.234.35 2.95.35 5.15v15.2h-9.25v-15.8zm-7.4 16.15c-2.3 0-4-.633-5.1-1.9-1.1-1.3-1.65-3.25-1.65-5.85 0-1.6.117-2.883.35-3.85.234-1 .634-1.783 1.2-2.35.567-.6 1.35-1.016 2.35-1.25 1-.266 2.317-.4 3.95-.4l4.2.1v4.45h-.5c-.766 0-1.266.017-1.5.05-.666.034-1.016.35-1.05.95-.033.2-.05.617-.05 1.25 0 .5.017.884.05 1.15.067.267.167.484.3.65.167.234.417.367.75.4.467.067.967.1 1.5.1h.5v5.1c-.733.567-1.516.934-2.35 1.1-.8.2-1.783.3-2.95.3zM75.872.903h9.25v37.15h-9.25V.903zm-7.2 37.5c-1.333 0-2.483-.216-3.45-.65-.933-.433-1.683-1.133-2.25-2.1-.633-1-1.1-2.333-1.4-4-.266-1.666-.4-3.75-.4-6.25 0-4.9.6-8.333 1.8-10.3 1.134-1.933 3.034-2.9 5.7-2.9 1.2 0 2.184.1 2.95.3.767.167 1.484.517 2.15 1.05v6.35h-.55c-.733 0-1.266.05-1.6.15-.3.067-.533.25-.7.55-.166.367-.266.9-.3 1.6-.033.5-.05 1.534-.05 3.1 0 1.567.017 2.6.05 3.1.034.7.134 1.234.3 1.6.167.334.434.534.8.6.467.067.967.1 1.5.1h.55v6.35c-.666.5-1.416.85-2.25 1.05-.8.2-1.75.3-2.85.3zm35.207-16.15c0-.866-.034-1.483-.1-1.85a1.064 1.064 0 0 0-.6-.8c-.3-.166-.867-.283-1.7-.35-.5-.033-1.584-.05-3.25-.05-1.6 0-3.084.067-4.45.2l-2.65.15v-6.5c3.133-.6 6.516-.9 10.15-.9 2.8 0 4.983.2 6.55.6 1.6.4 2.8 1.034 3.6 1.9.7.8 1.15 1.817 1.35 3.05.233 1.234.35 2.95.35 5.15v15.2h-9.25v-15.8zm-7.4 16.15c-2.3 0-4-.633-5.1-1.9-1.1-1.3-1.65-3.25-1.65-5.85 0-1.6.116-2.883.35-3.85.233-1 .633-1.783 1.2-2.35.566-.6 1.35-1.016 2.35-1.25 1-.266 2.316-.4 3.95-.4l4.2.1v4.45h-.5c-.767 0-1.267.017-1.5.05-.667.034-1.017.35-1.05.95-.034.2-.05.617-.05 1.25 0 .5.016.884.05 1.15.066.267.166.484.3.65.166.234.416.367.75.4.466.067.966.1 1.5.1h.5v5.1c-.734.567-1.517.934-2.35 1.1-.8.2-1.784.3-2.95.3zm33.58-24.4a5.822 5.822 0 0 1 2.45-1.4c.967-.3 2.15-.45 3.55-.45v8.35c-1.5 0-2.733.1-3.7.3-.933.2-1.7.55-2.3 1.05v-7.85zm-11.35-1.45h9.25v25.5h-9.25v-25.5zm32.591 1.45a5.816 5.816 0 0 1 2.45-1.4c.966-.3 2.15-.45 3.55-.45v8.35c-1.5 0-2.734.1-3.7.3-.934.2-1.7.55-2.3 1.05v-7.85zm-11.35-1.45h9.25v25.5h-9.25v-25.5zm35.246 12.8c0-1.7-.017-2.833-.05-3.4-.034-.8-.134-1.4-.3-1.8-.167-.433-.434-.7-.8-.8-.4-.1-.95-.15-1.65-.15h-.7v-7.05h.7c2.9 0 5.166.234 6.8.7 1.633.434 2.85 1.167 3.65 2.2.733.934 1.2 2.184 1.4 3.75.233 1.534.35 3.717.35 6.55 0 2.634-.084 4.684-.25 6.15-.134 1.434-.484 2.617-1.05 3.55-.634 1.034-1.584 1.817-2.85 2.35-1.267.5-3.017.817-5.25.95v-13zm-2.8 13.1c-2.9 0-5.167-.216-6.8-.65-1.634-.433-2.85-1.166-3.65-2.2-.734-.933-1.217-2.166-1.45-3.7-.2-1.533-.3-3.716-.3-6.55 0-2.6.083-4.633.25-6.1.166-1.466.533-2.683 1.1-3.65.6-1.066 1.533-1.85 2.8-2.35 1.266-.533 3.016-.866 5.25-1v13.1c0 1.7.016 2.817.05 3.35.033.8.133 1.4.3 1.8.166.4.45.65.85.75.333.1.866.15 1.6.15h.7v7.05h-.7z" fill="#096761"/></svg>