<svg width="612" height="441" fill="none" xmlns="http://www.w3.org/2000/svg"><path d="m601.36 134.54-9.57 46.34-6.16-6-10.48 7.47-8.01-9.94-17.96 13.06-15.35-25.67-17.12 10.03-6.79-9.37-21.74 12.25-6.54-14 15.24-73.81 81.7 16.87 22.78 32.77z" fill="#EBEBEB"/><path d="m578.58 101.77 22.78 32.77-28.34-5.85 5.56-26.92z" fill="#DBDBDB"/><path d="m589.75 190.15-14.03 67.99-110.05-22.71 13.93-67.46 6.54 14.01 21.75-12.25 6.78 9.36 17.13-10.03 15.34 25.67 17.97-13.06 8 9.94 10.49-7.47 6.15 6.01zM432.24 182.18l-112.15 6.94-8.91-143.97L394.46 40l30.57 25.64 7.21 116.54z" fill="#EBEBEB"/><path d="m394.46 40 30.57 25.64-28.88 1.79L394.46 40zM363.41 136.87l-.44-3.25c-1.13-6.73.71-14.26 6.56-22.13 5.28-7 8.14-12 7.82-17.68-.36-6.4-4.61-10.44-12.52-10.12a22.31 22.31 0 0 0-12.45 4.6l-3.45-7.73c4-3.25 11-5.65 17.65-6 14.43-.8 21.45 7.74 22 17.27.48 8.53-3.94 14.94-9.56 22.43-5.16 6.83-6.85 12.46-6.12 18.83l.31 3.26-9.8.52zm-1.78 17.71c-.26-4.64 2.69-8.08 7.08-8.32 4.39-.24 7.59 2.84 7.85 7.49.24 4.39-2.45 7.93-7.09 8.19-4.43.25-7.63-2.97-7.88-7.36h.04z" fill="#DBDBDB"/><path d="m82.89 112.38-11.28-5.11-1.57 3.45a3 3 0 0 1-2.57 1.72c-.62.02-1.238.08-1.85.18a2.996 2.996 0 0 1-2.85-1.18l-2.21-3.09-10.07 7.22 2.21 3.09a3 3 0 0 1 .2 3.07 18.31 18.31 0 0 0-.77 1.69 2.998 2.998 0 0 1-2.45 1.89l-3.77.37 1.21 12.33 3.79-.38a3.005 3.005 0 0 1 2.77 1.38c.16.26.33.51.51.76s.36.49.55.73a2.939 2.939 0 0 1 .42 3.05l-1.58 3.48 11.29 5.12 1.57-3.47a2.994 2.994 0 0 1 2.58-1.71 16.037 16.037 0 0 0 1.83-.18 2.996 2.996 0 0 1 2.85 1.18l2.21 3.09 10.08-7.22-2.21-3.09a2.91 2.91 0 0 1-.2-3.07c.279-.547.529-1.108.75-1.68a2.938 2.938 0 0 1 2.45-1.89l3.79-.38-1.22-12.33-3.79.37a2.942 2.942 0 0 1-2.75-1.37c-.17-.26-.34-.51-.52-.76s-.36-.5-.55-.73a3.002 3.002 0 0 1-.42-3.07l1.57-3.46zm-6.4 11.41a10.15 10.15 0 1 1-16.501 11.825A10.15 10.15 0 0 1 76.49 123.79zM592.79 275.98l-7.52 4.34 1.33 2.3a2.002 2.002 0 0 1-.07 2.17c-.23.36-.45.73-.65 1.12a2 2 0 0 1-1.83 1.14h-2.64v8.69h2.66a2 2 0 0 1 1.83 1.14c.2.39.42.76.65 1.12a2.002 2.002 0 0 1 .07 2.17l-1.33 2.3 7.52 4.34 1.34-2.31a2.044 2.044 0 0 1 1.91-1h1.28a2.063 2.063 0 0 1 1.91 1l1.34 2.32 7.51-4.34-1.33-2.31a2.054 2.054 0 0 1 .08-2.16c.23-.36.45-.74.65-1.12a2 2 0 0 1 1.83-1.14h2.66v-8.69h-2.68a2 2 0 0 1-1.83-1.14c-.2-.38-.42-.76-.65-1.12a2.052 2.052 0 0 1-.08-2.16l1.33-2.31-7.51-4.34-1.34 2.28a2.044 2.044 0 0 1-1.91 1h-1.28a2.068 2.068 0 0 1-1.1-.231 2.071 2.071 0 0 1-.82-.769l-1.33-2.29zm3.89 8.3a7.115 7.115 0 0 1 6.586 4.391 7.124 7.124 0 0 1-1.541 7.764 7.125 7.125 0 0 1-10.959-1.086 7.115 7.115 0 0 1-1.196-3.959 7.116 7.116 0 0 1 7.11-7.12v.01zM105.71 75.43l-6.89 5.28 1.59 2.11a1.999 1.999 0 0 1 .21 2.15c-.191.39-.358.79-.5 1.2a2.05 2.05 0 0 1-1.67 1.37l-2.64.34 1.12 8.61 2.64-.34a2.06 2.06 0 0 1 2 .9c.241.348.501.682.78 1a2 2 0 0 1 .36 2.13l-1 2.46 8 3.33 1-2.46a2.057 2.057 0 0 1 1.77-1.25l.64-.07.63-.1a2.06 2.06 0 0 1 2 .75l1.63 2.13 6.89-5.28-1.61-2.11a2.063 2.063 0 0 1-.21-2.16c.19-.387.357-.784.5-1.19a2.048 2.048 0 0 1 1.67-1.37l2.64-.34-1.12-8.61-2.64.34a2.06 2.06 0 0 1-2-.89c-.25-.36-.51-.7-.79-1a2.069 2.069 0 0 1-.3-2.09l1-2.46-8-3.33-1 2.46a2.075 2.075 0 0 1-1.77 1.25l-.64.06-.59.02a2.062 2.062 0 0 1-2-.75l-1.7-2.09zm4.93 7.73a7.11 7.11 0 1 1 1.813 14.103 7.11 7.11 0 0 1-1.813-14.103zM54.23 301.05c.376-9.667.242-19.347-.4-29a370.786 370.786 0 0 0-9.09-59.16c-2.54-10.94-5.66-21.7-8.92-32.45-.1-.33-.62-.24-.53.1 10.07 37.9 18.33 77 17.76 116.4-.16 11-1.44 21.85-2.48 32.81 0 .29.45.41.52.11 2.07-9.41 2.75-19.23 3.14-28.81z" fill="#EBEBEB"/><path d="M35.29 180.51s-15.24 38.7-11.83 47.76c3.41 9.06 10.45 11 10.45 11s-9.33 13.32-2.81 25.81c6.52 12.49 21 11.9 22 26.06-.03.07.77-59.14-17.81-110.63z" fill="#EBEBEB"/><path d="M51.41 266.76a.28.28 0 0 0 0-.2 354.32 354.32 0 0 0-14.78-77.85c0-.07-.15-.05-.13 0a577.86 577.86 0 0 1 8 34.14 16.87 16.87 0 0 0-7.28-4.06s-.08.06 0 .08a19.353 19.353 0 0 1 7.52 5c.44 2.25.88 4.49 1.29 6.74-3.41-3.81-8.13-5.7-12.86-7.5a.06.06 0 0 0 0 .11c4.93 2 9.83 4.58 13.17 8.83 1.16 6.42 2.18 12.863 3.06 19.33a18.436 18.436 0 0 0-9.09-5.21c-.11 0-.17.13-.06.16a19.165 19.165 0 0 1 9.16 5.94h.06c.3 2.267.587 4.543.86 6.83a23.374 23.374 0 0 0-6.37-3.84c-.06 0-.1.07 0 .09a21.88 21.88 0 0 1 6.39 4.23h.08c.25 2.17.5 4.34.72 6.51a31.001 31.001 0 0 0-12.93-9.24.08.08 0 0 0-.056.137.08.08 0 0 0 .056.023 33.682 33.682 0 0 1 12.74 9.81.299.299 0 0 0 .32.1c.33 3.33.63 6.66.87 10 0 .05.08.05.08 0-.26-3.353-.533-6.74-.82-10.16z" fill="#fff"/><path d="M39.16 214.98a19.089 19.089 0 0 0-9.16-2.86.058.058 0 0 0-.042.018.059.059 0 0 0-.018.042c0 .016.006.031.018.043a.06.06 0 0 0 .042.017 36.144 36.144 0 0 1 9.06 3c.12.03.21-.18.1-.26zM41.01 255.95a19.076 19.076 0 0 0-6.88-2.35c-.08 0-.09.11 0 .13a26.084 26.084 0 0 1 6.8 2.38c.09.05.17-.11.08-.16z" fill="#fff"/><path d="M94.31 228.94a103.739 103.739 0 0 0-17.65 15.42 63.194 63.194 0 0 0-12.37 21 156.931 156.931 0 0 0-9.22 50.2 122.32 122.32 0 0 0 2.71 28.23.273.273 0 0 0 .116.164.272.272 0 0 0 .366-.069.271.271 0 0 0 .048-.195 158.598 158.598 0 0 1 .28-49.35c2.62-16 6.73-33.42 16.91-46.43 5.54-7.09 12.45-12.66 19.28-18.42.36-.32-.1-.81-.47-.55z" fill="#EBEBEB"/><path d="M57.31 304.02a94.986 94.986 0 0 1 12.86-16.44c7.63-7.63 14.05-13.05 15.05-18.09 1-5.04-7.64-8.76-7.64-8.76s10.55 1.9 13.44-2.53c2.89-4.43 4.28-30.09 4.28-30.09s-19.2 13.71-28.15 32.93-9.84 42.98-9.84 42.98z" fill="#EBEBEB"/><path d="M88.41 252.18a16.837 16.837 0 0 0-3.82-.13c-.15 0-.14.26 0 .27 1.26 0 2.53-.06 3.79 0a.08.08 0 0 0 .03-.14zM74.62 277.07a17.199 17.199 0 0 0-5.92 1.18v.09c2-.47 3.93-.66 5.91-1a.15.15 0 0 0 .01-.27zM70.48 268.47a13.207 13.207 0 0 0-2.51.22.084.084 0 0 0-.038.029.083.083 0 0 0-.014.046c0 .016.005.032.014.046.01.013.023.023.038.029.838.049 1.68.012 2.51-.11a.129.129 0 0 0 .13-.13.132.132 0 0 0-.038-.092.132.132 0 0 0-.092-.038z" fill="#fff"/><path d="M1.02 256.16a87.175 87.175 0 0 1 17.85 8.41 53.342 53.342 0 0 1 14.87 14.12 132.198 132.198 0 0 1 19.06 38.49c2.35 7.632 3.8 15.512 4.32 23.48a.232.232 0 0 1-.225.183.231.231 0 0 1-.225-.183 133.207 133.207 0 0 0-11.62-39.87c-5.83-12.35-13.18-25.49-24.42-33.67-6.12-4.45-13-7.37-19.86-10.45-.36-.12-.11-.63.25-.51z" fill="#EBEBEB"/><path d="M48.32 308.37a80.263 80.263 0 0 0-14.21-10.33c-7.94-4.41-14.39-7.31-16.36-11.16-1.97-3.85 4.16-8.85 4.16-8.85s-8.1 4-11.46 1.05C7.09 276.13.03 255.73.03 255.73s18.71 6.65 30.38 20.14c11.67 13.49 17.91 32.5 17.91 32.5z" fill="#EBEBEB"/><path d="M32.79 289.59a14.35 14.35 0 0 0-5.44.67v.08a40.744 40.744 0 0 1 5.41-.56c.13 0 .16-.18.03-.19zM16.47 268.19a9.228 9.228 0 0 0-2.51.14c-.09 0-.06.16 0 .15.83-.09 1.64-.06 2.46-.08a.112.112 0 0 0 .07-.022.11.11 0 0 0-.02-.188z" fill="#fff"/><path d="M72.45 366.45H30.22l6.02-44.11 1.54-11.31h27.11l1.54 11.31 6.02 44.11z" fill="#DBDBDB"/><path d="M66.43 322.34H36.24l1.54-11.31h27.11l1.54 11.31z" fill="#C7C7C7"/><path d="M68.76 307.11H33.9v9.58h34.86v-9.58z" fill="#DBDBDB"/><path d="m3.37 366.45 76.01-.25 76.01-.08 152.02-.17 152.02.16 76.01.09 76.01.25-76.01.24-76.01.09-152.02.16-152.02-.16-76.01-.09-76.01-.24z" fill="#032F2C"/><path d="M309.41 440.98c158.362 0 286.74-14.067 286.74-31.42s-128.378-31.42-286.74-31.42c-158.362 0-286.74 14.067-286.74 31.42s128.378 31.42 286.74 31.42z" fill="#EBEBEB"/><path d="M242.66 404.36c-2.33.79-69.14 1-71.7-.58-1-.6-1.57-10.33-2-22.11-.09-2.54-.16-5.17-.22-7.83l-5.33-35.64 44.67-.29 4.21 35.65-.17 7.84s25.62 11.35 28.24 13.41c2.62 2.06 4.63 8.76 2.3 9.55z" fill="#FFC6A5"/><path d="M242.66 404.36c-2.33.79-69.14 1-71.7-.58-1.18-.74-1.82-14.95-2.18-29.94l43.46-.28-.17 7.84s25.62 11.35 28.24 13.41c2.62 2.06 4.68 8.76 2.35 9.55z" fill="#fff"/><path d="M242.66 404.36c-2.33.79-69.14 1-71.7-.58-1-.6-1.57-10.33-2-22.11l43.07-.27s25.62 11.35 28.24 13.41c2.62 2.06 4.72 8.76 2.39 9.55z" fill="#A6A6A6"/><path d="M241.69 401.69c-11.2-.24-56.4-.13-67.49.49-.09 0-.09.06 0 .07 11.1.47 56.3 0 67.49-.38.24-.01.24-.18 0-.18zM236 392.42a9.006 9.006 0 0 0-6.69 2.76 8.66 8.66 0 0 0-2.48 6c0 .07.12.07.13 0a10.402 10.402 0 0 1 9-8.6.083.083 0 0 0 .062-.009.084.084 0 0 0 .038-.051.083.083 0 0 0-.009-.062.082.082 0 0 0-.051-.038zM216.41 382.5c-4.48-.05-9.67 1.55-12.45 5.23-.1.14.1.29.23.22a62.206 62.206 0 0 1 12.3-4.9.279.279 0 0 0 .203-.31.281.281 0 0 0-.283-.24zM219.89 383.83c-4.49 0-9.68 1.56-12.45 5.23-.11.15.09.3.23.23a61.514 61.514 0 0 1 12.29-4.91.284.284 0 0 0 .159-.115.286.286 0 0 0 .045-.191.285.285 0 0 0-.091-.173.283.283 0 0 0-.183-.071zM223.35 385.17c-4.48 0-9.67 1.55-12.45 5.23-.1.14.1.29.23.22a62.206 62.206 0 0 1 12.3-4.9.279.279 0 0 0 .203-.31.281.281 0 0 0-.283-.24zM226.82 386.51c-4.49-.05-9.68 1.55-12.45 5.23-.11.14.1.29.23.22a61.999 61.999 0 0 1 12.3-4.9.279.279 0 0 0 .203-.31.281.281 0 0 0-.283-.24zM177.02 391.53c-5 0-5 7.85 0 7.82 5-.03 5.04-7.85 0-7.82z" fill="#032F2C"/><path d="M221.22 370.52c-2.27-1.88-5.13 0-6.52 1.93a23.575 23.575 0 0 0-4 11.48c0 .09.07.13.14.13a.55.55 0 0 0 .11.231.546.546 0 0 0 .7.119c3.18-2.21 6.86-4.19 9.27-7.32 1.37-1.82 2.49-4.82.3-6.57zm-5.46 9.54c-1.54 1.13-3.13 2.18-4.63 3.37.8-2.24 1.49-4.5 2.51-6.66a25.055 25.055 0 0 1 1.62-3c1-1.49 5.36-5.25 5.82-.38.26 2.67-3.49 5.33-5.32 6.67z" fill="#032F2C"/><path d="M199.54 385.63c3.9.58 7.93-.54 11.76-1.15a.569.569 0 0 0 .225-.119.54.54 0 0 0 .184-.459.545.545 0 0 0-.079-.242.125.125 0 0 0 .047-.095.122.122 0 0 0-.013-.053.115.115 0 0 0-.034-.042 23.495 23.495 0 0 0-10.86-5.47c-2.36-.45-5.7.2-6 3.13-.36 2.76 2.49 4.14 4.77 4.5zm-2.72-2.54c-3-3.84 2.73-4.17 4.45-3.77 1.116.279 2.212.633 3.28 1.06a69.587 69.587 0 0 1 6.41 3.05c-1.9.19-3.77.53-5.66.79-2.26.3-6.8.98-8.48-1.13z" fill="#032F2C"/><path d="M97.73 173.47s51.87 88.24 53.26 94.44c2.13 9.52 13.42 103.53 13.42 103.53l54-1s-9.3-82.89-18.11-110.2c-6.34-19.67-52.12-84.91-52.12-84.91l-50.45-1.86z" fill="#37474F"/><path d="M213.5 362.2c-7.75-.06-35.22-.37-45.54.59-.08 0-.07.14 0 .15 3.55.51 37.78-.28 45.53-.53.016.006.034.008.051.006a.128.128 0 0 0 .047-.018.107.107 0 0 0 .049-.086.11.11 0 0 0-.009-.051.12.12 0 0 0-.031-.04.11.11 0 0 0-.097-.021zM106.58 181.57c3.4 5.33 7 10.55 10.46 15.84 3.46 5.29 6.94 10.58 10.37 15.86a1299.858 1299.858 0 0 1 20 32.21 98.617 98.617 0 0 1 8.1 15.79 96.812 96.812 0 0 1 4.55 16.94c1.06 5.79 1.76 11.64 2.41 17.49.667 6.22 1.363 12.443 2.09 18.67 1.42 12.74 2.843 25.48 4.27 38.22.17 1.56.34 3.12.5 4.69 0 .23-.39.27-.42 0-1.59-12.65-2.91-25.35-4.35-38-.72-6.313-1.437-12.623-2.15-18.93-.67-5.87-1.31-11.75-2.22-17.58a114.923 114.923 0 0 0-3.8-17 81.605 81.605 0 0 0-7.46-16.5c-6.25-10.79-12.87-21.39-19.49-32-6.62-10.61-13.42-21.31-20.4-31.79-.86-1.29-1.73-2.58-2.63-3.85-.07-.07.11-.16.17-.06z" fill="#032F2C"/><path d="M114.73 409.56c-2.46-.15-66-25.89-67.76-28.33a.841.841 0 0 1-.1-.47c0-2.19 4.41-9.83 8.09-19.87.23-.64 1.87-3.62 4.14-7.63 6.31-10.99 17.31-29.92 17.31-29.92l41.53 16.5-19.88 29.75-3.09 7.2s19.49 20.15 21.13 23c1.64 2.85 1.08 9.91-1.37 9.77z" fill="#FFC6A5"/><path d="M114.73 409.56c-2.46-.15-66-25.89-67.76-28.33a.841.841 0 0 1-.1-.47c0-2.19 4.41-9.83 8.09-19.87.23-.64 1.87-3.62 4.14-7.63l39 16.33-3.09 7.2s19.49 20.15 21.13 23c1.64 2.85 1.04 9.91-1.41 9.77z" fill="#fff"/><path d="M114.73 409.56c-2.46-.15-66-25.89-67.76-28.33-.68-.93 2.16-9.6 8-20.34l40 15.91s19.49 20.13 21.14 23c1.65 2.87 1.07 9.9-1.38 9.76z" fill="#A6A6A6"/><path d="M114.83 406.72c-10.29-4.42-52.23-21.28-62.74-24.86-.09 0-.11 0 0 .06 10.11 4.6 52.18 21.12 62.7 25 .2.05.26-.11.04-.2zM113.03 395.99a9.006 9.006 0 0 0-7.24 0 8.697 8.697 0 0 0-4.54 4.62c0 .06.09.11.12.05a10.406 10.406 0 0 1 5.041-4.228 10.405 10.405 0 0 1 6.569-.362.073.073 0 0 0 .041-.03.073.073 0 0 0 .009-.05zM98.6 379.45c-4.13-1.73-9.55-2.19-13.5.18-.15.09 0 .3.13.29a62.34 62.34 0 0 1 13.24.07.281.281 0 0 0 .13-.54zM101.31 381.99c-4.13-1.73-9.55-2.19-13.5.18-.15.09 0 .3.13.29a61.687 61.687 0 0 1 13.24.07.28.28 0 0 0 .13-.54zM104.03 384.53c-4.14-1.73-9.56-2.19-13.5.18-.16.09 0 .3.12.29a61.687 61.687 0 0 1 13.24.07.28.28 0 0 0 .14-.54zM106.74 387.07c-4.14-1.73-9.55-2.19-13.5.17-.16.1 0 .31.12.3a61.688 61.688 0 0 1 13.24.07.28.28 0 0 0 .14-.54zM58.69 373.04c-4.67-1.86-7.57 5.41-2.88 7.27 4.69 1.86 7.6-5.41 2.88-7.27z" fill="#032F2C"/><path d="M107.55 370.15c-1.41-2.59-4.74-1.95-6.77-.66a23.52 23.52 0 0 0-8 9.13.118.118 0 0 0-.001.104.111.111 0 0 0 .033.042c.014.012.03.02.048.024 0 .33.22.72.61.64 3.79-.87 7.94-1.32 11.34-3.32 1.95-1.16 4.07-3.51 2.74-5.96zm-8.65 6.79c-1.85.47-3.71.85-5.54 1.39a69.945 69.945 0 0 1 4.81-5.23 25.23 25.23 0 0 1 2.65-2.2c1.45-1 6.93-2.85 5.53 1.84-.77 2.59-5.24 3.64-7.45 4.2z" fill="#032F2C"/><path d="M81.78 376.02c3.4 2 7.55 2.47 11.33 3.35.39.09.65-.3.62-.64a.11.11 0 0 0 .098-.117.112.112 0 0 0-.018-.053 23.518 23.518 0 0 0-8-9.15c-2-1.3-5.35-1.95-6.77.63s.75 4.81 2.74 5.98zm-1.56-3.38c-1.39-4.69 4.08-2.83 5.53-1.82a24.3 24.3 0 0 1 2.64 2.21 69.916 69.916 0 0 1 4.8 5.24c-1.83-.54-3.69-.93-5.54-1.4-2.24-.6-6.67-1.6-7.43-4.23z" fill="#032F2C"/><path d="M101.29 367.93 54.8 349.16s57.64-84.75 58.06-91.06c.38-5.58-24.94-54.2-25.93-68.37-1.08-15.3 6.28-27.13 14.38-34.48l47.95 20.39s-5.06 8.09-13 12.6c0 0 24.59 56.2 23.19 73.48-1.4 17.28-58.16 106.21-58.16 106.21z" fill="#37474F"/><path d="M103.35 359.09c-6.72-2.89-4.75-2.16-11.51-5-3.3-1.38-25-10.41-28.34-11.16-.07 0-.12.1-.05.14 2.89 1.77 24.77 10.42 28.1 11.74 6.81 2.68 4.88 1.84 11.72 4.44.01.014.024.024.039.031.016.007.033.01.05.009a.103.103 0 0 0 .081-.055.11.11 0 0 0 .01-.05.098.098 0 0 0-.051-.082.095.095 0 0 0-.049-.013zM144.12 187.21a90.51 90.51 0 0 0-14.6 4.74.18.18 0 0 0-.052.03.168.168 0 0 0-.036.048.147.147 0 0 0-.015.058c-.001.02.002.04.008.059a.168.168 0 0 0 .03.052c.014.015.03.027.048.036a.147.147 0 0 0 .058.015c.02.001.04-.001.059-.008 4.9-1.43 9.88-2.77 14.7-4.46.37-.13.18-.65-.2-.57z" fill="#032F2C"/><path d="M138.41 185.27a21.63 21.63 0 0 0-1.23 2.57c-.345.67-.559 1.4-.63 2.15 0 .15.2.18.29.09.502-.6.907-1.275 1.2-2 .41-.79.83-1.57 1.22-2.38.27-.59-.54-.97-.85-.43z" fill="#032F2C"/><path d="M139.01 180.73c.3-.74.59-1.47.9-2.21.31-.74.7-1.5 1-2.28 0-.12.24 0 .19.09-.3.74-.49 1.52-.72 2.28-.23.76-.49 1.52-.74 2.28-.47 1.41-1 2.81-1.65 4.18a5.297 5.297 0 0 0 2.3-.4 4.132 4.132 0 0 0 1.63-2c.42-.82.81-1.66 1.24-2.48a16.59 16.59 0 0 0 1.33-2.79c0-.12.24 0 .19.09a32.432 32.432 0 0 1-2.55 5.91c-.45.73-.8 1.5-1.62 1.78a6.782 6.782 0 0 1-2.73.19c-.12 0-.26 0-.22-.18.41-1.51.893-2.998 1.45-4.46zM136.97 190.07c1.71 3.61 3.21 7.21 4.8 10.81 1.59 3.6 3 7.08 4.43 10.66 2.86 7.22 5.42 14.58 7.67 22a223.1 223.1 0 0 1 3.06 11.13 80.09 80.09 0 0 1 2.22 11.36 30 30 0 0 1-1 11.4 66.7 66.7 0 0 1-4.23 10.63c-1.05 2.16-1.4 1.87-.9.78 1.43-3.1 5.18-12.49 4.91-20.38a58.803 58.803 0 0 0-1.74-11.19c-.873-3.78-1.857-7.53-2.95-11.25-2.13-7.34-4.66-14.53-7.26-21.71-1.46-4-3-8-4.5-12s-3-7.68-4.68-12.1c-.05-.18.12-.25.17-.14zM101.68 178.14c.83-.31 2 .2 2.84.34 1.088.185 2.187.295 3.29.33 1.091.038 2.184.002 3.27-.11a7.003 7.003 0 0 0 3.13-.83 15.916 15.916 0 0 0 4-4.23 24.612 24.612 0 0 0 3.11-5.46c0-.12.21 0 .17.08-.35 1.11-.61 2.23-1 3.32a20.115 20.115 0 0 1-1.54 2.95 12.617 12.617 0 0 1-4.14 4.7c-1.93 1.1-4.41 1-6.56.91a25.74 25.74 0 0 1-3.71-.49c-.88-.19-2.36-.33-2.92-1.1a.27.27 0 0 1 .06-.41z" fill="#032F2C"/><path d="M68.07 340.27c7.64-11.573 15.14-23.24 22.5-35 7.36-11.76 14.62-23.61 21.78-35.55 1.71-2.85 3.68-5.69 4.78-8.85 1.2-3.43.52-6.76-.56-10.12a171.498 171.498 0 0 0-7.14-18c-2.68-5.91-5.57-11.72-8.41-17.55s-5.81-11.59-8-17.67c-2-5.81-2.81-11.83-1.25-17.85 1.56-6.02 4.92-11.34 8.43-16.35.92-1.32 1.87-2.63 2.8-4 .07-.1.22 0 .15.12-3.87 5.22-7.64 10.75-9.91 16.88a29.153 29.153 0 0 0-1.92 9.45 30.593 30.593 0 0 0 1.51 9.67c1.88 6.08 4.85 11.83 7.62 17.55 2.77 5.72 5.73 11.64 8.46 17.53 2.816 5.928 5.32 12 7.5 18.19.93 2.75 2 5.63 1.92 8.58-.07 3.23-1.61 6.14-3.21 8.86-7 11.85-14.17 23.56-21.47 35.2-7.3 11.64-14.81 23.28-22.41 34.8l-2.88 4.35c-.15.18-.41-.03-.29-.24z" fill="#032F2C"/><path d="M151.92 121.74c4.33 9.5 26.2 22.59 36.44 24 7.36 1 29.74 1.36 37.41.19 9-1.38 2.12-25.63-3.19-25-14.6 1.7-27 3.6-30.9 3.6-4.76 0-30.51-8.26-33.61-9.43-7.6-2.83-8.6 1.25-6.15 6.64z" fill="#FFC6A5"/><path d="M152.06 124.27c5.48 8.11 23.69 21.37 23.69 21.37l2.53-5.6 8.37-18.52s-16.73-5.25-27.74-7.65a24.124 24.124 0 0 0-3.94-.56c-7.03-.38-7.64 3.96-2.91 10.96z" fill="#28AFA7"/><path d="M152.06 124.27c5.48 8.11 23.69 21.37 23.69 21.37l2.53-5.6c-6.79-7.89-17.28-19.84-23.31-26.71-7.03-.4-7.64 3.94-2.91 10.94z" fill="#032F2C"/><path d="M172.47 141.88c1.39-3.41 7.57-17.14 9.11-20 .1-.2.26-.18.17 0a201.821 201.821 0 0 1-9.14 20c-.04.12-.2.08-.14 0z" fill="#032F2C"/><path d="M219.9 121.18c8.88-1.16 19.87-3.15 29.18.8a4.995 4.995 0 0 1 2.49 2.13c4.2 1.7 4.66 4.19 4.66 4.19 3.43 2.78 3.55 5.4 3.55 5.4s4.92 2 4.17 5.22c-.82 3.56-7.56 0-12.46.29-11.25.7-27 4.83-30.25 5.35l-1.34-23.38z" fill="#FFC6A5"/><path d="M239.19 131.66a72.391 72.391 0 0 1 9.88 0 71.778 71.778 0 0 1 10.6 2.15.087.087 0 0 0 .069-.004.089.089 0 0 0 .042-.12.086.086 0 0 0-.051-.046 38.292 38.292 0 0 0-20.54-2.08c-.16-.02-.16.11 0 .1zM237.1 121.27c5.49.28 8.92 1.16 14.44 2.82v-.06c-6.08-2.54-8.57-2.78-14.47-3-.19.08-.18.24.03.24z" fill="#032F2C"/><path d="M237.99 140.91c-1.43.67-1.08 1.42 1.65 2.05 2.73.63 14.08.82 13.68 4.78-.4 3.96-16.41 3.46-20.88 2.06-4.47-1.4-11.2-5.24-11.2-5.24 3.17-.53 10.61-2.54 16.75-3.65z" fill="#FFC6A5"/><path d="M163.81 136.88c-.07 1.71-.23 3.45-.47 5.18 0-.07 0-.13.07-.19.33-.9.66-1.82 1.06-2.69h.09c-.192.953-.48 1.885-.86 2.78-.18.43-.35.85-.54 1.27-.12.77-.26 1.53-.41 2.29-.3 1.43-1.65 7.51-2 8.54-.06.21-.32.16-.3-.08.07-1.12 1.2-7.45 1.43-8.89a77.748 77.748 0 0 1 1.79-8.25c.05-.05.15-.01.14.04z" fill="#032F2C"/><path d="M153.41 182.35c-2.67 1.37-6.11 3.5-21.61.45-1-.2-1.94-.44-2.92-.73-14.53-4.36-32-21.45-32.95-22.66 0 0 23.09-37.43 52.62-49.2 3.65-1.45 9.69 1.35 13 4.84 1.19 1.25 3.78 10.44 2.79 17.88-.99 7.44-8.27 48.05-10.93 49.42z" fill="#28AFA7"/><path d="M151.33 132.59a11.333 11.333 0 0 1-.65 4.66 10.846 10.846 0 0 1 .65-4.66zM141.26 158.08c.064.787.037 1.579-.08 2.36a9.804 9.804 0 0 1-.57 2.3 9.843 9.843 0 0 1 .08-2.37c.102-.783.294-1.551.57-2.29zM124.15 138.81a11.264 11.264 0 0 1-.65 4.66 10.907 10.907 0 0 1 .65-4.66zM157.92 156.78c.064.79.037 1.586-.08 2.37a9.804 9.804 0 0 1-.57 2.3 9.845 9.845 0 0 1 .08-2.37c.101-.786.292-1.558.57-2.3zM135.95 135.51a10.294 10.294 0 0 1 2.36.07c.787.1 1.56.294 2.3.58a11.28 11.28 0 0 1-4.66-.65zM116.53 153.92c1.582-.112 3.169.11 4.66.65a10.846 10.846 0 0 1-4.66-.65zM139.41 173.85c1.582-.114 3.17.108 4.66.65a10.91 10.91 0 0 1-4.66-.65zM110.54 166.61c1.582-.112 3.169.11 4.66.65a10.91 10.91 0 0 1-4.66-.65zM151.18 114.67c1.582-.112 3.169.11 4.66.65a11.35 11.35 0 0 1-4.66-.65zM145.53 121.05a9.707 9.707 0 0 1-1.72 1.62c-.62.479-1.29.888-2 1.22a10.145 10.145 0 0 1 1.7-1.62c.626-.481 1.303-.89 2.02-1.22zM114.74 139.18a10.116 10.116 0 0 1-1.73 1.61 9.426 9.426 0 0 1-2 1.22c.515-.6 1.095-1.14 1.73-1.61a9.698 9.698 0 0 1 2-1.22zM153.19 147.36a10.177 10.177 0 0 1-1.73 1.62 9.672 9.672 0 0 1-2 1.22 10.174 10.174 0 0 1 1.73-1.62 10.3 10.3 0 0 1 2-1.22zM128.29 163.04a10.137 10.137 0 0 1-1.73 1.62 9.857 9.857 0 0 1-2 1.22 10.174 10.174 0 0 1 1.73-1.62 10.3 10.3 0 0 1 2-1.22zM162.73 125.94a10.137 10.137 0 0 1-1.73 1.62c-.62.479-1.29.888-2 1.22a10.174 10.174 0 0 1 1.73-1.62 9.857 9.857 0 0 1 2-1.22zM162.21 144.11a10.214 10.214 0 0 1-1.62-1.73 9.629 9.629 0 0 1-1.22-2 9.707 9.707 0 0 1 1.62 1.72c.478.624.887 1.298 1.22 2.01zM106.71 156.63a10.214 10.214 0 0 1-1.62-1.73 10.35 10.35 0 0 1-1.22-2 10.137 10.137 0 0 1 1.62 1.73 9.857 9.857 0 0 1 1.22 2zM155.46 171.52a9.742 9.742 0 0 1-1.62-1.72 10.678 10.678 0 0 1-1.22-2 10.137 10.137 0 0 1 1.62 1.73 9.996 9.996 0 0 1 1.22 1.99zM131.03 129.07a10.114 10.114 0 0 1-1.62-1.72 10.961 10.961 0 0 1-1.22-2 9.707 9.707 0 0 1 1.62 1.72c.477.621.886 1.291 1.22 2zM131.46 180a10.214 10.214 0 0 1-1.62-1.73c-.48-.619-.889-1.29-1.22-2a9.742 9.742 0 0 1 1.62 1.72c.481.622.891 1.296 1.22 2.01zM135.61 149.96c-.6-.514-1.14-1.095-1.61-1.73a9.426 9.426 0 0 1-1.22-2 10.076 10.076 0 0 1 1.61 1.73 9.672 9.672 0 0 1 1.22 2z" fill="#fff"/><path d="M156.14 125.02c-3.77-.7-7.31-8.49-7.76-13.73 0-.36 1.76-3.21 3.77-6.78 1.22-2.17 2.51-4.62 3.54-6.94.21-.47 1.44 1.12 1.44 1.12l2.68 2 8.85 6.79a40.375 40.375 0 0 0-5.33 8.27 5.001 5.001 0 0 0-.32 1 1.206 1.206 0 0 0 0 .17c-.55 1.98-3.24 8.77-6.87 8.1z" fill="#FFC6A5"/><path d="M163.01 116.8a1.206 1.206 0 0 0 0 .17 9.886 9.886 0 0 1-1.53-.59c-9.69-4.54-5.42-17.52-5.42-17.52l3.8 1.88 8.85 6.79a40.375 40.375 0 0 0-5.33 8.27 4.965 4.965 0 0 0-.37 1zM178.83 79.85s4.43 2.81 4.45 7.81c.02 5-2 9.89-2.42 10.07-.42.18-2.03-17.88-2.03-17.88z" fill="#032F2C"/><path d="M156.85 82.45c-2.66 5.25-2.52 21.8.8 26.06 4.82 6.18 14.1 8.31 19.71 2.2 5.43-5.92 4.87-27.48 1-31.5-5.63-5.94-17.57-4.53-21.51 3.24z" fill="#FFC6A5"/><path d="M170.97 95.7s-.09.06-.08.1c.06 1.13-.06 2.43-1.07 2.83v.06c1.25-.2 1.39-1.93 1.15-2.99z" fill="#032F2C"/><path d="M169.94 94.55c-1.82-.1-1.88 3.54-.19 3.63 1.69.09 1.71-3.55.19-3.63zM177.14 95.66s.09 0 .09.1c-.06 1.13.07 2.43 1.09 2.82v.06c-1.26-.19-1.41-1.92-1.18-2.98z" fill="#032F2C"/><path d="M178.17 94.5c1.81-.11 1.9 3.53.22 3.63-1.68.1-1.74-3.54-.22-3.63zM168.8 91.78a14.68 14.68 0 0 0 1.41-.48 2.4 2.4 0 0 0 1.36-.76.772.772 0 0 0-.11-.93 1.91 1.91 0 0 0-1.92-.23 2.829 2.829 0 0 0-1.64 1.19.831.831 0 0 0 .9 1.21zM179.41 93.39a14.592 14.592 0 0 1-1.44-.4 2.4 2.4 0 0 1-1.39-.69.751.751 0 0 1 .06-.93 1.888 1.888 0 0 1 1.9-.33c.684.142 1.29.534 1.7 1.1a.817.817 0 0 1-.366 1.195.82.82 0 0 1-.464.055zM168.41 106.39c.27.27.53.63.94.67a3 3 0 0 0 1.22-.26s.07 0 0 .06a1.514 1.514 0 0 1-1.44.59 1.206 1.206 0 0 1-.88-1 .086.086 0 0 1 .05-.11.086.086 0 0 1 .11.05zM174.95 101.57s.05 1.68 0 2.47a16.488 16.488 0 0 0-4.61.16c-.36.08-.32-.21.09-.4a6.764 6.764 0 0 1 3.92-.52c.08-.21-.13-2.6 0-2.59.605.119 1.19.321 1.74.6 0-3.52-.56-7-.51-10.52 0-.12.19-.14.21 0a56.59 56.59 0 0 1 1 11.3c.01.43-1.54-.34-1.84-.5z" fill="#032F2C"/><path d="M172.7 103.44a4.997 4.997 0 0 1-2.1 2.51c-1.51.61-2-.76-.48-2a4.88 4.88 0 0 1 2.58-.51z" fill="#032F2C"/><path d="M171.13 105.64c-.16.13-.339.235-.53.31-1.39.56-1.94-.55-.82-1.67.76.06 1.63.34 1.35 1.36z" fill="#FF99BA"/><path d="M156.09 96.6c1.83.56 3.93-4.94 4.53-7 .52-1.86 1.12-7.77 1.21-8.18.09-.41 8 5.23 12.58 3.89 4.58-1.34 7.69-5.49 7.76-7.42.07-1.93-5.66-6.83-10.61-7.08-4.95-.25-11.66 6-11.66 6 .81-.92 1.546-1.903 2.2-2.94-.08-.22-3.28 1.06-3.87 3.34 0 0 .64-2.87.4-2.92-.24-.05-2.73 2.4-2.17 4.26 0 0-2.88 2.49-3.14 5.22-.26 2.73.62 12.17 2.77 12.83z" fill="#032F2C"/><path d="M177.69 84.27a15.213 15.213 0 0 1-4.35 1.56 10.331 10.331 0 0 1-5-.8 15.356 15.356 0 0 1-4.36-2.58c-1.15-.94-2.18-2.09-3.41-2.93-.31-.22-.66.23-.47.51a16.522 16.522 0 0 0 8.36 6.16 9.53 9.53 0 0 0 9.22-1.88s.03-.04.01-.04z" fill="#032F2C"/><path d="M158 96.11s-2.84-5.76-5.4-4.83c-2.56.93-1 8.9 1.63 10.36a2.856 2.856 0 0 0 3.235-.096c.309-.227.569-.514.765-.844l-.23-4.59z" fill="#FFC6A5"/><path d="M153.11 93.55s-.06 0 0 .08c1.82 1.08 2.56 3 3 5a1.572 1.572 0 0 0-2.26-.78c-.06 0 0 .11 0 .11a1.749 1.749 0 0 1 1.81.9c.286.534.514 1.097.68 1.68.06.19.39.14.36-.07.43-2.49-.97-6.26-3.59-6.92z" fill="#032F2C"/><path d="M139.25 121.83c-2 11.33 10.28 49.5 18.15 56.63 11.71 10.6 33.36 17.57 41.21 19.84 3.42 1 12.88-23.07 9.42-24.66-7.41-3.37-30.43-10.57-32.62-12.37-2.19-1.8-15.39-20.87-21.27-31.85-7.87-14.78-13.9-13.32-14.89-7.59z" fill="#FFC6A5"/><path d="M202.2 171.52s10.22 2.61 16.81 4.62c3.68 1.13 9.82 3.62 12.15 5.68 3.48 3.09 16.06 18.21 12.46 21.34-3.26 2.84-12.42-11.53-12.42-11.53s10.52 13.68 6 16.37c-4.52 2.69-12.79-14.92-12.79-14.92s10.49 14.3 5.36 16.33c-3.88 1.53-12.2-14-12.2-14s8.94 12.35 5 14.1c-4.34 1.94-12.91-11.92-12.91-11.92-10.72 2.77-17-.3-21.13-3-.97-.66 13.67-23.07 13.67-23.07z" fill="#FFC6A5"/><path d="M227.86 186.66c1.3 1.56 2.62 3.14 3.77 4.81 1.15 1.67 2.24 3.39 3.23 5.16a34.648 34.648 0 0 1 3.2 7.26c-1.72-4.4-5.75-10.45-6.9-12.12-1.15-1.67-2.22-3.4-3.36-5.07-.03-.04.03-.08.06-.04zM221.75 190.71c2.22 1.76 6.87 8.3 8.66 12.69.08.18 0 .17-.13 0-1.4-2.17-7.08-10.57-8.58-12.66-.03-.03.02-.06.05-.03zM215.88 193.27a31.33 31.33 0 0 1 6.42 10c.07.18-.07.15-.18 0-2.07-3.37-3.67-6-6.35-9.91-.04-.09.05-.18.11-.09z" fill="#032F2C"/><path d="M150.41 122.66c-9.13-12.91-14.59-8.13-12.76 5.89 1.72 13.11 6.31 28.73 6.31 28.73l23-11.16s-10.74-15.19-16.55-23.46z" fill="#28AFA7"/><path d="M155.96 127.74a10.3 10.3 0 0 1 .65 2.27 10.4 10.4 0 0 1 .15 2.37 10.32 10.32 0 0 1-.64-2.28 9.778 9.778 0 0 1-.16-2.36zM142.33 135.59a11 11 0 0 1 4.63-.8c-.73.3-1.491.515-2.27.64a9.829 9.829 0 0 1-2.36.16zM142.92 115.51a11.158 11.158 0 0 1-2.71 3.85 11.158 11.158 0 0 1 2.71-3.85zM162.41 141.62a10.447 10.447 0 0 1-1.15 2.07c-.449.652-.972 1.25-1.56 1.78a11.158 11.158 0 0 1 2.71-3.85zM146.41 149.45a10 10 0 0 1-2.07-1.15 10.055 10.055 0 0 1-1.78-1.56 10.63 10.63 0 0 1 2.07 1.15c.652.448 1.25.972 1.78 1.56z" fill="#fff"/><path d="M153.41 126.55c1.23 1.69 2.5 3.34 3.76 5-.32-.84-.6-1.69-.84-2.55h.06c.25.66.54 1.31.78 2l.36 1c.031.068.058.138.08.21 1 1.29 2 2.58 2.92 3.9 1.13 1.58 2.22 3.18 3.32 4.78 1.1 1.6 2.21 3.59 3.4 5.2.11.14-2 1-2.23 1.11-.23.11-.35-.08-.13-.15.22-.07 1.9-1.1 1.92-1.12-1.1-1.62-2.37-3.11-3.52-4.68-1.15-1.57-2.29-3.14-3.4-4.73-2.25-3.24-4.31-6.6-6.55-9.85l.07-.12zM138.19 137.83c.35.68.73 1.35 1 2.05l.38.87c-.53-2.49-1-5-1.55-7.49 1.06 4 2.13 8.09 3.11 12.15.93 3.88 2.06 7.8 2.6 11.76a13.04 13.04 0 0 1 2.16-.73c-.743.481-1.542.867-2.38 1.15a124.877 124.877 0 0 1-3-12.24c-.25-1.12-.48-2.24-.72-3.36-.26-.68-.57-1.33-.88-2-.31-.67-.59-1.42-.87-2.13.06-.04.13-.08.15-.03z" fill="#032F2C"/><path d="M144.3 153.42c3.2-1.8 16.57-8.72 19.56-10 .21-.09.32 0 .11.14a201.41 201.41 0 0 1-19.6 10c-.08.02-.16-.09-.07-.14z" fill="#032F2C"/><path d="M510.73 416.32H206.05l44.05-249.85h304.68l-44.05 249.85zM354.38 140.59h-99.71l-4.57 25.88h106.72l-2.44-25.88z" fill="#28AFA7"/><g opacity=".1" fill="#000"><path d="M510.73 416.32H206.05l44.05-249.85h304.68l-44.05 249.85zM354.38 140.59h-99.71l-4.57 25.88h106.72l-2.44-25.88z"/></g><path d="M243.91 151.15a19.163 19.163 0 0 1 0-8.7 19.163 19.163 0 0 1 0 8.7zM235.05 153.71a17.03 17.03 0 0 1-2.61-3.52 17.376 17.376 0 0 1-1.75-4 16.594 16.594 0 0 1 2.61 3.51 17.593 17.593 0 0 1 1.75 4.01zM228.65 160.36a19.169 19.169 0 0 1-7.53-4.35c1.402.408 2.746.992 4 1.74a17.583 17.583 0 0 1 3.53 2.61zM226.41 169.32a19.163 19.163 0 0 1-8.7 0 19.163 19.163 0 0 1 8.7 0zM229.01 178.18a17.624 17.624 0 0 1-3.52 2.61 17.132 17.132 0 0 1-4 1.74 17.03 17.03 0 0 1 3.52-2.61 16.831 16.831 0 0 1 4-1.74zM235.65 184.57a19.118 19.118 0 0 1-4.35 7.54 16.862 16.862 0 0 1 1.75-4 17.355 17.355 0 0 1 2.6-3.54zM244.61 186.78c.349 1.424.517 2.885.5 4.35a16.953 16.953 0 0 1-.5 4.35 16.602 16.602 0 0 1-.5-4.35 17.422 17.422 0 0 1 .5-4.35zM253.47 184.27a16.995 16.995 0 0 1 2.61 3.52 16.831 16.831 0 0 1 1.74 4 19.125 19.125 0 0 1-4.35-7.54v.02zM259.86 177.57c1.403.404 2.748.989 4 1.74a17.03 17.03 0 0 1 3.52 2.61 16.75 16.75 0 0 1-4-1.74 16.96 16.96 0 0 1-3.52-2.61zM262.07 168.61a19.235 19.235 0 0 1 8.71 0 19.207 19.207 0 0 1-8.71 0zM259.51 159.75a17.33 17.33 0 0 1 3.52-2.6 16.476 16.476 0 0 1 4-1.75 19.132 19.132 0 0 1-7.54 4.35h.02zM252.86 153.36c.412-1.4.996-2.744 1.74-4a17.03 17.03 0 0 1 2.61-3.52 16.813 16.813 0 0 1-1.74 4 16.969 16.969 0 0 1-2.61 3.52z" fill="#032F2C"/><path d="M510.28 416.32H204.94l-43.35-240.78h305.34l43.35 240.78z" fill="#28AFA7"/><path d="M267.4 322.73c7.009 0 12.69-5.681 12.69-12.69 0-7.008-5.681-12.69-12.69-12.69-7.008 0-12.69 5.682-12.69 12.69 0 7.009 5.682 12.69 12.69 12.69zM367.72 322.73c7.009 0 12.69-5.681 12.69-12.69 0-7.008-5.681-12.69-12.69-12.69-7.008 0-12.69 5.682-12.69 12.69 0 7.009 5.682 12.69 12.69 12.69zM335.79 324.76l-.7-1.33c-.06-.12-6.62-12.24-19.81-12.24-12 0-15 11.41-15.08 11.9l-.36 1.45-2.91-.7.35-1.46c0-.14 3.58-14.19 18-14.19 15 0 22.17 13.28 22.47 13.85l.7 1.32-2.66 1.4z" fill="#032F2C"/><path d="M490.02 308.58c.65-.14 1.3-.29 1.94-.45" stroke="#032F2C" stroke-miterlimit="10"/><path d="M495.8 306.99c15.3-5.17 28.11-17.2 29.31-31.26 2.66-31-35.09-48.12-31.19-83.94 3.72-34.17 39.56-36.61 53.93-31.89 15.87 5.22 10.43 20.47-3.94 18.5-24.91-3.41-40.57-30.49-28.74-61.21 8.84-22.95 30.88-31.61 39.83-34.25" stroke="#032F2C" stroke-miterlimit="10" stroke-dasharray="4 4"/><path d="M556.93 82.41c1.23-.32 1.94-.45 1.94-.45" stroke="#032F2C" stroke-miterlimit="10"/><path d="M574.73 76.43c-2.55-7.9-19.63-5.06-16.3 5.27 3.33 10.33 18.85 2.64 16.3-5.27z" fill="#032F2C"/><path d="M549.14 73.27c.13-3.47 4.95-6.14 11.77-4.91 6.82 1.23 13.23 5.83 13.23 5.83s-6.73 4.08-13.62 4.83c-6.89.75-11.51-2.29-11.38-5.75z" fill="#EBEBEB"/><path d="M574.14 74.17c-3.54 0-7.07-.1-10.6-.21-3.53-.11-7.07-.29-10.6-.57 3.54 0 7.08.09 10.61.2 3.53.11 7.07.29 10.59.58z" fill="#032F2C"/><path d="M555.99 70.18a29.728 29.728 0 0 1 5.65 3.53 26.627 26.627 0 0 1-2.92-1.6 28.665 28.665 0 0 1-2.73-1.93zM565.26 73.84a32.472 32.472 0 0 1-5.85 3.78 32.47 32.47 0 0 1 5.88-3.78h-.03zM566.29 71.89a7.246 7.246 0 0 1 2.58 2.08 6.86 6.86 0 0 1-1.41-.89 7.305 7.305 0 0 1-1.17-1.19z" fill="#032F2C"/><path d="M555.64 93.82c2.13 2.74 7.6 2.08 12.41-2.9 4.81-4.98 7.36-12.47 7.36-12.47s-7.88.6-13.89 4c-6.01 3.4-8.02 8.62-5.88 11.37z" fill="#EBEBEB"/><path d="M575.41 78.45c-2.88 2-5.68 4.22-8.49 6.37-2.81 2.15-5.56 4.37-8.25 6.66 2.88-2 5.68-4.21 8.48-6.36 2.8-2.15 5.53-4.37 8.26-6.67z" fill="#032F2C"/><path d="M562.99 92.27a28.455 28.455 0 0 0 1.43-3c.425-1.03.786-2.085 1.08-3.16a27.738 27.738 0 0 0-1.43 3 28.611 28.611 0 0 0-1.08 3.16zM568.41 83.91a33.057 33.057 0 0 0-7 .37c1.166.07 2.334.07 3.5 0a31.107 31.107 0 0 0 3.5-.37zM570.34 84.9a7.177 7.177 0 0 0 .62-1.56 7.492 7.492 0 0 0 .26-1.65 7.452 7.452 0 0 0-.88 3.21z" fill="#032F2C"/><path d="M574.73 76.43a3 3 0 1 1-1.853-5.708 3 3 0 0 1 1.853 5.708z" fill="#455A64"/><path d="M576.57 82.14a3 3 0 1 1-1.847-5.707 3 3 0 0 1 1.847 5.707z" fill="#455A64"/><path d="M364.614 67.2c-1.553 9.404-7.212 18.35-16.346 25.841-9.133 7.49-21.382 13.23-35.379 16.579-13.997 3.349-29.192 4.175-43.889 2.385-14.696-1.789-28.317-6.123-39.342-12.517l-40.415 3.746 20.224-22.07c-4.625-7.182-6.598-14.935-5.77-22.67.828-7.736 4.436-15.25 10.55-21.973 6.114-6.722 14.572-12.477 24.733-16.825 10.161-4.348 21.757-7.177 33.907-8.27 12.151-1.094 24.535-.424 36.214 1.96 11.679 2.382 22.345 6.415 31.187 11.791 8.843 5.377 15.629 11.956 19.844 19.237 4.215 7.282 5.748 15.074 4.482 22.786z" fill="#fff"/><path d="M364.614 67.2c-1.52 9.399-7.129 18.349-16.205 25.858-4.435 3.798-9.782 7.135-15.849 9.889-5.934 2.858-12.481 5.167-19.446 6.859-6.968 1.734-14.29 2.837-21.747 3.276-3.728.211-7.475.259-11.214.143-3.752-.061-7.49-.307-11.181-.737-14.895-1.731-28.733-6.049-39.962-12.468l.94.184-40.351 3.91-2.949.287 1.491-1.638 20.094-22.112v.88c-4.741-7.314-6.757-15.218-5.892-23.103.866-7.885 4.589-15.538 10.883-22.37 6.287-6.808 14.929-12.632 25.28-17.033 10.335-4.344 22.092-7.153 34.39-8.216 12.298-1.064 24.818-.355 36.621 2.073 11.677 2.51 22.319 6.637 31.146 12.08 8.807 5.43 15.542 12.054 19.691 19.373 4.15 7.318 5.607 15.138 4.26 22.865zm0 0c1.309-7.69-.196-15.466-4.399-22.729-4.204-7.263-10.993-13.819-19.845-19.161-8.851-5.342-19.527-9.328-31.205-11.65-11.677-2.322-24.043-2.917-36.142-1.74-11.978 1.12-23.388 3.964-33.35 8.313-9.876 4.382-18.126 10.069-24.178 16.665-5.959 6.612-9.471 13.99-10.274 21.58-.789 7.642 1.161 15.298 5.704 22.398l.292.45-.389.43-20.353 22.031-1.426-1.351 40.447-3.583h.551l.389.225c10.812 6.357 24.211 10.688 38.698 12.509 3.61.465 7.273.746 10.954.84 3.68.164 7.373.164 11.052 0 7.379-.376 14.642-1.388 21.585-3.01 6.959-1.6 13.511-3.835 19.446-6.633 6.042-2.732 11.396-6.025 15.881-9.767 9.193-7.473 14.926-16.41 16.562-25.817z" fill="#032F2C"/><g filter="url(#a)" fill="#096761"><path d="M252.349 35.466c.384-.067.792-.125 1.225-.175.45-.067.892-.117 1.325-.15.45-.034.884-.059 1.3-.075.417-.017.8-.025 1.15-.025.817 0 1.617.075 2.4.225.8.15 1.509.408 2.125.775a3.986 3.986 0 0 1 1.5 1.525c.384.633.575 1.433.575 2.4 0 1.433-.333 2.6-1 3.5-.666.9-1.558 1.525-2.675 1.875l1.225.775 4 6.675h-3.95l-3.975-6.85-1.8-.325v7.175h-3.425V35.466zm5.25 2.625c-.35 0-.7.008-1.05.025-.333.016-.591.05-.775.1v5.075h1.45c.95 0 1.709-.217 2.275-.65.567-.434.85-1.15.85-2.15 0-.75-.233-1.334-.7-1.75-.466-.434-1.15-.65-2.05-.65zM276.117 51.716c-.5.4-1.183.741-2.05 1.025-.85.266-1.758.4-2.725.4-2.016 0-3.491-.584-4.425-1.75-.933-1.184-1.4-2.8-1.4-4.85 0-2.2.525-3.85 1.575-4.95 1.05-1.1 2.525-1.65 4.425-1.65.634 0 1.25.083 1.85.25.6.166 1.134.441 1.6.825.467.383.842.9 1.125 1.55.284.65.425 1.458.425 2.425 0 .35-.025.725-.075 1.125-.033.4-.091.816-.175 1.25h-7.5c.05 1.05.317 1.841.8 2.375.5.533 1.3.8 2.4.8.684 0 1.292-.1 1.825-.3.55-.217.967-.434 1.25-.65l1.075 2.125zm-4.65-9.175c-.85 0-1.483.258-1.9.775-.4.5-.641 1.175-.725 2.025h4.65c.067-.9-.075-1.592-.425-2.075-.333-.484-.866-.725-1.6-.725zM283.987 49.34c0-.333-.141-.6-.425-.8a5.116 5.116 0 0 0-1.049-.55 25.038 25.038 0 0 0-1.375-.5 5.685 5.685 0 0 1-1.375-.724 4.18 4.18 0 0 1-1.05-1.175c-.284-.484-.425-1.1-.425-1.85 0-1.234.366-2.175 1.1-2.825.733-.65 1.791-.975 3.174-.975.95 0 1.809.1 2.576.3.766.2 1.366.425 1.8.675l-.725 2.35c-.384-.15-.867-.309-1.45-.475a6.44 6.44 0 0 0-1.776-.25c-.966 0-1.449.375-1.449 1.125 0 .3.141.541.425.725.283.183.633.358 1.05.525.416.15.875.316 1.375.5a5.7 5.7 0 0 1 1.375.725c.416.283.766.658 1.049 1.125.284.466.426 1.066.426 1.8 0 1.266-.409 2.266-1.225 3-.8.716-2.009 1.075-3.625 1.075a8.71 8.71 0 0 1-2.5-.35c-.767-.217-1.392-.475-1.875-.775l.9-2.425c.383.216.891.433 1.525.65.633.2 1.283.3 1.95.3.483 0 .866-.092 1.15-.275.3-.184.449-.492.449-.925zM292.484 40.29v7.1c0 1.017.117 1.75.35 2.2.25.45.725.676 1.425.676.617 0 1.125-.184 1.525-.55.417-.367.725-.817.925-1.35V40.29h3.25v8.7c0 .683.034 1.358.1 2.025.067.65.167 1.241.3 1.775h-2.45l-.575-1.85h-.1a4.663 4.663 0 0 1-1.6 1.575c-.683.416-1.491.625-2.425.625-.633 0-1.2-.084-1.7-.25a2.798 2.798 0 0 1-1.25-.825c-.333-.384-.591-.9-.775-1.55-.166-.65-.25-1.467-.25-2.45V40.29h3.25zM306.162 48.59c0 .584.075 1.01.225 1.276.15.266.391.4.725.4.2 0 .391-.017.575-.05.2-.034.441-.109.725-.225l.35 2.55c-.267.133-.675.266-1.225.4-.55.133-1.117.2-1.7.2-.95 0-1.675-.217-2.175-.65-.5-.45-.75-1.184-.75-2.2v-15h3.25v13.3zM308.86 40.29h1.725v-2.35l3.25-.924v3.275h3.05v2.75h-3.05v4.8c0 .866.083 1.491.25 1.875.183.366.517.55 1 .55.333 0 .617-.034.85-.1.25-.067.525-.167.825-.3l.575 2.5c-.45.216-.975.4-1.575.55-.6.15-1.208.225-1.825.225-1.15 0-2-.292-2.55-.875-.533-.6-.8-1.575-.8-2.925v-6.3h-1.725v-2.75zM238.843 82.79v-7.1c0-1.016-.15-1.75-.45-2.2-.283-.45-.775-.674-1.475-.674-.617 0-1.142.183-1.575.55-.417.35-.717.791-.9 1.325v8.1h-3.25v-12.5h2.575l.375 1.65h.1c.383-.534.892-1 1.525-1.4.633-.4 1.45-.6 2.45-.6.617 0 1.167.083 1.65.25.483.166.892.441 1.225.825.333.383.583.908.75 1.575.167.65.25 1.458.25 2.425v7.775h-3.25zM244.216 76.54c0-2.116.517-3.74 1.55-4.874 1.033-1.15 2.483-1.725 4.35-1.725 1 0 1.867.158 2.6.475a4.797 4.797 0 0 1 1.825 1.35c.483.566.842 1.258 1.075 2.075.25.816.375 1.716.375 2.7 0 2.116-.517 3.75-1.55 4.9-1.017 1.133-2.458 1.7-4.325 1.7-1 0-1.867-.159-2.6-.475a5.157 5.157 0 0 1-1.85-1.325c-.483-.584-.85-1.284-1.1-2.1-.233-.817-.35-1.717-.35-2.7zm3.35 0c0 .55.05 1.06.15 1.526.1.466.25.875.45 1.225.2.35.458.625.775.825.333.183.725.275 1.175.275.85 0 1.483-.309 1.9-.925.417-.617.625-1.592.625-2.925 0-1.15-.192-2.075-.575-2.775-.383-.717-1.033-1.075-1.95-1.075-.8 0-1.425.3-1.875.9-.45.6-.675 1.583-.675 2.95zM256.944 70.29h1.725v-2.35l3.25-.924v3.275h3.05v2.75h-3.05v4.8c0 .866.083 1.491.25 1.875.183.366.516.55 1 .55.333 0 .616-.034.85-.1.25-.067.525-.167.825-.3l.575 2.5c-.45.216-.975.4-1.575.55a7.5 7.5 0 0 1-1.825.225c-1.15 0-2-.292-2.55-.875-.534-.6-.8-1.575-.8-2.925v-6.3h-1.725v-2.75zM273.358 65.29h10.375v3.05h-6.95v4.326h6.4v3.05h-6.4v7.075h-3.425v-17.5zM285.378 76.54c0-2.116.517-3.74 1.55-4.874 1.033-1.15 2.483-1.725 4.35-1.725 1 0 1.867.158 2.6.475a4.797 4.797 0 0 1 1.825 1.35c.483.566.842 1.258 1.075 2.075.25.816.375 1.716.375 2.7 0 2.116-.517 3.75-1.55 4.9-1.017 1.133-2.458 1.7-4.325 1.7-1 0-1.867-.159-2.6-.475a5.157 5.157 0 0 1-1.85-1.325c-.483-.584-.85-1.284-1.1-2.1-.233-.817-.35-1.717-.35-2.7zm3.35 0c0 .55.05 1.06.15 1.526.1.466.25.875.45 1.225.2.35.458.625.775.825.333.183.725.275 1.175.275.85 0 1.483-.309 1.9-.925.417-.617.625-1.592.625-2.925 0-1.15-.192-2.075-.575-2.775-.383-.717-1.033-1.075-1.95-1.075-.8 0-1.425.3-1.875.9-.45.6-.675 1.583-.675 2.95zM302.531 70.29v7.1c0 1.017.116 1.75.35 2.2.25.45.725.676 1.425.676.616 0 1.125-.184 1.525-.55.416-.367.725-.817.925-1.35V70.29h3.25v8.7c0 .683.033 1.358.1 2.025.066.65.166 1.241.3 1.775h-2.45l-.575-1.85h-.1a4.68 4.68 0 0 1-1.6 1.575c-.684.416-1.492.625-2.425.625-.634 0-1.2-.084-1.7-.25a2.792 2.792 0 0 1-1.25-.825c-.334-.384-.592-.9-.775-1.55-.167-.65-.25-1.467-.25-2.45V70.29h3.25zM320.508 82.79v-7.1c0-1.016-.15-1.75-.45-2.2-.283-.45-.775-.674-1.475-.674-.617 0-1.142.183-1.575.55-.417.35-.717.791-.9 1.325v8.1h-3.25v-12.5h2.575l.375 1.65h.1c.383-.534.892-1 1.525-1.4.633-.4 1.45-.6 2.45-.6.617 0 1.167.083 1.65.25.483.166.892.441 1.225.825.333.383.583.908.75 1.575.167.65.25 1.458.25 2.425v7.775h-3.25zM337.106 78.39c0 .7.008 1.4.025 2.1.017.7.092 1.476.225 2.326h-2.325l-.45-1.625h-.1c-.333.583-.817 1.058-1.45 1.425-.617.35-1.35.525-2.2.525-1.567 0-2.783-.517-3.65-1.55-.867-1.034-1.3-2.65-1.3-4.85 0-2.134.483-3.792 1.45-4.975.967-1.184 2.383-1.775 4.25-1.775.517 0 .942.033 1.275.1.333.05.667.141 1 .275V65.29h3.25v13.1zm-5.525 2c.633 0 1.133-.15 1.5-.45.367-.316.625-.766.775-1.35v-5.3a2.287 2.287 0 0 0-.775-.4c-.283-.1-.65-.15-1.1-.15-.917 0-1.608.31-2.075.926-.45.616-.675 1.675-.675 3.175 0 1.066.183 1.925.55 2.575.383.65.983.975 1.8.975z"/></g><g filter="url(#b)"><path fill-rule="evenodd" clip-rule="evenodd" d="m250.349 33.784 1.658-.289c.415-.072.851-.134 1.306-.187.484-.071.961-.125 1.433-.161h.006c.47-.036.926-.062 1.367-.08l.08 1.999c-.416.016-.85.041-1.3.075-.433.033-.875.083-1.325.15-.433.05-.841.108-1.225.175V52.79h3.425v-7.175l1.8.325 3.975 6.85h3.95l-4-6.675-1.225-.775a5.27 5.27 0 0 0 1.984-1.112c.253-.227.483-.482.691-.763.667-.9 1-2.067 1-3.5 0-.967-.191-1.767-.575-2.4a3.986 3.986 0 0 0-1.5-1.525c-.616-.367-1.325-.625-2.125-.775a12.727 12.727 0 0 0-2.4-.225c-.35 0-.733.008-1.15.025l-.08-1.999c.439-.017.849-.026 1.23-.026.939 0 1.864.086 2.773.26.994.187 1.925.517 2.765 1.015a5.999 5.999 0 0 1 2.215 2.241c.6 1.006.84 2.161.847 3.353 1.483-1.375 3.417-1.97 5.568-1.97.811 0 1.608.108 2.385.324.861.239 1.646.64 2.335 1.206.354.292.665.622.934.984a5.01 5.01 0 0 1 .89-1.035c1.225-1.086 2.829-1.478 4.501-1.478 1.088 0 2.12.114 3.08.364.565.148 1.104.32 1.592.53v-.544h7.25v9.1c0 .312.013.567.034.772.073-.07.136-.149.191-.238v-9.634h6.203v-5h7.25v5h.423v-1.86l7.25-2.064v3.924h3.05v6.75h-3.05v2.8c0 .086.001.168.003.245.035-.015.072-.03.11-.048l2.217-.985 1.477 6.422-1.439.693c-.598.287-1.256.513-1.958.688a9.495 9.495 0 0 1-2.31.285c-1.29 0-2.596-.29-3.62-1.141l-.659.33c-.473.236-1.058.411-1.648.555a9.193 9.193 0 0 1-2.171.256c-1.044 0-2.117-.201-3.027-.794l.111.444h-6.484l-.115-.368c-.955.497-2.011.718-3.113.718a7.35 7.35 0 0 1-2.332-.353 4.793 4.793 0 0 1-2.681-2.188c-.238.34-.52.66-.847.954l-.002.001c-1.314 1.177-3.092 1.586-4.959 1.586a10.72 10.72 0 0 1-3.058-.43c-.875-.248-1.684-.569-2.372-.996l-.108-.067c-.641.414-1.376.737-2.161.994l-.012.003-.011.004c-1.06.332-2.171.492-3.324.492-.941 0-1.845-.11-2.683-.35h-8.261l-2.624-4.52v4.52h-7.425V33.784zm16.807 17.88c.938.984 2.334 1.477 4.186 1.477.967 0 1.875-.134 2.725-.4.769-.252 1.394-.549 1.874-.892.061-.044.12-.088.176-.133l-1.075-2.125c-.283.216-.7.433-1.25.65a5.277 5.277 0 0 1-1.825.3c-1.1 0-1.9-.267-2.4-.8a2.508 2.508 0 0 1-.279-.375c-.308-.507-.481-1.173-.521-2h7.5c.084-.434.142-.85.175-1.25.029-.231.05-.454.062-.668.009-.157.013-.31.013-.457 0-.451-.031-.868-.092-1.25a5.82 5.82 0 0 0-.118-.554 4.4 4.4 0 0 0-.215-.621c-.283-.65-.658-1.167-1.125-1.55-.466-.384-1-.659-1.6-.825a6.875 6.875 0 0 0-1.85-.25c-1.9 0-3.375.55-4.425 1.65-1.05 1.1-1.575 2.75-1.575 4.95 0 1.239.171 2.32.512 3.242a5.85 5.85 0 0 0 .888 1.608c.076.095.156.186.239.273zm5.911-8.398c-.333-.484-.866-.725-1.6-.725-.85 0-1.483.258-1.9.775l-.02.025c-.388.497-.623 1.164-.705 2h4.65a4.849 4.849 0 0 0 0-.8c-.042-.483-.166-.883-.373-1.2a1.844 1.844 0 0 0-.052-.075zm4.946 8.75c.168.105.354.204.557.299.379.176.818.335 1.318.476a8.71 8.71 0 0 0 2.5.35c1.616 0 2.825-.359 3.625-1.075.816-.734 1.225-1.734 1.225-3 0-.734-.142-1.334-.426-1.8a3.587 3.587 0 0 0-1.049-1.125 5.7 5.7 0 0 0-1.375-.725c-.5-.184-.959-.35-1.375-.5a6.126 6.126 0 0 1-1.05-.525c-.284-.184-.425-.425-.425-.725 0-.75.483-1.125 1.449-1.125a6.395 6.395 0 0 1 1.776.25c.583.166 1.066.325 1.45.475l.725-2.35c-.434-.25-1.034-.475-1.8-.675-.767-.2-1.625-.3-2.576-.3-1.383 0-2.441.325-3.174.975-.59.522-.943 1.234-1.058 2.133-.028.22-.042.45-.042.692 0 .468.055.885.166 1.25a2.707 2.707 0 0 0 .259.6 4.18 4.18 0 0 0 1.05 1.175c.416.3.875.541 1.375.725.5.166.958.333 1.375.5.416.166.766.35 1.049.55.284.2.425.466.425.8 0 .433-.149.741-.449.925-.284.183-.667.275-1.15.275a6.444 6.444 0 0 1-1.95-.3c-.634-.217-1.142-.434-1.525-.65l-.9 2.425zm17.701.45a4.755 4.755 0 0 0 1.385-1.316c.039-.056.076-.113.112-.17l.023-.04h.1l.575 1.85h2.45a12.774 12.774 0 0 1-.321-2 20.613 20.613 0 0 1-.079-1.8v-8.7h-3.25v8.076a3.282 3.282 0 0 1-1.175 1.546.471.471 0 0 1-.025.016c-.35.225-.767.338-1.25.338-.7 0-1.175-.225-1.425-.675-.233-.45-.35-1.184-.35-2.2v-7.1h-3.25v7.775c0 .983.084 1.8.25 2.45.184.65.442 1.166.775 1.55.334.383.75.658 1.25.825.5.166 1.067.25 1.7.25.934 0 1.742-.209 2.425-.625l.08-.05zm12.871-4.71v-2.715h-.423v2.89l.423-.175zm-1.798 2.458a.734.734 0 0 1-.4-.348c-.15-.267-.225-.692-.225-1.275v-13.3h-3.25v15c0 1.016.25 1.75.75 2.2.5.433 1.225.65 2.175.65.583 0 1.15-.067 1.7-.2.55-.134.958-.267 1.225-.4l-.35-2.55a3.493 3.493 0 0 1-.725.225c-.184.033-.375.05-.575.05a.953.953 0 0 1-.325-.052zm7.298-.498c-.167-.384-.25-1.009-.25-1.875v-4.8h3.05v-2.75h-3.05v-3.275l-3.25.925v2.35h-1.725v2.75h1.725v6.3c0 1.35.267 2.325.8 2.925.55.583 1.4.875 2.55.875.617 0 1.225-.075 1.825-.225.6-.15 1.125-.334 1.575-.55l-.575-2.5c-.3.133-.575.233-.825.3a3.132 3.132 0 0 1-.91.099c-.451-.015-.764-.198-.94-.55zM259.649 38.74c-.466-.434-1.15-.65-2.05-.65-.35 0-.7.008-1.05.025-.333.016-.591.05-.775.1v5.075h1.45c.192 0 .375-.009.55-.026.698-.07 1.273-.278 1.725-.624.567-.434.85-1.15.85-2.15 0-.75-.233-1.334-.7-1.75zm-1.875 2.506c.263-.047.412-.124.494-.183l.009-.021c.026-.066.072-.233.072-.552a.728.728 0 0 0-.032-.257v-.002l-.014-.012-.013-.012c-.021-.015-.151-.093-.516-.113v1.152zm-20.931 43.544v-9.1c0-.386-.027-.668-.063-.865a.272.272 0 0 0-.145.067l-.006.004a.918.918 0 0 0-.186.212v9.682h-7.25v-16.5h6.171l.042.184c.871-.381 1.831-.534 2.812-.534.794 0 1.571.107 2.302.359.812.28 1.517.754 2.082 1.403.414.476.715 1.024.933 1.603.219-.346.468-.674.748-.982 1.49-1.655 3.529-2.383 5.833-2.383 1.206 0 2.355.19 3.393.639.516.222.996.498 1.435.827V68.29h1.725v-1.86l7.25-2.064v3.924h3.05v6.75h-3.05v2.8l.002.245c.036-.015.072-.03.11-.048l2.218-.985 1.477 6.422-1.44.693c-.597.287-1.255.512-1.957.688-.758.19-1.53.285-2.31.285-1.458 0-2.938-.371-4.006-1.503l-.02-.022-.019-.022c-.554-.622-.891-1.373-1.084-2.175a7.219 7.219 0 0 1-.96 1.357c-1.48 1.65-3.518 2.365-5.814 2.365-1.206 0-2.355-.19-3.393-.64a7.154 7.154 0 0 1-2.557-1.837l-.02-.023-.02-.024-.033-.04v2.214h-7.25zm17.598-3.35c1.033-1.15 1.55-2.784 1.55-4.9 0-.524-.036-1.024-.106-1.5a8.321 8.321 0 0 0-.269-1.2 6.449 6.449 0 0 0-.286-.8 5.395 5.395 0 0 0-.386-.73 4.806 4.806 0 0 0-.403-.545 4.797 4.797 0 0 0-1.825-1.35c-.733-.317-1.6-.475-2.6-.475-1.867 0-3.317.575-4.35 1.725-1.033 1.133-1.55 2.758-1.55 4.875 0 .983.117 1.883.35 2.7.25.816.617 1.516 1.1 2.1a5.157 5.157 0 0 0 1.85 1.325c.733.316 1.6.475 2.6.475 1.867 0 3.308-.567 4.325-1.7zm-2.375-7.675c-.383-.717-1.033-1.075-1.95-1.075-.8 0-1.425.3-1.875.9-.45.6-.675 1.583-.675 2.95 0 .55.05 1.058.15 1.525.1.466.25.875.45 1.225.2.35.458.625.775.825.333.183.725.275 1.175.275.85 0 1.483-.309 1.9-.925.417-.617.625-1.592.625-2.925 0-1.15-.192-2.075-.575-2.775zm-2.109 4.612a.85.85 0 0 0 .159.013.952.952 0 0 0 .229-.027l.014-.018c.077-.114.282-.596.282-1.805 0-.953-.163-1.51-.329-1.815l-.005-.008-.005-.009-.001-.003a.91.91 0 0 0-.185-.015c-.147 0-.2.026-.203.028a.065.065 0 0 0-.018.012.363.363 0 0 0-.054.06c-.051.068-.275.505-.275 1.75 0 .43.039.796.106 1.106.064.301.149.51.23.651a.548.548 0 0 0 .055.08zm6.987-5.337h1.725v6.3c0 1.35.266 2.325.8 2.925.55.583 1.4.875 2.55.875a7.5 7.5 0 0 0 1.825-.225c.6-.15 1.125-.334 1.575-.55l-.575-2.5c-.3.133-.575.233-.825.3a3.137 3.137 0 0 1-.91.099c-.451-.015-.765-.198-.94-.55-.167-.383-.25-1.008-.25-1.874v-4.8h3.05v-2.75h-3.05v-3.275l-3.25.925v2.35h-1.725v2.75zm-21.081-2.558a5.852 5.852 0 0 0-1.137.886 4.804 4.804 0 0 0-.483.572h-.1l-.375-1.65h-2.575v12.5h3.25v-8.1a2.908 2.908 0 0 1 .9-1.325 2.285 2.285 0 0 1 .611-.372c.291-.119.613-.178.964-.178.7 0 1.192.225 1.475.675.3.45.45 1.183.45 2.2v7.1h3.25v-7.775c0-.967-.083-1.775-.25-2.425-.167-.667-.417-1.192-.75-1.575a2.808 2.808 0 0 0-1.225-.825c-.483-.167-1.033-.25-1.65-.25-.951 0-1.736.18-2.355.542zm35.495-7.192h14.375v6.731c1.46-1.442 3.386-2.081 5.545-2.081 1.206 0 2.355.19 3.393.639a6.801 6.801 0 0 1 2.563 1.898l.047.056v-2.243h7.25v9.1c0 .312.013.567.034.772a1.32 1.32 0 0 0 .191-.238v-9.634h12.273l.042.184c.871-.381 1.831-.534 2.812-.534.794 0 1.571.107 2.302.359.812.28 1.517.754 2.082 1.403.416.479.718 1.03.937 1.613a7.43 7.43 0 0 1 .578-.816c1.43-1.75 3.478-2.51 5.799-2.51.092 0 .184.002.275.004V63.29h7.25v15.1c0 .684.008 1.368.024 2.052.015.595.079 1.28.202 2.063l.362 2.31h-6.184l-.051-.183c-.823.354-1.712.508-2.628.508-1.995 0-3.772-.665-5.073-2.138v1.788h-7.25v-9.1c0-.386-.027-.668-.063-.865a.272.272 0 0 0-.145.067l-.006.004a.918.918 0 0 0-.186.212v9.682h-11.625l-.114-.368c-.956.497-2.012.718-3.113.718a7.356 7.356 0 0 1-2.333-.353 4.79 4.79 0 0 1-2.126-1.41 5.487 5.487 0 0 1-.952-1.605 7.17 7.17 0 0 1-.753 1.003c-1.48 1.65-3.518 2.365-5.814 2.365-1.206 0-2.355-.19-3.393-.64a7.154 7.154 0 0 1-2.557-1.837l-.02-.023-.02-.024c-.672-.811-1.155-1.754-1.472-2.79l-.006-.019-.005-.018a11.13 11.13 0 0 1-.377-2.074h-4.645v7.075h-7.425v-21.5zm5.425 12.425h6.4v-3.05h-6.4V68.34h6.95v-3.05h-10.375v17.5h3.425v-7.075zm2-5.375v.325h6.37c.089-.11.181-.22.277-.325h-6.647zm8.145 1.325c-1.033 1.133-1.55 2.758-1.55 4.875 0 .983.117 1.883.35 2.7.25.816.617 1.516 1.1 2.1a5.157 5.157 0 0 0 1.85 1.325c.733.316 1.6.475 2.6.475 1.867 0 3.308-.567 4.325-1.7 1.033-1.15 1.55-2.784 1.55-4.9 0-.984-.125-1.884-.375-2.7-.233-.817-.592-1.509-1.075-2.075a4.797 4.797 0 0 0-1.825-1.35c-.733-.317-1.6-.475-2.6-.475-1.867 0-3.317.575-4.35 1.725zm6.3 2.1c-.383-.717-1.033-1.075-1.95-1.075-.8 0-1.425.3-1.875.9-.45.6-.675 1.583-.675 2.95 0 .55.05 1.058.15 1.525.1.466.25.875.45 1.225.2.35.458.625.775.825.333.183.725.275 1.175.275.85 0 1.483-.309 1.9-.925.417-.617.625-1.592.625-2.925 0-1.15-.192-2.075-.575-2.775zm-2.109 4.612a.85.85 0 0 0 .159.013.952.952 0 0 0 .227-.026h.002l.014-.019c.077-.114.282-.596.282-1.805 0-.953-.163-1.51-.329-1.815l-.005-.008-.005-.009-.001-.003a.91.91 0 0 0-.185-.015c-.146 0-.2.026-.203.028a.065.065 0 0 0-.018.012.418.418 0 0 0-.054.06c-.051.068-.275.505-.275 1.75 0 .43.039.796.106 1.106.064.301.149.51.231.651.02.036.038.062.054.08zm14.642 4.088a4.771 4.771 0 0 0 1.385-1.316c.038-.056.075-.113.111-.17l.024-.04h.1l.575 1.85h2.45a12.484 12.484 0 0 1-.321-2 20.228 20.228 0 0 1-.079-1.8v-8.7h-3.25v8.076a3.302 3.302 0 0 1-1.175 1.546l-.025.016c-.35.225-.767.338-1.25.338-.7 0-1.175-.225-1.425-.675-.234-.45-.35-1.184-.35-2.2v-7.1h-3.25v7.775c0 .983.083 1.8.25 2.45.183.65.441 1.166.775 1.55.333.383.75.658 1.25.825.5.166 1.066.25 1.7.25.933 0 1.741-.209 2.425-.625l.08-.05zm10.347-7.775a2.908 2.908 0 0 1 .9-1.325 2.285 2.285 0 0 1 .611-.372c.291-.119.613-.178.964-.178.7 0 1.192.225 1.475.675.3.45.45 1.183.45 2.2v7.1h3.25v-7.775c0-.967-.083-1.775-.25-2.425-.167-.667-.417-1.192-.75-1.575a2.808 2.808 0 0 0-1.225-.825c-.483-.167-1.033-.25-1.65-.25-.951 0-1.736.18-2.355.542a5.852 5.852 0 0 0-1.137.886 4.804 4.804 0 0 0-.483.572h-.1l-.375-1.65h-2.575v12.5h3.25v-8.1zm16.809 7.987a3.967 3.967 0 0 0 1.4-1.226l.03-.045c.04-.06.078-.12.115-.183l.019-.033h.1l.019.067.431 1.558h2.325a18.68 18.68 0 0 1-.225-2.325c-.017-.7-.025-1.4-.025-2.1v-13.1h-3.25v5.075a4.473 4.473 0 0 0-1-.275 5.969 5.969 0 0 0-1-.097c-.089-.002-.18-.003-.275-.003-1.867 0-3.283.591-4.25 1.775-.967 1.183-1.45 2.841-1.45 4.975 0 2.2.433 3.816 1.3 4.85.867 1.033 2.083 1.55 3.65 1.55.798 0 1.494-.155 2.086-.463zm-.138-2.54a1.73 1.73 0 0 0 .302-.197c.229-.198.416-.448.561-.75.086-.181.158-.382.214-.6v-5.3a2.287 2.287 0 0 0-.775-.4c-.283-.1-.65-.15-1.1-.15-.917 0-1.608.308-2.075.925-.45.616-.675 1.675-.675 3.175 0 1.066.183 1.925.55 2.575.383.65.983.975 1.8.975.474 0 .873-.084 1.198-.252zm-1.281-1.751a1.257 1.257 0 0 0 .316-.014l.001-.003a.634.634 0 0 0 .041-.084v-3.541a.8.8 0 0 0-.267.054.19.19 0 0 0-.074.055.787.787 0 0 0-.049.105 2.301 2.301 0 0 0-.11.379c-.075.351-.125.843-.125 1.503 0 .81.134 1.286.267 1.546z" fill="#fff"/></g><defs><filter id="a" x="227.193" y="33.041" width="114.163" height="56.1" filterUnits="userSpaceOnUse" color-interpolation-filters="sRGB"><feFlood flood-opacity="0" result="BackgroundImageFix"/><feColorMatrix in="SourceAlpha" values="0 0 0 0 0 0 0 0 0 0 0 0 0 0 0 0 0 0 127 0" result="hardAlpha"/><feOffset dy="2"/><feGaussianBlur stdDeviation="2"/><feComposite in2="hardAlpha" operator="out"/><feColorMatrix values="0 0 0 0 0 0 0 0 0 0 0 0 0 0 0 0 0 0 0.25 0"/><feBlend in2="BackgroundImageFix" result="effect1_dropShadow_1544_210"/><feBlend in="SourceGraphic" in2="effect1_dropShadow_1544_210" result="shape"/></filter><filter id="b" x="225.193" y="31.041" width="118.501" height="60.1" filterUnits="userSpaceOnUse" color-interpolation-filters="sRGB"><feFlood flood-opacity="0" result="BackgroundImageFix"/><feColorMatrix in="SourceAlpha" values="0 0 0 0 0 0 0 0 0 0 0 0 0 0 0 0 0 0 127 0" result="hardAlpha"/><feOffset dy="2"/><feGaussianBlur stdDeviation="2"/><feComposite in2="hardAlpha" operator="out"/><feColorMatrix values="0 0 0 0 0 0 0 0 0 0 0 0 0 0 0 0 0 0 0.25 0"/><feBlend in2="BackgroundImageFix" result="effect1_dropShadow_1544_210"/><feBlend in="SourceGraphic" in2="effect1_dropShadow_1544_210" result="shape"/></filter></defs></svg>