<svg width="612" height="442" fill="none" xmlns="http://www.w3.org/2000/svg"><g clip-path="url(#a)"><path d="m601.36 134.691-9.57 46.34-6.16-6-10.48 7.47-8.01-9.94-17.96 13.06-15.35-25.67-17.12 10.03-6.79-9.37-21.74 12.25-6.54-14 15.24-73.81 81.7 16.87 22.78 32.77z" fill="#EBEBEB"/><path d="m578.58 101.921 22.78 32.77-28.34-5.85 5.56-26.92z" fill="#DBDBDB"/><path d="m589.75 190.301-14.03 67.99-110.05-22.71 13.93-67.46 6.54 14.01 21.75-12.25 6.78 9.36 17.13-10.03 15.34 25.67 17.97-13.06 8 9.94 10.49-7.47 6.15 6.01zM432.24 182.331l-112.15 6.94-8.91-143.97 83.28-5.15 30.57 25.64 7.21 116.54z" fill="#EBEBEB"/><path d="m394.46 40.151 30.57 25.64-28.88 1.79-1.69-27.43zM363.41 137.021l-.44-3.25c-1.13-6.73.71-14.26 6.56-22.13 5.28-7 8.14-12 7.82-17.68-.36-6.4-4.61-10.44-12.52-10.12a22.312 22.312 0 0 0-12.45 4.6l-3.45-7.73c4-3.25 11-5.65 17.65-6 14.43-.8 21.45 7.74 22 17.27.48 8.53-3.94 14.94-9.56 22.43-5.16 6.83-6.85 12.46-6.12 18.83l.31 3.26-9.8.52zm-1.78 17.71c-.26-4.64 2.69-8.08 7.08-8.32 4.39-.24 7.59 2.84 7.85 7.49.24 4.39-2.45 7.93-7.09 8.19-4.43.25-7.63-2.97-7.88-7.36h.04z" fill="#DBDBDB"/><path d="m82.89 112.531-11.28-5.11-1.57 3.45a3 3 0 0 1-2.57 1.72c-.62.021-1.238.081-1.85.18a2.996 2.996 0 0 1-2.85-1.18l-2.21-3.09-10.07 7.22 2.21 3.09a3 3 0 0 1 .2 3.07 18.31 18.31 0 0 0-.77 1.69 3.001 3.001 0 0 1-2.45 1.89l-3.77.37 1.21 12.33 3.79-.38a2.996 2.996 0 0 1 2.77 1.38c.16.26.33.51.51.76s.36.49.55.73a2.943 2.943 0 0 1 .42 3.05l-1.58 3.48 11.29 5.12 1.57-3.47a3.001 3.001 0 0 1 2.58-1.71 16.037 16.037 0 0 0 1.83-.18 3.006 3.006 0 0 1 2.85 1.18l2.21 3.09 10.08-7.22-2.21-3.09a2.908 2.908 0 0 1-.2-3.07c.279-.546.529-1.107.75-1.68a2.944 2.944 0 0 1 2.45-1.89l3.79-.38-1.22-12.33-3.79.37a2.933 2.933 0 0 1-2.75-1.37c-.17-.26-.34-.51-.52-.76s-.36-.5-.55-.73a2.998 2.998 0 0 1-.42-3.07l1.57-3.46zm-6.4 11.41a10.15 10.15 0 1 1-16.502 11.825A10.15 10.15 0 0 1 76.49 123.94zM592.79 276.131l-7.52 4.34 1.33 2.3a1.993 1.993 0 0 1-.07 2.17c-.23.36-.45.73-.65 1.12a2 2 0 0 1-1.83 1.14h-2.64v8.69h2.66a2.009 2.009 0 0 1 1.83 1.14c.2.39.42.76.65 1.12a2.002 2.002 0 0 1 .07 2.17l-1.33 2.3 7.52 4.34 1.34-2.31a2.058 2.058 0 0 1 1.91-1h1.28a2.062 2.062 0 0 1 1.91 1l1.34 2.32 7.51-4.34-1.33-2.31a2.05 2.05 0 0 1 .08-2.16c.23-.36.45-.74.65-1.12a1.998 1.998 0 0 1 1.83-1.14h2.66v-8.69h-2.68a2 2 0 0 1-1.83-1.14c-.2-.38-.42-.76-.65-1.12a2.048 2.048 0 0 1-.08-2.16l1.33-2.31-7.51-4.34-1.34 2.28a2.054 2.054 0 0 1-1.91 1h-1.28a2.077 2.077 0 0 1-1.92-1l-1.33-2.29zm3.89 8.3a7.123 7.123 0 0 1 6.994 8.507 7.126 7.126 0 0 1-5.597 5.597 7.116 7.116 0 0 1-7.311-3.034 7.12 7.12 0 0 1-1.196-3.96 7.132 7.132 0 0 1 .538-2.724 7.097 7.097 0 0 1 3.849-3.853 7.11 7.11 0 0 1 2.723-.543v.01zM105.71 75.581l-6.89 5.28 1.59 2.11a1.999 1.999 0 0 1 .21 2.15c-.191.39-.358.79-.5 1.2a2.049 2.049 0 0 1-1.67 1.37l-2.64.34 1.12 8.61 2.64-.34a2.06 2.06 0 0 1 2 .9c.241.348.501.682.78 1a1.998 1.998 0 0 1 .36 2.13l-1 2.46 8 3.33 1-2.46a2.057 2.057 0 0 1 1.77-1.25l.64-.07.63-.1a2.07 2.07 0 0 1 2 .75l1.63 2.13 6.89-5.28-1.61-2.11a2.063 2.063 0 0 1-.21-2.16c.19-.386.357-.784.5-1.19a2.048 2.048 0 0 1 1.67-1.37l2.64-.34-1.12-8.61-2.64.34a2.062 2.062 0 0 1-2-.89c-.25-.36-.51-.7-.79-1a2.07 2.07 0 0 1-.3-2.09l1-2.46-8-3.33-1 2.46a2.075 2.075 0 0 1-1.77 1.25l-.64.06-.59.02a2.06 2.06 0 0 1-2-.75l-1.7-2.09zm4.93 7.73a7.11 7.11 0 1 1 1.813 14.105 7.11 7.11 0 0 1-1.813-14.105zM54.23 301.201c.376-9.666.242-19.347-.4-29a370.803 370.803 0 0 0-9.09-59.16c-2.54-10.94-5.66-21.7-8.92-32.45-.1-.33-.62-.24-.53.1 10.07 37.901 18.33 77.001 17.76 116.401-.16 11-1.44 21.849-2.48 32.81 0 .289.45.409.52.109 2.07-9.41 2.75-19.23 3.14-28.81z" fill="#EBEBEB"/><path d="M35.29 180.662s-15.24 38.7-11.83 47.76c3.41 9.06 10.45 11 10.45 11s-9.33 13.32-2.81 25.81c6.52 12.49 21 11.9 22 26.06-.03.07.77-59.14-17.81-110.63z" fill="#EBEBEB"/><path d="M51.41 266.911a.28.28 0 0 0 0-.2 354.32 354.32 0 0 0-14.78-77.85c0-.07-.15-.05-.13 0a578.232 578.232 0 0 1 8 34.14 16.88 16.88 0 0 0-7.28-4.06s-.08.06 0 .08a19.364 19.364 0 0 1 7.52 5c.44 2.25.88 4.49 1.29 6.74-3.41-3.81-8.13-5.7-12.86-7.5a.063.063 0 0 0-.036.055c0 .012.003.024.01.033.006.01.015.018.026.022 4.93 2 9.83 4.58 13.17 8.83 1.16 6.42 2.18 12.864 3.06 19.33a18.436 18.436 0 0 0-9.09-5.21c-.11 0-.17.13-.06.16a19.165 19.165 0 0 1 9.16 5.94h.06c.3 2.267.587 4.544.86 6.83a23.4 23.4 0 0 0-6.37-3.84c-.06 0-.1.07 0 .09a21.92 21.92 0 0 1 6.39 4.23h.08c.25 2.17.5 4.34.72 6.51a31.01 31.01 0 0 0-12.93-9.24.08.08 0 0 0-.056.137.08.08 0 0 0 .056.023 33.692 33.692 0 0 1 12.74 9.81.292.292 0 0 0 .145.099.291.291 0 0 0 .175.001c.33 3.33.63 6.66.87 10 0 .05.08.05.08 0-.26-3.353-.533-6.74-.82-10.16z" fill="#fff"/><path d="M39.16 215.131a19.1 19.1 0 0 0-9.16-2.86.06.06 0 0 0-.043.103.06.06 0 0 0 .043.017 36.225 36.225 0 0 1 9.06 3c.12.03.21-.18.1-.26zM41.01 256.101a19.076 19.076 0 0 0-6.88-2.35c-.08 0-.09.11 0 .13a26.084 26.084 0 0 1 6.8 2.38c.09.05.17-.11.08-.16z" fill="#fff"/><path d="M94.31 229.091a103.739 103.739 0 0 0-17.65 15.42 63.194 63.194 0 0 0-12.37 21 156.936 156.936 0 0 0-9.22 50.2 122.314 122.314 0 0 0 2.71 28.23.27.27 0 0 0 .53-.1 158.598 158.598 0 0 1 .28-49.35c2.62-16 6.73-33.42 16.91-46.43 5.54-7.09 12.45-12.66 19.28-18.42.36-.32-.1-.81-.47-.55z" fill="#EBEBEB"/><path d="M57.31 304.171a95.062 95.062 0 0 1 12.86-16.44c7.63-7.63 14.05-13.05 15.05-18.09 1-5.04-7.64-8.76-7.64-8.76s10.55 1.9 13.44-2.53c2.89-4.43 4.28-30.09 4.28-30.09s-19.2 13.71-28.15 32.93-9.84 42.98-9.84 42.98z" fill="#EBEBEB"/><path d="M88.41 252.331a16.895 16.895 0 0 0-3.82-.13c-.15 0-.14.26 0 .27 1.26 0 2.53-.06 3.79 0a.073.073 0 0 0 .038-.022.077.077 0 0 0 .02-.038.081.081 0 0 0-.028-.08zM74.62 277.221a17.222 17.222 0 0 0-5.92 1.18v.09c2-.47 3.93-.66 5.91-1a.143.143 0 0 0 .064-.053.148.148 0 0 0 .006-.159.16.16 0 0 0-.06-.058zM70.48 268.622a13.125 13.125 0 0 0-2.51.22.072.072 0 0 0-.038.029.079.079 0 0 0 0 .091.08.08 0 0 0 .038.03c.838.048 1.68.011 2.51-.111a.129.129 0 0 0 .092-.221.128.128 0 0 0-.092-.038z" fill="#fff"/><path d="M1.02 256.312a87.123 87.123 0 0 1 17.85 8.41 53.313 53.313 0 0 1 14.87 14.12 132.185 132.185 0 0 1 19.06 38.49c2.35 7.631 3.8 15.511 4.32 23.48a.23.23 0 0 1-.45 0 133.198 133.198 0 0 0-11.62-39.87c-5.83-12.35-13.18-25.49-24.42-33.67-6.12-4.45-13-7.37-19.86-10.45-.36-.12-.11-.63.25-.51z" fill="#EBEBEB"/><path d="M48.32 308.522a80.263 80.263 0 0 0-14.21-10.33c-7.94-4.41-14.39-7.31-16.36-11.16-1.97-3.85 4.16-8.85 4.16-8.85s-8.1 4-11.46 1.05c-3.36-2.95-10.42-23.35-10.42-23.35s18.71 6.65 30.38 20.14c11.67 13.49 17.91 32.5 17.91 32.5z" fill="#EBEBEB"/><path d="M32.79 289.742a14.33 14.33 0 0 0-5.44.67v.08a40.744 40.744 0 0 1 5.41-.56c.13 0 .16-.18.03-.19zM16.47 268.342a9.149 9.149 0 0 0-2.51.14c-.09 0-.06.16 0 .15.83-.09 1.64-.06 2.46-.08a.107.107 0 0 0 .07-.023.11.11 0 0 0 .032-.136.106.106 0 0 0-.052-.051z" fill="#fff"/><path d="M72.45 366.601H30.22l6.02-44.11 1.54-11.31h27.11l1.54 11.31 6.02 44.11z" fill="#DBDBDB"/><path d="M66.43 322.491H36.24l1.54-11.31h27.11l1.54 11.31z" fill="#C7C7C7"/><path d="M68.76 307.261H33.9v9.58h34.86v-9.58z" fill="#DBDBDB"/><path d="m3.37 366.601 76.01-.25 76.01-.08 152.02-.17 152.02.16 76.01.09 76.01.25-76.01.24-76.01.09-152.02.16-152.02-.16-76.01-.09-76.01-.24z" fill="#032F2C"/><path d="M309.41 441.132c158.362 0 286.74-14.068 286.74-31.421 0-17.352-128.378-31.419-286.74-31.419-158.362 0-286.74 14.067-286.74 31.419 0 17.353 128.378 31.421 286.74 31.421z" fill="#EBEBEB"/><path d="M242.66 404.511c-2.33.79-69.14 1-71.7-.58-1-.6-1.57-10.33-2-22.11-.09-2.54-.16-5.17-.22-7.83l-5.33-35.64 44.67-.29 4.21 35.65-.17 7.84s25.62 11.35 28.24 13.41c2.62 2.06 4.63 8.76 2.3 9.55z" fill="#FFC6A5"/><path d="M242.66 404.511c-2.33.79-69.14 1-71.7-.58-1.18-.74-1.82-14.95-2.18-29.94l43.46-.28-.17 7.84s25.62 11.35 28.24 13.41c2.62 2.06 4.68 8.76 2.35 9.55z" fill="#fff"/><path d="M242.66 404.511c-2.33.79-69.14 1-71.7-.58-1-.6-1.57-10.33-2-22.11l43.07-.27s25.62 11.35 28.24 13.41c2.62 2.06 4.72 8.76 2.39 9.55z" fill="#A6A6A6"/><path d="M241.69 401.841c-11.2-.24-56.4-.13-67.49.49-.09 0-.09.06 0 .07 11.1.47 56.3 0 67.49-.38.24-.01.24-.18 0-.18zM236 392.571a9.006 9.006 0 0 0-6.69 2.76 8.66 8.66 0 0 0-2.48 6c0 .07.12.07.13 0a10.402 10.402 0 0 1 9-8.6.08.08 0 0 0 .062-.009.08.08 0 0 0 .038-.051.084.084 0 0 0-.009-.062.085.085 0 0 0-.051-.038zM216.41 382.651c-4.48-.05-9.67 1.55-12.45 5.23-.1.14.1.29.23.22a62.267 62.267 0 0 1 12.3-4.9.277.277 0 0 0 .203-.31.284.284 0 0 0-.096-.174.283.283 0 0 0-.187-.066zM219.89 383.981c-4.49 0-9.68 1.56-12.45 5.23-.11.15.09.3.23.23a61.634 61.634 0 0 1 12.29-4.91.282.282 0 0 0 .159-.114.287.287 0 0 0 .045-.191.285.285 0 0 0-.091-.174.283.283 0 0 0-.183-.071zM223.35 385.321c-4.48 0-9.67 1.55-12.45 5.23-.1.14.1.29.23.22a62.267 62.267 0 0 1 12.3-4.9.277.277 0 0 0 .203-.31.279.279 0 0 0-.283-.24zM226.82 386.661c-4.49-.05-9.68 1.55-12.45 5.23-.11.14.1.29.23.22a62.06 62.06 0 0 1 12.3-4.9.277.277 0 0 0 .203-.31.284.284 0 0 0-.096-.174.283.283 0 0 0-.187-.066zM177.02 391.681c-5 0-5 7.85 0 7.82 5-.03 5.04-7.85 0-7.82z" fill="#032F2C"/><path d="M221.22 370.671c-2.27-1.88-5.13 0-6.52 1.93a23.582 23.582 0 0 0-4 11.48c0 .09.07.13.14.13a.541.541 0 0 0 .81.35c3.18-2.21 6.86-4.19 9.27-7.32 1.37-1.82 2.49-4.82.3-6.57zm-5.46 9.54c-1.54 1.13-3.13 2.18-4.63 3.37.8-2.24 1.49-4.5 2.51-6.66a25.132 25.132 0 0 1 1.62-3c1-1.49 5.36-5.25 5.82-.38.26 2.67-3.49 5.33-5.32 6.67z" fill="#032F2C"/><path d="M199.54 385.781c3.9.58 7.93-.54 11.76-1.15a.544.544 0 0 0 .409-.578.55.55 0 0 0-.079-.242.107.107 0 0 0 .034-.042.119.119 0 0 0 .013-.053.125.125 0 0 0-.047-.095 23.504 23.504 0 0 0-10.86-5.47c-2.36-.45-5.7.2-6 3.13-.36 2.76 2.49 4.14 4.77 4.5zm-2.72-2.54c-3-3.84 2.73-4.17 4.45-3.77 1.116.279 2.212.634 3.28 1.06a69.587 69.587 0 0 1 6.41 3.05c-1.9.19-3.77.53-5.66.79-2.26.3-6.8.98-8.48-1.13z" fill="#032F2C"/><path d="M97.73 173.621s51.87 88.24 53.26 94.44c2.13 9.52 13.42 103.53 13.42 103.53l54-1s-9.3-82.89-18.11-110.2c-6.34-19.67-52.12-84.91-52.12-84.91l-50.45-1.86z" fill="#37474F"/><path d="M213.5 362.351c-7.75-.06-35.22-.37-45.54.59-.08 0-.07.14 0 .15 3.55.51 37.78-.28 45.53-.53.016.006.034.008.051.006a.1.1 0 0 0 .047-.018.107.107 0 0 0 .049-.086.108.108 0 0 0-.04-.091.13.13 0 0 0-.046-.022.125.125 0 0 0-.051.001zM106.58 181.721c3.4 5.33 7 10.55 10.46 15.84 3.46 5.29 6.94 10.58 10.37 15.86a1301.72 1301.72 0 0 1 20 32.21 98.66 98.66 0 0 1 8.1 15.79 96.835 96.835 0 0 1 4.55 16.94c1.06 5.79 1.76 11.64 2.41 17.49.667 6.22 1.363 12.444 2.09 18.67 1.42 12.74 2.843 25.48 4.27 38.22.17 1.56.34 3.12.5 4.69 0 .23-.39.27-.42 0-1.59-12.65-2.91-25.35-4.35-38-.72-6.313-1.437-12.623-2.15-18.93-.67-5.87-1.31-11.75-2.22-17.58a114.98 114.98 0 0 0-3.8-17 81.655 81.655 0 0 0-7.46-16.5c-6.25-10.79-12.87-21.39-19.49-32-6.62-10.61-13.42-21.31-20.4-31.79-.86-1.29-1.73-2.58-2.63-3.85-.07-.07.11-.16.17-.06z" fill="#032F2C"/><path d="M114.73 409.711c-2.46-.15-66-25.89-67.76-28.33a.838.838 0 0 1-.1-.47c0-2.19 4.41-9.83 8.09-19.87.23-.64 1.87-3.62 4.14-7.63 6.31-10.99 17.31-29.92 17.31-29.92l41.53 16.5-19.88 29.75-3.09 7.2s19.49 20.15 21.13 23c1.64 2.85 1.08 9.91-1.37 9.77z" fill="#FFC6A5"/><path d="M114.73 409.711c-2.46-.15-66-25.89-67.76-28.33a.84.84 0 0 1-.1-.47c0-2.19 4.41-9.83 8.09-19.87.23-.64 1.87-3.62 4.14-7.63l39 16.33-3.09 7.2s19.49 20.15 21.13 23c1.64 2.85 1.04 9.91-1.41 9.77z" fill="#fff"/><path d="M114.73 409.712c-2.46-.15-66-25.89-67.76-28.33-.68-.931 2.16-9.6 8-20.34l40 15.91s19.49 20.13 21.14 23c1.65 2.87 1.07 9.9-1.38 9.76z" fill="#A6A6A6"/><path d="M114.83 406.871c-10.29-4.42-52.23-21.28-62.74-24.86-.09 0-.11 0 0 .06 10.11 4.6 52.18 21.12 62.7 25 .2.05.26-.11.04-.2zM113.03 396.141a9.006 9.006 0 0 0-7.24 0 8.703 8.703 0 0 0-4.54 4.62c0 .06.09.11.12.05a10.412 10.412 0 0 1 11.61-4.59.069.069 0 0 0 .05-.08zM98.6 379.601c-4.13-1.73-9.55-2.19-13.5.18-.15.09 0 .3.13.29a62.405 62.405 0 0 1 13.24.07.277.277 0 0 0 .302-.212.283.283 0 0 0-.172-.328zM101.31 382.141c-4.13-1.73-9.55-2.19-13.5.18-.15.09 0 .3.13.29a61.752 61.752 0 0 1 13.24.07.275.275 0 0 0 .191-.049.28.28 0 0 0-.061-.491zM104.03 384.681c-4.14-1.73-9.56-2.19-13.5.18-.16.09 0 .3.12.29a61.752 61.752 0 0 1 13.24.07.28.28 0 0 0 .14-.54zM106.74 387.221c-4.14-1.73-9.55-2.19-13.5.17-.16.1 0 .31.12.3a61.752 61.752 0 0 1 13.24.07.28.28 0 0 0 .14-.54zM58.69 373.191c-4.67-1.86-7.57 5.41-2.88 7.27 4.69 1.86 7.6-5.41 2.88-7.27z" fill="#032F2C"/><path d="M107.55 370.301c-1.41-2.59-4.74-1.95-6.77-.66a23.52 23.52 0 0 0-8 9.13.122.122 0 0 0 .032.147c.014.011.03.019.048.023 0 .33.22.72.61.64 3.79-.87 7.94-1.32 11.34-3.32 1.95-1.16 4.07-3.51 2.74-5.96zm-8.65 6.79c-1.85.47-3.71.85-5.54 1.39a70.142 70.142 0 0 1 4.81-5.23 25.48 25.48 0 0 1 2.65-2.2c1.45-1 6.93-2.85 5.53 1.84-.77 2.59-5.24 3.64-7.45 4.2z" fill="#032F2C"/><path d="M81.78 376.171c3.4 2 7.55 2.47 11.33 3.35.39.09.65-.3.62-.64a.108.108 0 0 0 .098-.117.112.112 0 0 0-.018-.053 23.525 23.525 0 0 0-8-9.15c-2-1.3-5.35-1.95-6.77.63s.75 4.81 2.74 5.98zm-1.56-3.38c-1.39-4.69 4.08-2.83 5.53-1.82a24.415 24.415 0 0 1 2.64 2.21 70.31 70.31 0 0 1 4.8 5.24c-1.83-.54-3.69-.93-5.54-1.4-2.24-.6-6.67-1.6-7.43-4.23z" fill="#032F2C"/><path d="m101.29 368.081-46.49-18.77s57.64-84.75 58.06-91.06c.38-5.58-24.94-54.2-25.93-68.37-1.08-15.3 6.28-27.13 14.38-34.48l47.95 20.39s-5.06 8.09-13 12.6c0 0 24.59 56.2 23.19 73.48-1.4 17.28-58.16 106.21-58.16 106.21z" fill="#37474F"/><path d="M103.35 359.241c-6.72-2.89-4.75-2.16-11.51-5-3.3-1.38-25-10.41-28.34-11.16-.07 0-.12.1-.05.14 2.89 1.77 24.77 10.42 28.1 11.74 6.81 2.68 4.88 1.84 11.72 4.44a.1.1 0 0 0 .039.032.1.1 0 0 0 .097-.009.103.103 0 0 0 .034-.038.1.1 0 0 0-.005-.097.093.093 0 0 0-.036-.035.105.105 0 0 0-.049-.013zM144.12 187.361a90.609 90.609 0 0 0-14.6 4.74.163.163 0 0 0-.088.078.147.147 0 0 0-.015.058c-.001.02.002.04.008.059a.168.168 0 0 0 .03.052c.014.015.03.027.048.036a.147.147 0 0 0 .058.015c.02.002.04-.001.059-.008 4.9-1.43 9.88-2.77 14.7-4.46.37-.13.18-.65-.2-.57z" fill="#032F2C"/><path d="M138.41 185.421a21.704 21.704 0 0 0-1.23 2.57c-.345.67-.559 1.4-.63 2.15 0 .15.2.18.29.09.502-.6.907-1.275 1.2-2 .41-.79.83-1.57 1.22-2.38.27-.59-.54-.97-.85-.43z" fill="#032F2C"/><path d="M139.01 180.881c.3-.74.59-1.47.9-2.21.31-.74.7-1.5 1-2.28 0-.12.24 0 .19.09-.3.74-.49 1.52-.72 2.28-.23.76-.49 1.52-.74 2.28-.47 1.41-1 2.81-1.65 4.18a5.282 5.282 0 0 0 2.3-.4 4.127 4.127 0 0 0 1.63-2c.42-.82.81-1.66 1.24-2.48.529-.886.975-1.82 1.33-2.79 0-.12.24 0 .19.09a32.402 32.402 0 0 1-2.55 5.91c-.45.73-.8 1.5-1.62 1.78a6.764 6.764 0 0 1-2.73.19c-.12 0-.26 0-.22-.18.41-1.509.893-2.998 1.45-4.46zM136.97 190.221c1.71 3.61 3.21 7.21 4.8 10.81 1.59 3.6 3 7.08 4.43 10.66 2.86 7.22 5.42 14.58 7.67 22a223.1 223.1 0 0 1 3.06 11.13 80.09 80.09 0 0 1 2.22 11.36c.401 3.829.062 7.7-1 11.4a66.663 66.663 0 0 1-4.23 10.63c-1.05 2.16-1.4 1.87-.9.78 1.43-3.1 5.18-12.49 4.91-20.38a58.816 58.816 0 0 0-1.74-11.19c-.873-3.78-1.857-7.53-2.95-11.25-2.13-7.34-4.66-14.53-7.26-21.71-1.46-4-3-8-4.5-12s-3-7.68-4.68-12.1c-.05-.18.12-.25.17-.14zM101.68 178.291c.83-.31 2 .2 2.84.34 1.088.185 2.187.295 3.29.33 1.091.039 2.184.002 3.27-.11a6.99 6.99 0 0 0 3.13-.83 15.916 15.916 0 0 0 4-4.23 24.567 24.567 0 0 0 3.11-5.46c0-.12.21 0 .17.08-.35 1.11-.61 2.23-1 3.32a20.115 20.115 0 0 1-1.54 2.95 12.61 12.61 0 0 1-4.14 4.7c-1.93 1.1-4.41 1-6.56.91a25.463 25.463 0 0 1-3.71-.49c-.88-.19-2.36-.33-2.92-1.1a.273.273 0 0 1-.066-.219.27.27 0 0 1 .126-.191z" fill="#032F2C"/><path d="M68.07 340.421c7.64-11.573 15.14-23.24 22.5-35 7.36-11.76 14.62-23.61 21.78-35.55 1.71-2.85 3.68-5.69 4.78-8.85 1.2-3.43.52-6.76-.56-10.12a171.584 171.584 0 0 0-7.14-18c-2.68-5.91-5.57-11.72-8.41-17.55s-5.81-11.59-8-17.67c-2-5.81-2.81-11.83-1.25-17.85 1.56-6.02 4.92-11.34 8.43-16.35.92-1.32 1.87-2.63 2.8-4 .07-.1.22 0 .15.12-3.87 5.22-7.64 10.75-9.91 16.88a29.158 29.158 0 0 0-1.92 9.45 30.588 30.588 0 0 0 1.51 9.67c1.88 6.08 4.85 11.83 7.62 17.55 2.77 5.72 5.73 11.64 8.46 17.53 2.816 5.928 5.32 12 7.5 18.19.93 2.75 2 5.63 1.92 8.58-.07 3.23-1.61 6.14-3.21 8.86-7 11.85-14.17 23.56-21.47 35.2-7.3 11.64-14.81 23.28-22.41 34.8l-2.88 4.35c-.15.18-.41-.03-.29-.24z" fill="#032F2C"/><path d="M151.92 121.891c4.33 9.5 26.2 22.59 36.44 24 7.36 1 29.74 1.36 37.41.19 9-1.38 2.12-25.63-3.19-25-14.6 1.7-27 3.6-30.9 3.6-4.76 0-30.51-8.26-33.61-9.43-7.6-2.83-8.6 1.25-6.15 6.64z" fill="#FFC6A5"/><path d="M152.06 124.421c5.48 8.11 23.69 21.37 23.69 21.37l2.53-5.6 8.37-18.52s-16.73-5.25-27.74-7.65a24.124 24.124 0 0 0-3.94-.56c-7.03-.38-7.64 3.96-2.91 10.96z" fill="#28AFA7"/><path d="M152.06 124.421c5.48 8.11 23.69 21.37 23.69 21.37l2.53-5.6c-6.79-7.89-17.28-19.84-23.31-26.71-7.03-.4-7.64 3.94-2.91 10.94z" fill="#032F2C"/><path d="M172.47 142.031c1.39-3.41 7.57-17.14 9.11-20 .1-.2.26-.18.17 0a201.717 201.717 0 0 1-9.14 20c-.04.12-.2.08-.14 0z" fill="#032F2C"/><path d="M219.9 121.331c8.88-1.16 19.87-3.15 29.18.8a5 5 0 0 1 2.49 2.13c4.2 1.7 4.66 4.19 4.66 4.19 3.43 2.78 3.55 5.4 3.55 5.4s4.92 2 4.17 5.22c-.82 3.56-7.56 0-12.46.29-11.25.7-27 4.83-30.25 5.35l-1.34-23.38z" fill="#FFC6A5"/><path d="M239.19 131.811a72.391 72.391 0 0 1 9.88 0 71.908 71.908 0 0 1 10.6 2.15.091.091 0 0 0 .069-.003.09.09 0 0 0-.009-.167 38.292 38.292 0 0 0-20.54-2.08c-.16-.02-.16.11 0 .1zM237.1 121.421c5.49.28 8.92 1.16 14.44 2.82v-.06c-6.08-2.54-8.57-2.78-14.47-3-.19.08-.18.24.03.24z" fill="#032F2C"/><path d="M237.99 141.061c-1.43.67-1.08 1.42 1.65 2.05 2.73.63 14.08.82 13.68 4.78-.4 3.96-16.41 3.46-20.88 2.06-4.47-1.4-11.2-5.24-11.2-5.24 3.17-.53 10.61-2.54 16.75-3.65z" fill="#FFC6A5"/><path d="M163.81 137.031c-.07 1.71-.23 3.45-.47 5.18 0-.07 0-.13.07-.19.33-.9.66-1.82 1.06-2.69h.09c-.192.954-.48 1.885-.86 2.78-.18.43-.35.85-.54 1.27-.12.77-.26 1.53-.41 2.29-.3 1.43-1.65 7.51-2 8.54-.06.21-.32.16-.3-.08.07-1.12 1.2-7.45 1.43-8.89a77.748 77.748 0 0 1 1.79-8.25c.05-.05.15-.01.14.04z" fill="#032F2C"/><path d="M153.41 182.501c-2.67 1.37-6.11 3.5-21.61.45-1-.2-1.94-.44-2.92-.73-14.53-4.36-32-21.45-32.95-22.66 0 0 23.09-37.43 52.62-49.2 3.65-1.45 9.69 1.35 13 4.84 1.19 1.25 3.78 10.44 2.79 17.88-.99 7.44-8.27 48.05-10.93 49.42z" fill="#28AFA7"/><path d="M151.33 132.741a11.333 11.333 0 0 1-.65 4.66 10.846 10.846 0 0 1 .65-4.66zM141.26 158.231c.064.787.037 1.579-.08 2.36a9.804 9.804 0 0 1-.57 2.3 9.845 9.845 0 0 1 .08-2.37 10.39 10.39 0 0 1 .57-2.29zM124.15 138.961a11.264 11.264 0 0 1-.65 4.66 10.91 10.91 0 0 1 .65-4.66zM157.92 156.931c.064.791.037 1.586-.08 2.37a9.792 9.792 0 0 1-.57 2.3 9.845 9.845 0 0 1 .08-2.37 10.31 10.31 0 0 1 .57-2.3zM135.95 135.661a10.351 10.351 0 0 1 2.36.07c.787.1 1.56.295 2.3.58a11.264 11.264 0 0 1-4.66-.65zM116.53 154.071a11.35 11.35 0 0 1 4.66.65 10.846 10.846 0 0 1-4.66-.65zM139.41 174.001a11.28 11.28 0 0 1 4.66.65 10.91 10.91 0 0 1-4.66-.65zM110.54 166.761a11.35 11.35 0 0 1 4.66.65 10.91 10.91 0 0 1-4.66-.65zM151.18 114.821a11.35 11.35 0 0 1 4.66.65 11.333 11.333 0 0 1-4.66-.65zM145.53 121.201a9.707 9.707 0 0 1-1.72 1.62c-.62.479-1.29.889-2 1.22a10.186 10.186 0 0 1 1.7-1.62c.626-.481 1.303-.89 2.02-1.22zM114.74 139.331a10.076 10.076 0 0 1-1.73 1.61 9.386 9.386 0 0 1-2 1.22c.515-.6 1.095-1.14 1.73-1.61a9.698 9.698 0 0 1 2-1.22zM153.19 147.511a10.098 10.098 0 0 1-1.73 1.62 9.672 9.672 0 0 1-2 1.22 10.214 10.214 0 0 1 1.73-1.62 10.35 10.35 0 0 1 2-1.22zM128.29 163.191a10.098 10.098 0 0 1-1.73 1.62 9.813 9.813 0 0 1-2 1.22 10.214 10.214 0 0 1 1.73-1.62 10.35 10.35 0 0 1 2-1.22zM162.73 126.091a10.098 10.098 0 0 1-1.73 1.62c-.62.479-1.29.889-2 1.22a10.214 10.214 0 0 1 1.73-1.62 9.902 9.902 0 0 1 2-1.22zM162.21 144.261a10.177 10.177 0 0 1-1.62-1.73 9.603 9.603 0 0 1-1.22-2 9.742 9.742 0 0 1 1.62 1.72c.478.624.887 1.298 1.22 2.01zM106.71 156.781a10.177 10.177 0 0 1-1.62-1.73 10.35 10.35 0 0 1-1.22-2 10.174 10.174 0 0 1 1.62 1.73 9.857 9.857 0 0 1 1.22 2zM155.46 171.671a9.707 9.707 0 0 1-1.62-1.72 10.614 10.614 0 0 1-1.22-2 10.174 10.174 0 0 1 1.62 1.73c.483.614.892 1.282 1.22 1.99zM131.03 129.221a10.114 10.114 0 0 1-1.62-1.72 10.927 10.927 0 0 1-1.22-2 9.742 9.742 0 0 1 1.62 1.72c.477.621.886 1.292 1.22 2zM131.46 180.151a10.177 10.177 0 0 1-1.62-1.73c-.48-.619-.889-1.29-1.22-2a9.777 9.777 0 0 1 1.62 1.72c.481.622.891 1.296 1.22 2.01zM135.61 150.111c-.6-.514-1.14-1.094-1.61-1.73a9.426 9.426 0 0 1-1.22-2 10.113 10.113 0 0 1 1.61 1.73 9.698 9.698 0 0 1 1.22 2z" fill="#fff"/><path d="M156.14 125.171c-3.77-.7-7.31-8.49-7.76-13.73 0-.36 1.76-3.21 3.77-6.78 1.22-2.17 2.51-4.62 3.54-6.94.21-.47 1.44 1.12 1.44 1.12l2.68 2 8.85 6.79a40.402 40.402 0 0 0-5.33 8.27 5.043 5.043 0 0 0-.32 1 1.206 1.206 0 0 0 0 .17c-.55 1.98-3.24 8.77-6.87 8.1z" fill="#FFC6A5"/><path d="M163.01 116.951a1.206 1.206 0 0 0 0 .17 9.886 9.886 0 0 1-1.53-.59c-9.69-4.54-5.42-17.52-5.42-17.52l3.8 1.88 8.85 6.79a40.402 40.402 0 0 0-5.33 8.27c-.159.32-.283.655-.37 1zM178.83 80.001s4.43 2.81 4.45 7.81c.02 5-2 9.89-2.42 10.07-.42.18-2.03-17.88-2.03-17.88z" fill="#032F2C"/><path d="M156.85 82.601c-2.66 5.25-2.52 21.8.8 26.06 4.82 6.18 14.1 8.31 19.71 2.2 5.43-5.92 4.87-27.48 1-31.5-5.63-5.94-17.57-4.53-21.51 3.24z" fill="#FFC6A5"/><path d="M170.97 95.851s-.09.06-.08.1c.06 1.13-.06 2.43-1.07 2.83v.06c1.25-.2 1.39-1.93 1.15-2.99z" fill="#032F2C"/><path d="M169.94 94.701c-1.82-.1-1.88 3.54-.19 3.63 1.69.09 1.71-3.55.19-3.63zM177.14 95.811s.09 0 .09.1c-.06 1.13.07 2.43 1.09 2.82v.06c-1.26-.19-1.41-1.92-1.18-2.98z" fill="#032F2C"/><path d="M178.17 94.651c1.81-.11 1.9 3.53.22 3.63-1.68.1-1.74-3.54-.22-3.63zM168.8 91.931a14.68 14.68 0 0 0 1.41-.48 2.4 2.4 0 0 0 1.36-.76.772.772 0 0 0-.11-.93 1.91 1.91 0 0 0-1.92-.23 2.83 2.83 0 0 0-1.64 1.19.832.832 0 0 0 .435 1.175.83.83 0 0 0 .465.035zM179.41 93.541a14.592 14.592 0 0 1-1.44-.4 2.4 2.4 0 0 1-1.39-.69.752.752 0 0 1 .06-.93 1.888 1.888 0 0 1 1.9-.33c.684.142 1.29.534 1.7 1.1a.817.817 0 0 1-.366 1.195.82.82 0 0 1-.464.055zM168.41 106.541c.27.27.53.63.94.67a3 3 0 0 0 1.22-.26s.07 0 0 .06a1.514 1.514 0 0 1-1.44.59 1.206 1.206 0 0 1-.88-1 .086.086 0 0 1 .002-.065.086.086 0 0 1 .158.005zM174.95 101.721s.05 1.68 0 2.47a16.488 16.488 0 0 0-4.61.16c-.36.08-.32-.21.09-.4a6.764 6.764 0 0 1 3.92-.52c.08-.21-.13-2.6 0-2.59.605.119 1.19.321 1.74.6 0-3.52-.56-7-.51-10.52 0-.12.19-.14.21 0a56.587 56.587 0 0 1 1 11.3c.01.43-1.54-.34-1.84-.5z" fill="#032F2C"/><path d="M172.7 103.591a4.997 4.997 0 0 1-2.1 2.51c-1.51.61-2-.76-.48-2a4.88 4.88 0 0 1 2.58-.51z" fill="#032F2C"/><path d="M171.13 105.791c-.16.13-.339.235-.53.31-1.39.56-1.94-.55-.82-1.67.76.06 1.63.34 1.35 1.36z" fill="#FF99BA"/><path d="M156.09 96.751c1.83.56 3.93-4.94 4.53-7 .52-1.86 1.12-7.77 1.21-8.18.09-.41 8 5.23 12.58 3.89 4.58-1.34 7.69-5.49 7.76-7.42.07-1.93-5.66-6.83-10.61-7.08-4.95-.25-11.66 6-11.66 6 .81-.92 1.546-1.903 2.2-2.94-.08-.22-3.28 1.06-3.87 3.34 0 0 .64-2.87.4-2.92-.24-.05-2.73 2.4-2.17 4.26 0 0-2.88 2.49-3.14 5.22-.26 2.73.62 12.17 2.77 12.83z" fill="#032F2C"/><path d="M177.69 84.421a15.21 15.21 0 0 1-4.35 1.56 10.329 10.329 0 0 1-5-.8 15.354 15.354 0 0 1-4.36-2.58c-1.15-.94-2.18-2.09-3.41-2.93-.31-.22-.66.23-.47.51a16.52 16.52 0 0 0 8.36 6.16 9.53 9.53 0 0 0 9.22-1.88s.03-.04.01-.04z" fill="#032F2C"/><path d="M158 96.261s-2.84-5.76-5.4-4.83c-2.56.93-1 8.9 1.63 10.36a2.848 2.848 0 0 0 4-.94l-.23-4.59z" fill="#FFC6A5"/><path d="M153.11 93.701s-.06 0 0 .08c1.82 1.08 2.56 3 3 5a1.573 1.573 0 0 0-1.62-.99 1.57 1.57 0 0 0-.64.21c-.06 0 0 .11 0 .11a1.75 1.75 0 0 1 1.81.9c.286.534.514 1.098.68 1.68.06.19.39.14.36-.07.43-2.49-.97-6.26-3.59-6.92z" fill="#032F2C"/><path d="M139.25 121.981c-2 11.33 10.28 49.5 18.15 56.63 11.71 10.6 33.36 17.57 41.21 19.84 3.42 1 12.88-23.07 9.42-24.66-7.41-3.37-30.43-10.57-32.62-12.37-2.19-1.8-15.39-20.87-21.27-31.85-7.87-14.78-13.9-13.32-14.89-7.59z" fill="#FFC6A5"/><path d="M202.2 171.671s10.22 2.61 16.81 4.62c3.68 1.13 9.82 3.62 12.15 5.68 3.48 3.09 16.06 18.21 12.46 21.34-3.26 2.84-12.42-11.53-12.42-11.53s10.52 13.68 6 16.37c-4.52 2.69-12.79-14.92-12.79-14.92s10.49 14.3 5.36 16.33c-3.88 1.53-12.2-14-12.2-14s8.94 12.35 5 14.1c-4.34 1.94-12.91-11.92-12.91-11.92-10.72 2.77-17-.3-21.13-3-.97-.66 13.67-23.07 13.67-23.07z" fill="#FFC6A5"/><path d="M227.86 186.811c1.3 1.56 2.62 3.14 3.77 4.81 1.15 1.67 2.24 3.39 3.23 5.16a34.671 34.671 0 0 1 3.2 7.26c-1.72-4.4-5.75-10.45-6.9-12.12-1.15-1.67-2.22-3.4-3.36-5.07-.03-.04.03-.08.06-.04zM221.75 190.862c2.22 1.76 6.87 8.3 8.66 12.69.08.18 0 .17-.13 0-1.4-2.17-7.08-10.57-8.58-12.66-.03-.03.02-.06.05-.03zM215.88 193.422a31.319 31.319 0 0 1 6.42 10c.07.18-.07.15-.18 0-2.07-3.37-3.67-6-6.35-9.91-.04-.09.05-.18.11-.09z" fill="#032F2C"/><path d="M150.41 122.811c-9.13-12.91-14.59-8.13-12.76 5.89 1.72 13.11 6.31 28.73 6.31 28.73l23-11.16s-10.74-15.19-16.55-23.46z" fill="#28AFA7"/><path d="M155.96 127.891c.303.73.521 1.491.65 2.27a10.4 10.4 0 0 1 .15 2.37 10.32 10.32 0 0 1-.64-2.28 9.775 9.775 0 0 1-.16-2.36zM142.33 135.741a11 11 0 0 1 4.63-.8c-.73.3-1.491.515-2.27.64a9.728 9.728 0 0 1-2.36.16zM142.92 115.661a11.149 11.149 0 0 1-2.71 3.85 11.158 11.158 0 0 1 2.71-3.85zM162.41 141.771a10.419 10.419 0 0 1-1.15 2.07c-.449.653-.972 1.25-1.56 1.78a11.158 11.158 0 0 1 2.71-3.85zM146.41 149.601a10 10 0 0 1-2.07-1.15 10.015 10.015 0 0 1-1.78-1.56c.731.306 1.425.691 2.07 1.15.652.449 1.25.972 1.78 1.56z" fill="#fff"/><path d="M153.41 126.701c1.23 1.69 2.5 3.34 3.76 5-.32-.84-.6-1.69-.84-2.55h.06c.25.66.54 1.31.78 2l.36 1c.031.068.058.139.08.21 1 1.29 2 2.58 2.92 3.9 1.13 1.58 2.22 3.18 3.32 4.78 1.1 1.6 2.21 3.59 3.4 5.2.11.14-2 1-2.23 1.11-.23.11-.35-.08-.13-.15.22-.07 1.9-1.1 1.92-1.12-1.1-1.62-2.37-3.11-3.52-4.68-1.15-1.57-2.29-3.14-3.4-4.73-2.25-3.24-4.31-6.6-6.55-9.85l.07-.12zM138.19 137.981c.35.68.73 1.35 1 2.05l.38.87c-.53-2.49-1-5-1.55-7.49 1.06 4 2.13 8.09 3.11 12.15.93 3.88 2.06 7.8 2.6 11.76a13.04 13.04 0 0 1 2.16-.73c-.743.481-1.542.867-2.38 1.15a124.877 124.877 0 0 1-3-12.24c-.25-1.12-.48-2.24-.72-3.36-.26-.68-.57-1.33-.88-2-.31-.67-.59-1.42-.87-2.13.06-.04.13-.08.15-.03z" fill="#032F2C"/><path d="M144.3 153.571c3.2-1.8 16.57-8.72 19.56-10 .21-.09.32 0 .11.14a201.41 201.41 0 0 1-19.6 10c-.08.02-.16-.09-.07-.14z" fill="#032F2C"/><path d="M510.73 416.472H206.05l44.05-249.85h304.68l-44.05 249.85zM354.38 140.741h-99.71l-4.57 25.88h106.72l-2.44-25.88z" fill="#28AFA7"/><g opacity=".1" fill="#000"><path d="M510.73 416.472H206.05l44.05-249.85h304.68l-44.05 249.85zM354.38 140.741h-99.71l-4.57 25.88h106.72l-2.44-25.88z"/></g><path d="M243.91 151.302a19.163 19.163 0 0 1 0-8.7 19.163 19.163 0 0 1 0 8.7zM235.05 153.862a17.03 17.03 0 0 1-2.61-3.52 17.413 17.413 0 0 1-1.75-4 16.543 16.543 0 0 1 2.61 3.51 17.554 17.554 0 0 1 1.75 4.01zM228.65 160.512a19.193 19.193 0 0 1-7.53-4.35c1.402.407 2.746.992 4 1.74a17.583 17.583 0 0 1 3.53 2.61zM226.41 169.472a19.191 19.191 0 0 1-8.7 0 19.163 19.163 0 0 1 8.7 0zM229.01 178.332a17.701 17.701 0 0 1-3.52 2.61 17.216 17.216 0 0 1-4 1.74 16.96 16.96 0 0 1 3.52-2.61 16.75 16.75 0 0 1 4-1.74zM235.65 184.722a19.132 19.132 0 0 1-4.35 7.54 16.826 16.826 0 0 1 1.75-4 17.3 17.3 0 0 1 2.6-3.54zM244.61 186.932c.349 1.423.517 2.884.5 4.35a16.963 16.963 0 0 1-.5 4.35 16.612 16.612 0 0 1-.5-4.35 17.411 17.411 0 0 1 .5-4.35zM253.47 184.422a16.969 16.969 0 0 1 2.61 3.52 16.813 16.813 0 0 1 1.74 4 19.132 19.132 0 0 1-4.35-7.54v.02zM259.86 177.722a16.75 16.75 0 0 1 4 1.74 16.96 16.96 0 0 1 3.52 2.61 16.831 16.831 0 0 1-4-1.74 17.03 17.03 0 0 1-3.52-2.61zM262.07 168.762a19.207 19.207 0 0 1 8.71 0 19.235 19.235 0 0 1-8.71 0zM259.51 159.902a17.293 17.293 0 0 1 3.52-2.6 16.4 16.4 0 0 1 4-1.75 19.144 19.144 0 0 1-7.54 4.35h.02zM252.86 153.512a17.575 17.575 0 0 1 1.74-4 17.03 17.03 0 0 1 2.61-3.52 16.831 16.831 0 0 1-1.74 4 16.995 16.995 0 0 1-2.61 3.52z" fill="#032F2C"/><path d="M510.28 416.471H204.94l-43.35-240.78h305.34l43.35 240.78z" fill="#28AFA7"/><path d="M267.4 322.881c7.009 0 12.69-5.681 12.69-12.69 0-7.008-5.681-12.69-12.69-12.69-7.008 0-12.69 5.682-12.69 12.69 0 7.009 5.682 12.69 12.69 12.69zM367.72 322.881c7.009 0 12.69-5.681 12.69-12.69 0-7.008-5.681-12.69-12.69-12.69-7.008 0-12.69 5.682-12.69 12.69 0 7.009 5.682 12.69 12.69 12.69zM335.79 324.912l-.7-1.33c-.06-.12-6.62-12.24-19.81-12.24-12 0-15 11.41-15.08 11.9l-.36 1.45-2.91-.7.35-1.46c0-.14 3.58-14.19 18-14.19 15 0 22.17 13.28 22.47 13.85l.7 1.32-2.66 1.4z" fill="#032F2C"/><path d="M490.02 308.731c.65-.14 1.3-.29 1.94-.45" stroke="#032F2C" stroke-miterlimit="10"/><path d="M495.8 307.141c15.3-5.17 28.11-17.2 29.31-31.26 2.66-31-35.09-48.12-31.19-83.94 3.72-34.17 39.56-36.61 53.93-31.89 15.87 5.22 10.43 20.47-3.94 18.5-24.91-3.41-40.57-30.49-28.74-61.21 8.84-22.95 30.88-31.61 39.83-34.25" stroke="#032F2C" stroke-miterlimit="10" stroke-dasharray="4 4"/><path d="M556.93 82.561c1.23-.32 1.94-.45 1.94-.45" stroke="#032F2C" stroke-miterlimit="10"/><path d="M574.73 76.582c-2.55-7.9-19.63-5.06-16.3 5.27 3.33 10.33 18.85 2.64 16.3-5.27z" fill="#032F2C"/><path d="M549.14 73.421c.13-3.47 4.95-6.14 11.77-4.91 6.82 1.23 13.23 5.83 13.23 5.83s-6.73 4.08-13.62 4.83c-6.89.75-11.51-2.29-11.38-5.75z" fill="#EBEBEB"/><path d="M574.14 74.322c-3.54 0-7.07-.1-10.6-.21-3.53-.11-7.07-.29-10.6-.57 3.54 0 7.08.09 10.61.2 3.53.11 7.07.29 10.59.58z" fill="#032F2C"/><path d="M555.99 70.332a29.733 29.733 0 0 1 5.65 3.53 26.61 26.61 0 0 1-2.92-1.6 28.647 28.647 0 0 1-2.73-1.93zM565.26 73.992a32.477 32.477 0 0 1-5.85 3.78 32.465 32.465 0 0 1 5.88-3.78h-.03zM566.29 72.041a7.245 7.245 0 0 1 2.58 2.08 6.86 6.86 0 0 1-1.41-.89 7.31 7.31 0 0 1-1.17-1.19z" fill="#032F2C"/><path d="M555.64 93.972c2.13 2.74 7.6 2.08 12.41-2.9 4.81-4.98 7.36-12.47 7.36-12.47s-7.88.6-13.89 4c-6.01 3.4-8.02 8.62-5.88 11.37z" fill="#EBEBEB"/><path d="M575.41 78.602c-2.88 2-5.68 4.22-8.49 6.37-2.81 2.15-5.56 4.37-8.25 6.66 2.88-2 5.68-4.21 8.48-6.36 2.8-2.15 5.53-4.37 8.26-6.67z" fill="#032F2C"/><path d="M562.99 92.421a28.455 28.455 0 0 0 1.43-3c.425-1.03.786-2.085 1.08-3.16a27.72 27.72 0 0 0-1.43 3 28.611 28.611 0 0 0-1.08 3.16zM568.41 84.061a33.07 33.07 0 0 0-7 .37c1.166.07 2.334.07 3.5 0a31.084 31.084 0 0 0 3.5-.37zM570.34 85.052a7.177 7.177 0 0 0 .62-1.56 7.493 7.493 0 0 0 .26-1.65 7.452 7.452 0 0 0-.88 3.21z" fill="#032F2C"/><path d="M574.73 76.581a3.001 3.001 0 0 1-3.597-4.22 3.001 3.001 0 0 1 5.527.45 2.997 2.997 0 0 1-1.93 3.77z" fill="#455A64"/><path d="M576.57 82.291a2.999 2.999 0 0 1-2.387-5.472 2.996 2.996 0 0 1 3.322.263 2.998 2.998 0 0 1 .088 4.639c-.3.255-.648.45-1.023.57z" fill="#455A64"/><path d="M364.614 67.351c-1.553 9.404-7.212 18.35-16.346 25.841-9.133 7.491-21.382 13.231-35.379 16.579-13.997 3.349-29.192 4.175-43.889 2.386-14.696-1.789-28.317-6.123-39.342-12.518l-40.415 3.747 20.224-22.071c-4.625-7.182-6.598-14.935-5.77-22.67.828-7.735 4.436-15.25 10.55-21.972 6.114-6.723 14.572-12.477 24.733-16.826 10.161-4.348 21.757-7.176 33.907-8.27 12.15-1.093 24.535-.423 36.214 1.96 11.679 2.382 22.345 6.415 31.187 11.792 8.843 5.376 15.629 11.955 19.844 19.237 4.215 7.281 5.748 15.074 4.482 22.785z" fill="#fff"/><path d="M364.614 67.351c-1.52 9.4-7.129 18.35-16.205 25.859-4.435 3.798-9.782 7.134-15.849 9.889-5.934 2.857-12.481 5.167-19.446 6.859-6.968 1.733-14.29 2.836-21.747 3.275-3.728.212-7.475.26-11.214.144-3.752-.061-7.49-.308-11.181-.737-14.895-1.732-28.733-6.049-39.962-12.469l.94.184-40.351 3.911-2.949.286 1.491-1.637 20.094-22.112v.88c-4.741-7.314-6.757-15.219-5.892-23.104.866-7.885 4.589-15.538 10.883-22.369 6.287-6.809 14.929-12.632 25.28-17.034 10.335-4.343 22.092-7.152 34.39-8.216 12.298-1.064 24.818-.355 36.621 2.074 11.677 2.51 22.319 6.637 31.146 12.08 8.807 5.429 15.542 12.054 19.691 19.372 4.15 7.319 5.607 15.138 4.26 22.865zm0 0c1.309-7.689-.196-15.465-4.399-22.728-4.204-7.264-10.993-13.82-19.845-19.162-8.851-5.342-19.527-9.328-31.205-11.65-11.677-2.321-24.043-2.916-36.142-1.74-11.978 1.12-23.388 3.964-33.35 8.313-9.876 4.383-18.126 10.07-24.178 16.666-5.959 6.611-9.471 13.989-10.274 21.58-.789 7.641 1.161 15.298 5.704 22.398l.292.45-.389.43-20.353 22.03-1.426-1.351 40.447-3.583h.551l.389.225c10.812 6.357 24.211 10.689 38.698 12.51 3.61.464 7.273.745 10.954.839 3.68.164 7.373.164 11.052 0 7.379-.375 14.642-1.388 21.585-3.009 6.959-1.601 13.511-3.836 19.446-6.634 6.042-2.732 11.396-6.025 15.881-9.766 9.193-7.473 14.926-16.41 16.562-25.818z" fill="#032F2C"/><g filter="url(#b)"><path d="M252.349 35.617c.384-.066.792-.125 1.225-.175.45-.066.892-.117 1.325-.15.45-.033.884-.058 1.3-.075.417-.017.8-.025 1.15-.025.817 0 1.617.075 2.4.225.8.15 1.509.408 2.125.775a3.987 3.987 0 0 1 1.5 1.525c.384.633.575 1.434.575 2.4 0 1.434-.333 2.6-1 3.5-.666.9-1.558 1.525-2.675 1.875l1.225.775 4 6.675h-3.95l-3.975-6.85-1.8-.325v7.175h-3.425V35.617zm5.25 2.625c-.35 0-.7.009-1.05.025-.333.017-.591.05-.775.1v5.075h1.45c.95 0 1.709-.217 2.275-.65.567-.433.85-1.15.85-2.15 0-.75-.233-1.333-.7-1.75-.466-.433-1.15-.65-2.05-.65zm18.518 13.625c-.5.4-1.183.742-2.05 1.025-.85.267-1.758.4-2.725.4-2.017 0-3.492-.583-4.425-1.75-.933-1.183-1.4-2.8-1.4-4.85 0-2.2.525-3.85 1.575-4.95 1.05-1.1 2.525-1.65 4.425-1.65.633 0 1.25.084 1.85.25.6.167 1.133.442 1.6.825.467.383.842.9 1.125 1.55.283.65.425 1.459.425 2.425 0 .35-.025.725-.075 1.125-.033.4-.092.817-.175 1.25h-7.5c.05 1.05.317 1.842.8 2.375.5.533 1.3.8 2.4.8.683 0 1.292-.1 1.825-.3.55-.217.967-.433 1.25-.65l1.075 2.125zm-4.65-9.175c-.85 0-1.483.258-1.9.775-.4.5-.642 1.175-.725 2.025h4.65c.067-.9-.075-1.591-.425-2.075-.333-.483-.867-.725-1.6-.725zm12.52 6.8c0-.333-.141-.6-.425-.8a5.104 5.104 0 0 0-1.05-.55 24.903 24.903 0 0 0-1.375-.5 5.7 5.7 0 0 1-1.375-.725 4.208 4.208 0 0 1-1.05-1.175c-.283-.483-.425-1.1-.425-1.85 0-1.233.367-2.175 1.1-2.825.734-.65 1.792-.975 3.175-.975.95 0 1.809.1 2.575.3.767.2 1.367.425 1.8.675l-.725 2.35c-.383-.15-.866-.308-1.45-.475a6.432 6.432 0 0 0-1.775-.25c-.966 0-1.45.375-1.45 1.125 0 .3.142.542.425.725.284.183.634.358 1.05.525.417.15.875.317 1.375.5.5.184.959.425 1.375.725a3.58 3.58 0 0 1 1.05 1.125c.284.467.425 1.067.425 1.8 0 1.267-.408 2.267-1.225 3-.8.717-2.008 1.075-3.625 1.075a8.717 8.717 0 0 1-2.5-.35c-.766-.217-1.391-.475-1.875-.775l.9-2.425c.384.217.892.434 1.525.65.634.2 1.284.3 1.95.3.484 0 .867-.092 1.15-.275.3-.183.45-.492.45-.925zm8.497-9.05v7.1c0 1.017.117 1.75.35 2.2.25.45.725.675 1.425.675.617 0 1.125-.183 1.525-.55.417-.366.725-.816.925-1.35v-8.075h3.25v8.7c0 .683.034 1.358.1 2.025.067.65.167 1.242.3 1.775h-2.45l-.575-1.85h-.1a4.662 4.662 0 0 1-1.6 1.575c-.683.417-1.491.625-2.425.625-.633 0-1.2-.083-1.7-.25a2.796 2.796 0 0 1-1.25-.825c-.333-.383-.591-.9-.775-1.55-.166-.65-.25-1.467-.25-2.45v-7.775h3.25zm13.677 8.3c0 .584.075 1.009.225 1.275.15.267.392.4.725.4.2 0 .392-.017.575-.05.2-.033.442-.108.725-.225l.35 2.55c-.266.133-.675.267-1.225.4s-1.116.2-1.7.2c-.95 0-1.675-.217-2.175-.65-.5-.45-.75-1.183-.75-2.2v-15h3.25v13.3zm2.699-8.3h1.725v-2.35l3.25-.925v3.275h3.05v2.75h-3.05v4.8c0 .867.083 1.492.25 1.875.183.367.517.55 1 .55.333 0 .617-.033.85-.1a5.61 5.61 0 0 0 .825-.3l.575 2.5c-.45.217-.975.4-1.575.55-.6.15-1.208.225-1.825.225-1.15 0-2-.291-2.55-.875-.533-.6-.8-1.575-.8-2.925v-6.3h-1.725v-2.75zm-70.017 42.5v-7.1c0-1.016-.15-1.75-.45-2.2-.284-.45-.775-.675-1.475-.675-.617 0-1.142.183-1.575.55a2.94 2.94 0 0 0-.9 1.325v8.1h-3.25v-12.5h2.575l.375 1.65h.1c.383-.533.891-1 1.525-1.4.633-.4 1.45-.6 2.45-.6.616 0 1.166.084 1.65.25.483.167.891.442 1.225.825.333.383.583.909.75 1.575.166.65.25 1.459.25 2.425v7.775h-3.25zm5.373-6.25c0-2.116.517-3.741 1.55-4.875 1.033-1.15 2.483-1.725 4.35-1.725 1 0 1.867.159 2.6.475a4.799 4.799 0 0 1 1.825 1.35c.483.567.842 1.258 1.075 2.075.25.817.375 1.717.375 2.7 0 2.117-.517 3.75-1.55 4.9-1.017 1.133-2.458 1.7-4.325 1.7-1 0-1.867-.158-2.6-.475a5.154 5.154 0 0 1-1.85-1.325c-.483-.583-.85-1.283-1.1-2.1-.233-.816-.35-1.716-.35-2.7zm3.35 0c0 .55.05 1.059.15 1.525.1.467.25.875.45 1.225.2.35.458.625.775.825.333.184.725.275 1.175.275.85 0 1.483-.308 1.9-.925.417-.617.625-1.592.625-2.925 0-1.15-.192-2.075-.575-2.775-.383-.716-1.033-1.075-1.95-1.075-.8 0-1.425.3-1.875.9-.45.6-.675 1.584-.675 2.95zm9.378-6.25h1.725v-2.35l3.25-.925v3.275h3.05v2.75h-3.05v4.8c0 .867.083 1.492.25 1.875.183.367.516.55 1 .55.333 0 .616-.033.85-.1a5.61 5.61 0 0 0 .825-.3l.575 2.5c-.45.217-.975.4-1.575.55a7.5 7.5 0 0 1-1.825.225c-1.15 0-2-.291-2.55-.875-.534-.6-.8-1.575-.8-2.925v-6.3h-1.725v-2.75zm16.414-5h10.375v3.05h-6.95v4.325h6.4v3.05h-6.4v7.075h-3.425v-17.5zm12.02 11.25c0-2.116.517-3.741 1.55-4.875 1.033-1.15 2.483-1.725 4.35-1.725 1 0 1.867.159 2.6.475a4.799 4.799 0 0 1 1.825 1.35c.483.567.842 1.258 1.075 2.075.25.817.375 1.717.375 2.7 0 2.117-.517 3.75-1.55 4.9-1.017 1.133-2.458 1.7-4.325 1.7-1 0-1.867-.158-2.6-.475a5.154 5.154 0 0 1-1.85-1.325c-.483-.583-.85-1.283-1.1-2.1-.233-.816-.35-1.716-.35-2.7zm3.35 0c0 .55.05 1.059.15 1.525.1.467.25.875.45 1.225.2.35.458.625.775.825.333.184.725.275 1.175.275.85 0 1.483-.308 1.9-.925.417-.617.625-1.592.625-2.925 0-1.15-.192-2.075-.575-2.775-.383-.716-1.033-1.075-1.95-1.075-.8 0-1.425.3-1.875.9-.45.6-.675 1.584-.675 2.95zm13.803-6.25v7.1c0 1.017.116 1.75.35 2.2.25.45.725.675 1.425.675.616 0 1.125-.183 1.525-.55.416-.367.725-.817.925-1.35v-8.075h3.25v8.7c0 .684.033 1.359.1 2.025.066.65.166 1.242.3 1.775h-2.45l-.575-1.85h-.1a4.68 4.68 0 0 1-1.6 1.575c-.684.417-1.492.625-2.425.625-.634 0-1.2-.083-1.7-.25a2.79 2.79 0 0 1-1.25-.825c-.334-.383-.592-.9-.775-1.55-.167-.65-.25-1.466-.25-2.45v-7.775h3.25zm17.977 12.5v-7.1c0-1.016-.15-1.75-.45-2.2-.283-.45-.775-.675-1.475-.675-.617 0-1.142.183-1.575.55a2.94 2.94 0 0 0-.9 1.325v8.1h-3.25v-12.5h2.575l.375 1.65h.1c.383-.533.892-1 1.525-1.4.633-.4 1.45-.6 2.45-.6.617 0 1.167.084 1.65.25a2.81 2.81 0 0 1 1.225.825c.333.383.583.909.75 1.575.167.65.25 1.459.25 2.425v7.775h-3.25zm16.598-4.4c0 .7.008 1.4.025 2.1.017.7.092 1.475.225 2.325h-2.325l-.45-1.625h-.1c-.333.584-.817 1.058-1.45 1.425-.617.35-1.35.525-2.2.525-1.567 0-2.783-.517-3.65-1.55s-1.3-2.65-1.3-4.85c0-2.133.483-3.791 1.45-4.975.967-1.183 2.383-1.775 4.25-1.775.517 0 .942.034 1.275.1.333.05.667.142 1 .275v-5.075h3.25v13.1zm-5.525 2c.633 0 1.133-.15 1.5-.45.367-.317.625-.766.775-1.35v-5.3a2.29 2.29 0 0 0-.775-.4c-.283-.1-.65-.15-1.1-.15-.917 0-1.608.309-2.075.925-.45.617-.675 1.675-.675 3.175 0 1.067.183 1.925.55 2.575.383.65.983.975 1.8.975z" fill="#096761"/><path d="m252.349 35.617-.342-1.97-1.658.288v1.682h2zm1.225-.175.23 1.987.032-.004.031-.005-.293-1.978zm1.325-.15-.147-1.994h-.006l.153 1.994zm1.3-.075-.08-1.998.08 1.998zm3.55.2-.376 1.965h.008l.368-1.965zm2.125.775-1.022 1.72.01.005.01.006 1.002-1.73zm1.5 1.525-1.742.983.015.026.016.027 1.711-1.036zm-.425 5.9-1.607-1.19 1.607 1.19zm-2.675 1.875-.598-1.908-4.119 1.29 3.648 2.308 1.069-1.69zm1.225.775 1.716-1.028-.245-.408-.401-.254-1.07 1.69zm4 6.675v2h3.53l-1.814-3.028-1.716 1.028zm-3.95 0-1.729 1.004.578.996h1.151v-2zm-3.975-6.85 1.73-1.004-.464-.8-.91-.164-.356 1.968zm-1.8-.325.356-1.968-2.356-.425v2.393h2zm0 7.175v2h2v-2h-2zm-3.425 0h-2v2h2v-2zm4.2-14.675-.095-1.998h-.005l.1 1.998zm-.775.1-.526-1.93-1.474.403v1.527h2zm0 5.075h-2v2h2v-2zm3.875-4.55-1.361 1.466.015.013.014.013 1.332-1.492zm-6.957-1.304c.342-.06.712-.113 1.112-.159l-.459-3.974c-.467.054-.913.118-1.338.192l.685 3.94zm1.175-.168c.406-.06.801-.104 1.186-.134l-.307-3.988c-.482.037-.971.093-1.465.166l.586 3.956zm1.18-.133c.429-.032.84-.056 1.232-.072l-.16-3.996c-.441.017-.897.044-1.367.079l.295 3.989zm1.232-.072c.395-.015.751-.023 1.07-.023v-4c-.381 0-.791.01-1.23.027l.16 3.996zm1.07-.023c.694 0 1.368.064 2.024.19l.753-3.93a14.746 14.746 0 0 0-2.777-.26v4zm2.032.19c.6.113 1.081.297 1.471.53l2.045-3.439c-.844-.502-1.779-.834-2.779-1.022l-.737 3.932zm1.491.541c.318.184.566.431.76.777l3.484-1.966a5.99 5.99 0 0 0-2.24-2.273l-2.004 3.462zm.791.83c.145.239.286.653.286 1.364h4c0-1.222-.242-2.408-.864-3.435l-3.422 2.07zm.286 1.364c0 1.125-.259 1.84-.607 2.31l3.214 2.38c.986-1.33 1.393-2.949 1.393-4.69h-4zm-.607 2.31c-.403.544-.934.927-1.666 1.157l1.197 3.817c1.501-.47 2.753-1.338 3.683-2.593l-3.214-2.381zm-2.137 4.755 1.225.775 2.139-3.38-1.225-.775-2.139 3.38zm.579.113 4 6.675 3.431-2.056-4-6.675-3.431 2.056zm5.715 3.647h-3.95v4h3.95v-4zm-2.22.996-3.975-6.85-3.459 2.008 3.975 6.85 3.459-2.008zm-5.349-7.814-1.8-.325-.711 3.936 1.8.325.711-3.936zm-4.156 1.643v7.175h4v-7.175h-4zm2 5.175h-3.425v4h3.425v-4zm-1.425 2V35.617h-4v17.325h4zm3.25-16.7c-.381 0-.763.01-1.145.027l.19 3.996c.319-.015.637-.023.955-.023v-4zm-1.15.028c-.386.019-.812.061-1.201.168l1.053 3.859c-.023.006-.008 0 .061-.009.065-.008.159-.017.287-.023l-.2-3.995zm-2.675 2.097v5.075h4v-5.075h-4zm2 7.075h1.45v-4h-1.45v4zm1.45 0c1.244 0 2.475-.285 3.49-1.061l-2.43-3.178c-.117.09-.404.24-1.06.24v4zm3.49-1.061c1.24-.948 1.635-2.382 1.635-3.739h-4c0 .32-.046.486-.072.552-.019.049-.021.031.007.01l2.43 3.177zm1.635-3.739c0-1.196-.392-2.37-1.368-3.242l-2.664 2.984c.005.004.003.003 0-.001-.003-.005-.003-.006 0 .002a.729.729 0 0 1 .032.257h4zm-1.339-3.216c-.965-.896-2.214-1.184-3.411-1.184v4c.604 0 .722.146.689.116l2.722-2.931zm15.107 14.441 1.25 1.562 1.268-1.015-.733-1.45-1.785.903zm-2.05 1.025.599 1.908.011-.003.012-.004-.622-1.9zm-7.15-1.35-1.57 1.239.008.01 1.562-1.249zm.175-9.8-1.447-1.38 1.447 1.38zm6.275-1.4-.535 1.927.535-1.927zm2.725 2.375 1.834-.799-1.834.8zm.35 3.55-1.984-.248-.006.041-.003.041 1.993.166zm-.175 1.25v2h1.652l.312-1.622-1.964-.378zm-7.5 0v-2h-2.097l.099 2.095 1.998-.095zm.8 2.375-1.482 1.343.012.013.011.012 1.459-1.368zm4.225.5.702 1.873.016-.006.015-.006-.733-1.86zm1.25-.65 1.785-.903-1.087-2.148-1.913 1.462 1.215 1.59zm-5.475-6.275-1.557-1.255-.005.006 1.562 1.25zm-.725 2.025-1.99-.195-.216 2.195h2.206v-2zm4.65 0v2h1.857l.138-1.852-1.995-.148zm-.425-2.075-1.646 1.136.013.019.013.018 1.62-1.173zm1.801 6.888c-.252.202-.695.448-1.422.686l1.243 3.802c1.005-.329 1.929-.765 2.678-1.364l-2.499-3.124zm-1.4.679a7.05 7.05 0 0 1-2.126.308v4c1.153 0 2.264-.16 3.324-.492l-1.198-3.816zm-2.126.308c-1.636 0-2.431-.46-2.863-1l-3.124 2.5c1.435 1.793 3.59 2.5 5.987 2.5v-4zm-2.855-.988c-.569-.723-.97-1.85-.97-3.612h-4c0 2.339.533 4.444 1.83 6.089l3.14-2.477zm-.97-3.612c0-1.914.459-2.979 1.022-3.569l-2.894-2.762c-1.536 1.61-2.128 3.846-2.128 6.331h4zm1.022-3.569c.583-.61 1.48-1.03 2.978-1.03v-4c-2.301 0-4.355.679-5.872 2.268l2.894 2.762zm2.978-1.03c.456 0 .892.059 1.315.176l1.07-3.854a8.877 8.877 0 0 0-2.385-.323v4zm1.315.176c.34.095.621.243.866.444l2.539-3.091a6.302 6.302 0 0 0-2.335-1.207l-1.07 3.854zm.866.444c.183.15.382.393.561.803l3.667-1.598c-.388-.89-.939-1.68-1.689-2.296l-2.539 3.09zm.561.803c.141.324.258.84.258 1.626h4c0-1.148-.166-2.248-.591-3.224l-3.667 1.598zm.258 1.626c0 .256-.018.547-.059.877l3.969.496c.058-.47.09-.929.09-1.373h-4zm-.068.959a9.914 9.914 0 0 1-.146 1.038l3.928.756c.096-.497.164-.984.204-1.462l-3.986-.332zm1.818-.584h-7.5v4h7.5v-4zm-9.498 2.095c.063 1.306.406 2.619 1.316 3.623l2.964-2.686c-.056-.062-.246-.333-.284-1.127l-3.996.19zm1.339 3.648c1.034 1.102 2.484 1.432 3.859 1.432v-4c-.825 0-.974-.203-.941-.168l-2.918 2.736zm3.859 1.432c.877 0 1.73-.128 2.527-.427l-1.404-3.745c-.269.1-.633.172-1.123.172v4zm2.558-.439c.625-.246 1.237-.543 1.732-.922l-2.43-3.178c-.071.055-.293.191-.768.378l1.466 3.722zm-1.267-1.608 1.075 2.125 3.569-1.806-1.075-2.125-3.569 1.806zm-1.791-9.953c-1.27 0-2.558.405-3.457 1.52l3.114 2.51a.074.074 0 0 1-.016.015c-.009.006-.01.006.002 0 .026-.01.13-.045.357-.045v-4zm-3.462 1.526c-.71.888-1.045 1.97-1.153 3.079l3.981.39c.057-.59.206-.858.296-.97l-3.124-2.5zm.837 5.274h4.65v-4h-4.65v4zm6.645-1.852c.084-1.139-.062-2.377-.8-3.396l-3.24 2.346c-.038-.052.1.093.051.754l3.989.296zm-.773-3.358c-.801-1.16-2.04-1.59-3.247-1.59v4c.152 0 .174.026.125.003a.432.432 0 0 1-.171-.142l3.293-2.271zm8.848 6.41-1.153 1.634 1.153-1.634zm-1.05-.55L281.77 50l.742-1.857zm-1.375-.5-.688 1.878.028.01.028.01.632-1.898zm-1.375-.725-1.21 1.593.021.015.021.015 1.168-1.623zm-1.05-1.175-1.725 1.012.008.013.008.013 1.709-1.038zm.675-4.675-1.326-1.497 1.326 1.497zm5.75-.675.505-1.935-.505 1.935zm1.8.675 1.912.59.47-1.525-1.382-.797-1 1.732zm-.725 2.35-.728 1.863 2.005.784.635-2.057-1.912-.59zm-1.45-.475-.549 1.923.549-1.923zm-2.8 1.6 1.087-1.679-1.087 1.68zm1.05.525-.742 1.857.032.013.033.012.677-1.882zm2.75 1.225-1.168 1.623.022.016.022.015 1.124-1.654zm1.05 1.125-1.709 1.038 1.709-1.038zm-.8 4.8 1.335 1.49.002-.002-1.337-1.488zm-6.125.725.571-1.917-.013-.004-.014-.004-.544 1.925zm-1.875-.775-1.875-.696-.568 1.533 1.389.862 1.054-1.699zm.9-2.425.985-1.741-2.043-1.155-.817 2.2 1.875.696zm1.525.65-.647 1.892.023.008.022.007.602-1.907zm3.1.025-1.042-1.706-.022.013-.022.014 1.086 1.68zm2.45-.925a2.93 2.93 0 0 0-1.271-2.434l-2.307 3.268a1.004 1.004 0 0 1-.294-.346 1.063 1.063 0 0 1-.128-.488h4zm-1.271-2.434a7.098 7.098 0 0 0-1.461-.773L281.77 50c.311.125.514.239.639.327l2.307-3.268zm-1.461-.773a26.77 26.77 0 0 0-1.485-.54l-1.265 3.794c.469.157.89.31 1.265.46l1.485-3.714zm-1.429-.52a3.697 3.697 0 0 1-.895-.47l-2.337 3.245c.57.41 1.19.736 1.855.98l1.377-3.756zm-.853-.44a2.183 2.183 0 0 1-.551-.62l-3.419 2.075a6.191 6.191 0 0 0 1.549 1.73l2.421-3.185zm-.535-.594c-.053-.09-.151-.328-.151-.839h-4c0 .99.186 1.985.7 2.862l3.451-2.023zm-.151-.839c0-.82.228-1.152.427-1.328l-2.653-2.994c-1.268 1.124-1.774 2.676-1.774 4.322h4zm.427-1.328c.241-.214.754-.472 1.848-.472v-4c-1.672 0-3.276.392-4.501 1.478l2.653 2.994zm1.848-.472c.813 0 1.498.086 2.071.235l1.009-3.87c-.96-.25-1.992-.365-3.08-.365v4zm2.071.235c.681.178 1.09.348 1.305.473l1.999-3.465c-.651-.376-1.443-.656-2.295-.878l-1.009 3.87zm.393-1.85-.725 2.35 3.823 1.18.725-2.35-3.823-1.18zm1.915 1.078a18.494 18.494 0 0 0-1.629-.536l-1.099 3.846c.548.157.967.296 1.271.415l1.457-3.725zm-1.629-.536a8.432 8.432 0 0 0-2.325-.327v4c.413 0 .819.057 1.226.173l1.099-3.846zm-2.325-.327c-.686 0-1.569.124-2.313.701-.841.652-1.137 1.586-1.137 2.424h4c0 .025-.003.14-.071.297-.073.17-.193.326-.34.44-.261.202-.419.138-.139.138v-4zm-3.45 3.125c0 1.073.57 1.907 1.339 2.404l2.173-3.358c.067.044.204.15.32.349.122.208.168.426.168.605h-4zm1.339 2.404c.421.273.894.503 1.394.703l1.485-3.714a4.2 4.2 0 0 1-.706-.347l-2.173 3.358zm1.459.728c.412.148.867.314 1.364.496l1.377-3.756c-.503-.184-.965-.352-1.386-.504l-1.355 3.764zm1.364.496c.335.123.631.28.895.47l2.337-3.246a7.704 7.704 0 0 0-1.855-.98l-1.377 3.756zm.939.501c.16.11.318.267.465.51l3.419-2.077a5.578 5.578 0 0 0-1.635-1.74l-2.249 3.307zm.465.51c.039.063.134.272.134.761h4c0-.977-.187-1.968-.715-2.838l-3.419 2.076zm.134.761c0 .796-.233 1.218-.561 1.512l2.673 2.976c1.306-1.172 1.888-2.75 1.888-4.488h-4zm-.559 1.51c-.286.257-.925.565-2.291.565v4c1.868 0 3.646-.408 4.96-1.585l-2.669-2.98zm-2.291.565a6.724 6.724 0 0 1-1.929-.267l-1.142 3.834c.983.293 2.01.433 3.071.433v-4zm-1.956-.275c-.652-.184-1.089-.378-1.364-.55l-2.109 3.4c.691.429 1.505.75 2.386 1l1.087-3.85zm-.544 1.846.9-2.425-3.75-1.392-.9 2.425 3.75 1.392zm-1.959-1.38c.531.3 1.166.563 1.862.802l1.295-3.785c-.57-.195-.952-.366-1.188-.499l-1.969 3.482zm1.907.816a8.436 8.436 0 0 0 2.552.393v-4c-.463 0-.91-.069-1.347-.207l-1.205 3.814zm2.552.393c.711 0 1.518-.13 2.237-.596l-2.173-3.358c.078-.05.129-.062.121-.06a1.283 1.283 0 0 1-.185.014v4zm2.193-.568c1.039-.635 1.407-1.69 1.407-2.632h-4c0-.009.002-.138.089-.319.097-.198.251-.36.419-.462l2.085 3.413zm7.904-11.682h2v-2h-2v2zm.35 9.3-1.775.92.013.026.014.025 1.748-.97zm2.95.125-1.321-1.501-.015.013-.015.014 1.351 1.474zm.925-1.35 1.873.702.127-.34v-.362h-2zm0-8.075v-2h-2v2h2zm3.25 0h2v-2h-2v2zm.1 10.725-1.99.2.001.004 1.989-.204zm.3 1.775v2h2.562l-.621-2.485-1.941.485zm-2.45 0-1.91.594.438 1.406h1.472v-2zm-.575-1.85 1.91-.593-.437-1.407h-1.473v2zm-.1 0v-2h-1.127l-.584.965 1.711 1.035zm-1.6 1.575 1.042 1.708-1.042-1.708zm-4.125.375-.632 1.898.632-1.898zm-1.25-.825-1.509 1.313 1.509-1.313zm-.775-1.55-1.937.497.006.023.006.023 1.925-.543zm-.25-10.225v-2h-2v2h2zm1.25 0v7.1h4v-7.1h-4zm0 7.1c0 1.077.108 2.221.575 3.12l3.551-1.84c.016.03-.024-.038-.063-.282a6.54 6.54 0 0 1-.063-.998h-4zm.602 3.171c.727 1.309 2.044 1.704 3.173 1.704v-4c-.147 0-.128-.025-.025.024a.826.826 0 0 1 .349.33l-3.497 1.942zm3.173 1.704c1.044 0 2.057-.324 2.877-1.076l-2.703-2.948-.005.004-.003.001c-.009.003-.056.02-.166.02v4zm2.847-1.048a5.318 5.318 0 0 0 1.476-2.15l-3.745-1.404a1.329 1.329 0 0 1-.374.55l2.643 3.004zm1.603-2.852v-8.075h-4v8.075h4zm-2-6.075h3.25v-4h-3.25v4zm1.25-2v8.7h4v-8.7h-4zm0 8.7c0 .749.037 1.49.11 2.224l3.98-.398c-.06-.6-.09-1.208-.09-1.826h-4zm.111 2.23c.074.727.189 1.414.349 2.055l3.881-.97a10.645 10.645 0 0 1-.251-1.494l-3.979.408zm2.289-.43h-2.45v4h2.45v-4zm-.54 1.407-.575-1.85-3.82 1.187.575 1.85 3.82-1.188zm-2.485-3.257h-.1v4h.1v-4zm-1.811.965c-.204.337-.498.639-.93.902l2.083 3.416c.934-.57 1.707-1.318 2.269-2.247l-3.422-2.072zm-.93.902c-.321.196-.756.333-1.384.333v4c1.239 0 2.421-.28 3.467-.917l-2.083-3.416zm-1.384.333c-.46 0-.807-.06-1.067-.147l-1.265 3.794a7.35 7.35 0 0 0 2.332.353v-4zm-1.067-.147a.793.793 0 0 1-.373-.24l-3.019 2.624a4.793 4.793 0 0 0 2.127 1.41l1.265-3.794zm-.373-.24c-.087-.1-.231-.326-.36-.78l-3.85 1.085c.239.845.611 1.653 1.191 2.32l3.019-2.625zm-.347-.735c-.111-.431-.188-1.067-.188-1.953h-4c0 1.081.09 2.078.313 2.947l3.875-.994zm-.188-1.953v-7.775h-4v7.775h4zm-2-5.775h3.25v-4h-3.25v4zm17.152 7.575-1.743.98 1.743-.98zm1.3.35-.328-1.973-.015.003-.014.002.357 1.968zm.725-.225 1.982-.272-.352-2.562-2.391.985.761 1.85zm.35 2.55.895 1.789 1.282-.64-.195-1.42-1.982.271zm-1.225.4-.471-1.944.471 1.944zm-3.875-.45-1.337 1.487.013.012.015.013 1.309-1.512zm-.75-17.2v-2h-2v2h2zm3.25 0h2v-2h-2v2zm-2 13.3c0 .668.071 1.524.482 2.256l3.487-1.961a.713.713 0 0 1 .06.132c.005.017.003.013-.003-.018a2.559 2.559 0 0 1-.026-.409h-4zm.482 2.256c.542.962 1.492 1.42 2.468 1.42v-4c.102 0 .305.02.535.148.24.132.397.316.484.47l-3.487 1.962zm2.468 1.42a5.2 5.2 0 0 0 .933-.083l-.715-3.936a1.22 1.22 0 0 1-.218.018v4zm.904-.078a5.43 5.43 0 0 0 1.158-.349l-1.523-3.698c-.097.04-.172.066-.225.083-.055.017-.075.02-.067.018l.657 3.946zm-1.585-1.926.35 2.55 3.963-.544-.35-2.55-3.963.544zm1.437.49c-.061.03-.292.121-.802.244l.943 3.888c.59-.143 1.175-.319 1.648-.555l-1.789-3.578zm-.802.244a5.189 5.189 0 0 1-1.229.144v4a9.19 9.19 0 0 0 2.172-.256l-.943-3.888zm-1.229.144c-.675 0-.859-.156-.865-.161l-2.619 3.023c.994.861 2.26 1.138 3.484 1.138v-4zm-.837-.136c.04.036.025.046-.007-.047-.036-.105-.081-.314-.081-.667h-4c0 1.293.315 2.699 1.413 3.687l2.675-2.973zm-.088-.714v-15h-4v15h4zm-2-13h3.25v-4h-3.25v4zm1.25-2v13.3h4v-13.3h-4zm4.699 5v-2h-2v2h2zm1.725 0v2h2v-2h-2zm0-2.35-.547-1.923-1.453.413v1.51h2zm3.25-.925h2V34.52l-2.547.724.547 1.924zm0 3.275h-2v2h2v-2zm3.05 0h2v-2h-2v2zm0 2.75v2h2v-2h-2zm-3.05 0v-2h-2v2h2zm.25 6.675-1.834.798.021.049.024.048 1.789-.895zm1.85.45-.515-1.932-.017.004-.017.005.549 1.923zm.825-.3 1.949-.448-.544-2.365-2.217.986.812 1.827zm.575 2.5.868 1.802 1.439-.693-.358-1.557-1.949.448zm-1.575.55.485 1.94-.485-1.94zm-4.375-.65-1.495 1.329.02.022.02.021 1.455-1.372zm-.8-9.225h2v-2h-2v2zm-1.725 0h-2v2h2v-2zm0-.75h1.725v-4h-1.725v4zm3.725-2v-2.35h-4v2.35h4zm-1.452-.426 3.25-.925-1.095-3.848-3.25.925 1.095 3.848zm.702-2.849v3.275h4v-3.275h-4zm2 5.275h3.05v-4h-3.05v4zm1.05-2v2.75h4v-2.75h-4zm2 .75h-3.05v4h3.05v-4zm-5.05 2v4.8h4v-4.8h-4zm0 4.8c0 .91.075 1.888.416 2.673l3.668-1.595c.018.04-.011-.011-.039-.223a6.59 6.59 0 0 1-.045-.855h-4zm.461 2.77a2.93 2.93 0 0 0 1.213 1.27 3.247 3.247 0 0 0 1.576.385v-4c.006 0 .153.001.351.11.217.12.363.296.438.446l-3.578 1.789zm2.789 1.655c.455 0 .935-.044 1.4-.177l-1.099-3.846c.002 0-.019.006-.072.012a2 2 0 0 1-.229.011v4zm1.365-.167c.375-.1.751-.24 1.122-.405l-1.624-3.655a3.685 3.685 0 0 1-.528.195l1.03 3.865zm-1.639-1.785.575 2.5 3.898-.896-.575-2.5-3.898.896zm1.656.25a6.254 6.254 0 0 1-1.192.412l.97 3.88c.702-.175 1.36-.4 1.958-.688l-1.736-3.604zm-1.192.412a5.5 5.5 0 0 1-1.34.165v4a9.49 9.49 0 0 0 2.31-.285l-.97-3.88zm-1.34.165c-.842 0-1.062-.212-1.095-.247l-2.91 2.744c1.067 1.132 2.547 1.503 4.005 1.503v-4zm-1.055-.204c-.049-.054-.295-.426-.295-1.596h-4c0 1.53.287 3.109 1.305 4.254l2.99-2.658zm-.295-1.596v-6.3h-4v6.3h4zm-2-8.3h-1.725v4h1.725v-4zm.275 2v-2.75h-4v2.75h4zm-72.017 39.75h-2v2h2v-2zm-.45-9.3-1.693 1.066.014.022.015.021 1.664-1.109zm-3.05-.125 1.286 1.532.006-.005-1.292-1.527zm-.9 1.325-1.892-.65-.108.316v.334h2zm0 8.1v2h2v-2h-2zm-3.25 0h-2v2h2v-2zm0-12.5v-2h-2v2h2zm2.575 0 1.95-.443-.354-1.557h-1.596v2zm.375 1.65-1.95.443.353 1.557h1.597v-2zm.1 0v2h1.025l.599-.833-1.624-1.167zm1.525-1.4-1.068-1.69 1.068 1.69zm4.1-.35-.652 1.89.652-1.89zm1.225.825-1.509 1.313 1.509-1.313zm.75 1.575-1.94.485.002.012 1.938-.497zm.25 10.2v2h2v-2h-2zm-1.25 0v-7.1h-4v7.1h4zm0-7.1c0-1.116-.146-2.35-.786-3.31l-3.328 2.22c-.037-.056 0-.026.042.178.04.198.072.494.072.912h4zm-.758-3.266c-.763-1.212-2.025-1.609-3.167-1.609v4c.144 0 .142.024.061-.013a.678.678 0 0 1-.279-.247l3.385-2.13zm-3.167-1.609c-1.046 0-2.04.324-2.867 1.023l2.584 3.054c.04-.034.095-.077.283-.077v-4zm-2.862 1.019a4.945 4.945 0 0 0-1.505 2.206l3.783 1.3a.952.952 0 0 1 .295-.444l-2.573-3.062zm-1.613 2.856v8.1h4v-8.1h-4zm2 6.1h-3.25v4h3.25v-4zm-1.25 2v-12.5h-4v12.5h4zm-2-10.5h2.575v-4h-2.575v4zm.625-1.557.375 1.65 3.9-.886-.375-1.65-3.9.886zm2.325 3.207h.1v-4h-.1v4zm1.724-.833c.214-.297.522-.594.969-.876l-2.136-3.382c-.82.518-1.528 1.155-2.081 1.924l3.248 2.334zm.969-.876c.223-.14.636-.29 1.382-.29v-4c-1.255 0-2.475.25-3.518.908l2.136 3.382zm1.382-.29c.439 0 .762.059.998.14l1.304-3.782c-.731-.252-1.508-.359-2.302-.359v4zm.998.14c.154.053.266.13.368.246l3.018-2.624a4.811 4.811 0 0 0-2.082-1.404l-1.304 3.782zm.368.246c.066.077.203.285.319.748l3.88-.97c-.217-.87-.581-1.712-1.181-2.402l-3.018 2.624zm.321.76c.112.434.188 1.062.188 1.928h4c0-1.067-.091-2.055-.313-2.922l-3.875.994zm.188 1.928v7.775h4v-7.775h-4zm2 5.775h-3.25v4h3.25v-4zm3.673-9.125 1.478 1.348.005-.006.005-.005-1.488-1.337zm6.95-1.25.793-1.836-.793 1.836zm1.825 1.35-1.54 1.276.009.011.009.011 1.522-1.298zm1.075 2.075-1.923.55.005.018.005.018 1.913-.586zm-1.175 7.6-1.488-1.337-.001.002 1.489 1.335zm-6.925 1.225.793-1.836-.793 1.836zm-1.85-1.325-1.54 1.276.02.024.02.023 1.5-1.323zm-1.1-2.1-1.923.55.005.018.005.018 1.913-.586zm3.6.05 1.736-.992-1.736.992zm.775.825-1.068 1.691.051.032.053.03.964-1.753zm3.075-.65 1.657 1.12-1.657-1.12zm.05-5.7-1.764.943.005.01.005.008 1.754-.96zm-3.825-.175-1.6-1.2 1.6 1.2zm-2.025 2.95c0-1.809.44-2.882 1.028-3.527l-2.956-2.695c-1.479 1.621-2.072 3.798-2.072 6.222h4zm1.038-3.538c.576-.641 1.435-1.062 2.862-1.062v-4c-2.306 0-4.347.73-5.838 2.388l2.976 2.674zm2.862-1.062c.794 0 1.379.126 1.807.311l1.586-3.672c-1.038-.448-2.187-.639-3.393-.639v4zm1.807.311c.46.199.807.463 1.078.79l3.08-2.552a6.799 6.799 0 0 0-2.572-1.91l-1.586 3.672zm1.096.812c.273.32.508.747.674 1.327l3.846-1.1c-.301-1.053-.783-2.01-1.476-2.823l-3.044 2.596zm.684 1.363c.184.6.288 1.3.288 2.114h4c0-1.152-.147-2.253-.463-3.285l-3.825 1.17zm.288 2.114c0 1.807-.439 2.897-1.038 3.563l2.976 2.674c1.468-1.634 2.062-3.81 2.062-6.237h-4zm-1.039 3.565c-.553.617-1.399 1.035-2.836 1.035v4c2.296 0 4.334-.715 5.814-2.364l-2.978-2.671zm-2.836 1.035c-.794 0-1.379-.126-1.807-.311l-1.586 3.672c1.038.449 2.187.64 3.393.64v-4zm-1.807-.311a3.15 3.15 0 0 1-1.143-.812l-3 2.646a7.154 7.154 0 0 0 2.557 1.838l1.586-3.672zm-1.103-.765c-.295-.355-.545-.813-.728-1.41l-3.825 1.172c.318 1.037.801 1.98 1.473 2.79l3.08-2.552zm-.717-1.373c-.175-.613-.273-1.325-.273-2.15h-4c0 1.14.135 2.228.427 3.249l3.846-1.1zm-.923-2.15c0 .67.061 1.32.194 1.943l3.911-.838a5.323 5.323 0 0 1-.105-1.106h-4zm.194 1.943c.136.632.351 1.24.669 1.798l3.473-1.984a2.289 2.289 0 0 1-.231-.652l-3.911.838zm.669 1.798c.35.612.83 1.136 1.444 1.524l2.136-3.382a.329.329 0 0 1-.107-.126l-3.473 1.984zm1.548 1.586c.678.373 1.414.522 2.139.522v-4a.787.787 0 0 1-.205-.025l-.005-.002h-.001l-1.928 3.505zm2.139.522c1.404 0 2.711-.553 3.557-1.805l-3.314-2.24c-.015.023-.022.028-.018.024l.007-.005a.02.02 0 0 1 .003-.003h.002-.002l-.008.003a.954.954 0 0 1-.227.026v4zm3.557-1.805c.756-1.12.968-2.588.968-4.045h-4c0 1.21-.205 1.691-.282 1.805l3.314 2.24zm.968-4.045c0-1.347-.221-2.64-.821-3.735l-3.508 1.92c.166.305.329.862.329 1.815h4zm-.812-3.718a3.928 3.928 0 0 0-1.573-1.615c-.682-.376-1.423-.517-2.14-.517v4c.199 0 .242.038.209.02a.2.2 0 0 1-.039-.03c-.008-.008-.001-.004.016.028l3.527-1.886zm-3.713-2.132c-1.381 0-2.619.559-3.475 1.7l3.2 2.4a.36.36 0 0 1 .054-.06.065.065 0 0 1 .018-.012.48.48 0 0 1 .203-.028v-4zm-3.475 1.7c-.849 1.132-1.075 2.662-1.075 4.15h4c0-1.245.224-1.682.275-1.75l-3.2-2.4zm10.303-2.1v-2h-2v2h2zm1.725 0v2h2v-2h-2zm0-2.35-.548-1.924-1.452.414v1.51h2zm3.25-.925h2V64.52l-2.548.724.548 1.924zm0 3.275h-2v2h2v-2zm3.05 0h2v-2h-2v2zm0 2.75v2h2v-2h-2zm-3.05 0v-2h-2v2h2zm.25 6.675-1.835.798.022.049.024.048 1.789-.895zm1.85.45-.516-1.932-.017.004-.017.005.55 1.923zm.825-.3 1.949-.448-.544-2.365-2.218.986.813 1.827zm.575 2.5.867 1.802 1.44-.693-.358-1.557-1.949.448zm-1.575.55.485 1.94-.485-1.94zm-4.375-.65-1.495 1.329.019.022.02.021 1.456-1.372zm-.8-9.225h2v-2h-2v2zm-1.725 0h-2v2h2v-2zm0-.75h1.725v-4h-1.725v4zm3.725-2v-2.35h-4v2.35h4zm-1.453-.426 3.25-.925-1.095-3.847-3.25.924 1.095 3.848zm.703-2.849v3.275h4v-3.275h-4zm2 5.275h3.05v-4h-3.05v4zm1.05-2v2.75h4v-2.75h-4zm2 .75h-3.05v4h3.05v-4zm-5.05 2v4.8h4v-4.8h-4zm0 4.8c0 .91.074 1.888.415 2.673l3.669-1.595c.018.04-.011-.011-.039-.223a6.59 6.59 0 0 1-.045-.855h-4zm.461 2.77c.258.516.662.967 1.212 1.27a3.25 3.25 0 0 0 1.577.385v-4c.006 0 .153.001.351.11.217.12.362.296.437.446l-3.577 1.789zm2.789 1.655c.455 0 .934-.044 1.399-.177l-1.099-3.846c.003 0-.019.006-.072.012a1.966 1.966 0 0 1-.228.011v4zm1.365-.167c.374-.1.75-.24 1.122-.405l-1.625-3.656a3.642 3.642 0 0 1-.528.196l1.031 3.865zm-1.64-1.785.575 2.5 3.899-.896-.575-2.5-3.899.896zm1.657.25a6.304 6.304 0 0 1-1.192.412l.97 3.88c.702-.175 1.36-.4 1.957-.688l-1.735-3.604zm-1.192.412c-.442.11-.888.165-1.34.165v4c.78 0 1.552-.095 2.31-.285l-.97-3.88zm-1.34.165c-.842 0-1.062-.212-1.095-.247l-2.911 2.744c1.068 1.132 2.548 1.503 4.006 1.503v-4zm-1.056-.204c-.048-.054-.294-.426-.294-1.596h-4c0 1.53.287 3.109 1.305 4.254l2.989-2.658zm-.294-1.596v-6.3h-4v6.3h4zm-2-8.3h-1.725v4h1.725v-4zm.275 2v-2.75h-4v2.75h4zm14.414-7.75v-2h-2v2h2zm10.375 0h2v-2h-2v2zm0 3.05v2h2v-2h-2zm-6.95 0v-2h-2v2h2zm0 4.325h-2v2h2v-2zm6.4 0h2v-2h-2v2zm0 3.05v2h2v-2h-2zm-6.4 0v-2h-2v2h2zm0 7.075v2h2v-2h-2zm-3.425 0h-2v2h2v-2zm0-15.5h10.375v-4h-10.375v4zm8.375-2v3.05h4v-3.05h-4zm2 1.05h-6.95v4h6.95v-4zm-8.95 2v4.325h4v-4.325h-4zm2 6.325h6.4v-4h-6.4v4zm4.4-2v3.05h4v-3.05h-4zm2 1.05h-6.4v4h6.4v-4zm-8.4 2v7.075h4v-7.075h-4zm2 5.075h-3.425v4h3.425v-4zm-1.425 2v-17.5h-4v17.5h4zm11.57-11.125 1.478 1.348.005-.006.005-.005-1.488-1.337zm6.95-1.25.793-1.836-.793 1.836zm1.825 1.35-1.54 1.276.009.011.009.011 1.522-1.298zm1.075 2.075-1.923.55.005.018.006.018 1.912-.586zm-1.175 7.6-1.488-1.337-.001.002 1.489 1.335zm-6.925 1.225.793-1.836-.793 1.836zm-1.85-1.325-1.54 1.276.02.024.02.023 1.5-1.323zm-1.1-2.1-1.923.55.005.018.006.018 1.912-.586zm3.6.05 1.736-.992-1.736.992zm.775.825-1.068 1.691.051.032.053.03.964-1.753zm3.075-.65 1.657 1.12-1.657-1.12zm.05-5.7-1.764.943.005.01.005.008 1.754-.96zm-3.825-.175-1.6-1.2 1.6 1.2zm-2.025 2.95c0-1.809.44-2.882 1.028-3.527l-2.956-2.695c-1.479 1.621-2.072 3.798-2.072 6.222h4zm1.038-3.538c.576-.641 1.435-1.062 2.862-1.062v-4c-2.306 0-4.347.73-5.838 2.388l2.976 2.674zm2.862-1.062c.794 0 1.379.126 1.807.311l1.586-3.672c-1.038-.448-2.187-.639-3.393-.639v4zm1.807.311c.46.199.807.463 1.078.79l3.08-2.552a6.799 6.799 0 0 0-2.572-1.91l-1.586 3.672zm1.096.812c.273.32.508.747.674 1.327l3.846-1.1c-.301-1.053-.783-2.01-1.476-2.823l-3.044 2.596zm.685 1.363c.183.6.287 1.3.287 2.114h4c0-1.152-.147-2.253-.463-3.285l-3.824 1.17zm.287 2.114c0 1.807-.439 2.897-1.038 3.563l2.976 2.674c1.468-1.634 2.062-3.81 2.062-6.237h-4zm-1.039 3.565c-.553.617-1.399 1.035-2.836 1.035v4c2.296 0 4.334-.715 5.814-2.364l-2.978-2.671zm-2.836 1.035c-.794 0-1.379-.126-1.807-.311l-1.586 3.672c1.038.449 2.187.64 3.393.64v-4zm-1.807-.311a3.15 3.15 0 0 1-1.143-.812l-3 2.646a7.154 7.154 0 0 0 2.557 1.838l1.586-3.672zm-1.103-.765c-.295-.355-.545-.813-.728-1.41l-3.824 1.172c.317 1.037.8 1.98 1.472 2.79l3.08-2.552zm-.717-1.373c-.175-.613-.273-1.325-.273-2.15h-4c0 1.14.135 2.228.427 3.249l3.846-1.1zm-.923-2.15c0 .67.061 1.32.194 1.943l3.912-.838a5.25 5.25 0 0 1-.106-1.106h-4zm.194 1.943c.136.632.351 1.24.669 1.798l3.473-1.984a2.262 2.262 0 0 1-.23-.652l-3.912.838zm.669 1.798c.35.612.83 1.136 1.444 1.524l2.136-3.382a.329.329 0 0 1-.107-.126l-3.473 1.984zm1.548 1.586c.678.373 1.414.522 2.139.522v-4a.795.795 0 0 1-.205-.025l-.005-.002h-.001l-1.928 3.505zm2.139.522c1.404 0 2.711-.553 3.557-1.805l-3.314-2.24c-.015.023-.022.028-.018.024l.007-.005a.02.02 0 0 1 .003-.003h.002-.002l-.008.003a.954.954 0 0 1-.227.026v4zm3.557-1.805c.756-1.12.968-2.588.968-4.045h-4c0 1.21-.205 1.691-.282 1.805l3.314 2.24zm.968-4.045c0-1.347-.221-2.64-.821-3.735l-3.508 1.92c.166.305.329.862.329 1.815h4zm-.811-3.718a3.934 3.934 0 0 0-1.573-1.615c-.683-.376-1.423-.517-2.141-.517v4c.199 0 .242.038.209.02a.167.167 0 0 1-.038-.03c-.009-.008-.002-.004.015.028l3.528-1.886zm-3.714-2.132c-1.381 0-2.619.559-3.475 1.7l3.2 2.4a.415.415 0 0 1 .054-.06.065.065 0 0 1 .018-.012.486.486 0 0 1 .203-.028v-4zm-3.475 1.7c-.849 1.132-1.075 2.662-1.075 4.15h4c0-1.245.224-1.682.275-1.75l-3.2-2.4zm14.728-2.1h2v-2h-2v2zm.35 9.3-1.776.92.013.026.014.025 1.749-.97zm2.95.125-1.322-1.501-.015.013-.015.014 1.352 1.474zm.925-1.35 1.872.702.128-.34v-.362h-2zm0-8.075v-2h-2v2h2zm3.25 0h2v-2h-2v2zm.1 10.725-1.99.2v.004l1.99-.204zm.3 1.775v2h2.561l-.621-2.485-1.94.485zm-2.45 0-1.91.594.437 1.406h1.473v-2zm-.575-1.85 1.91-.593-.438-1.407h-1.472v2zm-.1 0v-2h-1.128l-.583.965 1.711 1.035zm-1.6 1.575 1.041 1.708-1.041-1.708zm-4.125.375-.633 1.897.633-1.897zm-1.25-.825-1.509 1.313 1.509-1.313zm-.775-1.55-1.938.497.006.023.007.023 1.925-.543zm-.25-10.225v-2h-2v2h2zm1.25 0v7.1h4v-7.1h-4zm0 7.1c0 1.077.108 2.221.574 3.12l3.551-1.84c.016.03-.024-.038-.063-.282a6.564 6.564 0 0 1-.062-.998h-4zm.601 3.171c.727 1.309 2.045 1.704 3.174 1.704v-4c-.148 0-.129-.025-.025.024a.801.801 0 0 1 .348.33l-3.497 1.942zm3.174 1.704c1.043 0 2.057-.324 2.876-1.076l-2.703-2.948-.005.004-.003.001a.515.515 0 0 1-.165.02v4zm2.846-1.048a5.318 5.318 0 0 0 1.476-2.15l-3.745-1.404a1.32 1.32 0 0 1-.374.55l2.643 3.004zm1.604-2.852v-8.075h-4v8.075h4zm-2-6.075h3.25v-4h-3.25v4zm1.25-2v8.7h4v-8.7h-4zm0 8.7c0 .749.036 1.49.11 2.224l3.98-.398c-.06-.6-.09-1.208-.09-1.826h-4zm.11 2.23c.075.727.189 1.414.349 2.055l3.881-.97a10.793 10.793 0 0 1-.251-1.494l-3.979.408zm2.29-.43h-2.45v4h2.45v-4zm-.54 1.407-.575-1.85-3.82 1.187.575 1.85 3.82-1.188zm-2.485-3.257h-.1v4h.1v-4zm-1.811.965c-.204.337-.498.639-.931.903l2.083 3.415a6.676 6.676 0 0 0 2.27-2.247l-3.422-2.072zm-.931.903c-.32.195-.755.332-1.383.332v4c1.238 0 2.42-.28 3.466-.917l-2.083-3.415zm-1.383.332c-.461 0-.808-.06-1.068-.147l-1.265 3.794a7.356 7.356 0 0 0 2.333.353v-4zm-1.068-.147a.798.798 0 0 1-.373-.24l-3.018 2.624a4.79 4.79 0 0 0 2.126 1.41l1.265-3.794zm-.373-.24c-.087-.1-.231-.326-.359-.78l-3.85 1.085c.238.845.611 1.653 1.191 2.32l3.018-2.625zm-.347-.735c-.111-.431-.187-1.067-.187-1.953h-4c0 1.081.09 2.078.312 2.947l3.875-.994zm-.187-1.953v-7.775h-4v7.775h4zm-2-5.775h3.25v-4h-3.25v4zm21.227 10.5h-2v2h2v-2zm-.45-9.3-1.693 1.066.014.022.015.021 1.664-1.109zm-3.05-.125 1.286 1.532.006-.005-1.292-1.527zm-.9 1.325-1.892-.65-.108.316v.334h2zm0 8.1v2h2v-2h-2zm-3.25 0h-2v2h2v-2zm0-12.5v-2h-2v2h2zm2.575 0 1.95-.443-.354-1.557h-1.596v2zm.375 1.65-1.95.443.353 1.557h1.597v-2zm.1 0v2h1.025l.599-.833-1.624-1.167zm1.525-1.4-1.068-1.69 1.068 1.69zm4.1-.35-.652 1.89.652-1.89zm1.225.825-1.509 1.313 1.509-1.313zm.75 1.575-1.94.485.003.012 1.937-.497zm.25 10.2v2h2v-2h-2zm-1.25 0v-7.1h-4v7.1h4zm0-7.1c0-1.116-.146-2.35-.786-3.31l-3.328 2.22c-.037-.056 0-.026.042.178.04.198.072.494.072.912h4zm-.758-3.266c-.763-1.212-2.025-1.609-3.167-1.609v4c.144 0 .142.024.061-.013a.678.678 0 0 1-.279-.247l3.385-2.13zm-3.167-1.609c-1.046 0-2.04.324-2.867 1.023l2.584 3.054c.04-.034.095-.077.283-.077v-4zm-2.862 1.019a4.953 4.953 0 0 0-1.505 2.206l3.783 1.3a.952.952 0 0 1 .295-.444l-2.573-3.062zm-1.613 2.856v8.1h4v-8.1h-4zm2 6.1h-3.25v4h3.25v-4zm-1.25 2v-12.5h-4v12.5h4zm-2-10.5h2.575v-4h-2.575v4zm.625-1.557.375 1.65 3.9-.886-.375-1.65-3.9.886zm2.325 3.207h.1v-4h-.1v4zm1.724-.833c.214-.297.522-.594.969-.876l-2.136-3.382c-.82.518-1.528 1.155-2.081 1.924l3.248 2.334zm.969-.876c.223-.14.637-.29 1.382-.29v-4c-1.255 0-2.475.25-3.518.908l2.136 3.382zm1.382-.29c.439 0 .762.059.998.14l1.304-3.782c-.731-.252-1.508-.359-2.302-.359v4zm.998.14c.154.053.266.13.368.246l3.018-2.624a4.811 4.811 0 0 0-2.082-1.404l-1.304 3.782zm.368.246c.066.077.203.285.319.748l3.88-.97c-.217-.87-.581-1.712-1.181-2.402l-3.018 2.624zm.322.76c.111.434.187 1.062.187 1.928h4c0-1.067-.091-2.055-.313-2.922l-3.874.994zm.187 1.928v7.775h4v-7.775h-4zm2 5.775h-3.25v4h3.25v-4zm13.373-.3-2 .048 2-.048zm.225 2.325v2h2.338l-.362-2.31-1.976.31zm-2.325 0-1.928.534.406 1.466h1.522v-2zm-.45-1.625 1.927-.534-.406-1.466h-1.521v2zm-.1 0v-2h-1.161l-.576 1.008 1.737.992zm-1.45 1.425.987 1.74.008-.005.007-.004-1.002-1.73zm-5.85-1.025-1.532 1.285 1.532-1.285zm.15-9.825 1.549 1.265-1.549-1.265zm5.525-1.675-.392 1.961.047.01.048.007.297-1.978zm1 .275-.743 1.857 2.743 1.097v-2.954h-2zm0-5.075v-2h-2v2h2zm3.25 0h2v-2h-2v2zm-4.025 14.65 1.266 1.548.021-.017.02-.017-1.307-1.514zm.775-1.35 1.937.498.063-.245v-.253h-2zm0-5.3h2v-.972l-.764-.6-1.236 1.572zm-.775-.4-.666 1.886.05.018.052.015.564-1.919zm-3.175.775-1.595-1.207-.01.014-.011.014 1.616 1.18zm-.125 5.75-1.742.983.009.017.01.016 1.723-1.016zm5.325-1.025c0 .716.008 1.432.025 2.148l3.999-.096a87.772 87.772 0 0 1-.024-2.052h-4zm.025 2.148c.02.805.105 1.669.249 2.587l3.952-.62a15.977 15.977 0 0 1-.202-2.063l-3.999.096zm2.225.277h-2.325v4h2.325v-4zm-.398 1.466-.45-1.625-3.855 1.068.45 1.625 3.855-1.068zm-2.377-3.09h-.1v4h.1v-4zm-1.837 1.007c-.142.25-.359.48-.715.686l2.004 3.462c.911-.527 1.66-1.247 2.184-2.164l-3.473-1.984zm-.7.678c-.261.148-.64.264-1.213.264v4c1.127 0 2.215-.234 3.187-.785l-1.974-3.48zm-1.213.264c-1.082 0-1.695-.33-2.118-.835l-3.064 2.57c1.31 1.562 3.13 2.265 5.182 2.265v-4zm-2.118-.835c-.425-.507-.832-1.559-.832-3.565h-4c0 2.394.459 4.576 1.768 6.135l3.064-2.57zm-.832-3.565c0-1.852.421-3.002.999-3.71l-3.098-2.53c-1.355 1.659-1.901 3.826-1.901 6.24h4zm.999-3.71c.503-.615 1.288-1.04 2.701-1.04v-4c-2.321 0-4.369.759-5.799 2.51l3.098 2.53zm2.701-1.04c.445 0 .727.03.883.061l.784-3.922a8.63 8.63 0 0 0-1.667-.139v4zm.978.078c.171.026.355.075.554.154l1.486-3.714a6.49 6.49 0 0 0-1.446-.396l-.594 3.956zm3.297-1.703v-5.075h-4v5.075h4zm-2-3.075h3.25v-4h-3.25v4zm1.25-2v13.1h4v-13.1h-4zm-3.525 17.1c.939 0 1.938-.224 2.766-.902l-2.533-3.096c.041-.033.065-.037.042-.03a1.012 1.012 0 0 1-.275.028v4zm2.807-.936c.743-.642 1.178-1.484 1.405-2.366l-3.874-.996a1.098 1.098 0 0 1-.104.277c-.025.044-.04.057-.041.058l2.614 3.027zm1.468-2.864v-5.3h-4v5.3h4zm-.764-6.873a4.303 4.303 0 0 0-1.447-.746l-1.128 3.838a.285.285 0 0 1 .103.054l2.472-3.145zm-1.345-.713c-.576-.203-1.191-.264-1.766-.264v4c.153 0 .265.009.342.02.078.01.104.02.092.016l1.332-3.772zm-1.766-.264c-1.412 0-2.753.506-3.67 1.718l3.19 2.414a.2.2 0 0 1 .088-.074c.041-.018.156-.058.392-.058v-4zm-3.691 1.746c-.846 1.16-1.059 2.774-1.059 4.354h4c0-.66.05-1.151.125-1.503.037-.172.076-.296.11-.379.033-.083.056-.115.055-.114l-3.231-2.358zm-1.059 4.354c0 1.272.215 2.506.808 3.558l3.484-1.965c-.14-.25-.292-.731-.292-1.593h-4zm.827 3.591c.778 1.318 2.069 1.96 3.523 1.96v-4a.583.583 0 0 1-.125-.011c-.012-.003-.004-.002.015.008.02.01.036.023.046.033.009.01.003.006-.013-.022l-3.446 2.032z" fill="#fff"/></g></g><defs><clipPath id="a"><path fill="#fff" transform="translate(0 .151)" d="M0 0h612v441H0z"/></clipPath><filter id="b" x="227.193" y="33.192" width="114.163" height="56.1" filterUnits="userSpaceOnUse" color-interpolation-filters="sRGB"><feFlood flood-opacity="0" result="BackgroundImageFix"/><feColorMatrix in="SourceAlpha" values="0 0 0 0 0 0 0 0 0 0 0 0 0 0 0 0 0 0 127 0" result="hardAlpha"/><feOffset dy="2"/><feGaussianBlur stdDeviation="2"/><feComposite in2="hardAlpha" operator="out"/><feColorMatrix values="0 0 0 0 0 0 0 0 0 0 0 0 0 0 0 0 0 0 0.25 0"/><feBlend in2="BackgroundImageFix" result="effect1_dropShadow_938_4279"/><feBlend in="SourceGraphic" in2="effect1_dropShadow_938_4279" result="shape"/></filter></defs></svg>